SplineFontDB: 3.2
FontName: vahid
FullName: vahid
FamilyName: vahid
Weight: Regular
Copyright: Copyright 2015-2022 The Aref Ruqaa Project Authors (https://github.com/aliftype/aref-ruqaa), with Reserved Font Name EURM10. and Mucteba Nesiri
Version: 1.006
ItalicAngle: 0
UnderlinePosition: -67
UnderlineWidth: 73
Ascent: 800
Descent: 200
InvalidEm: 0
sfntRevision: 0x00010189
LayerCount: 2
Layer: 0 0 "Back" 1
Layer: 1 0 "Fore" 0
XUID: [1021 569 -1486673895 3757467]
StyleMap: 0x0040
FSType: 0
OS2Version: 4
OS2_WeightWidthSlopeOnly: 0
OS2_UseTypoMetrics: 1
CreationTime: 0
ModificationTime: 1757941985
PfmFamily: 17
TTFWeight: 400
TTFWidth: 5
LineGap: 98
VLineGap: 0
Panose: 2 0 5 3 0 0 0 0 0 0
OS2TypoAscent: 1221
OS2TypoAOffset: 0
OS2TypoDescent: -244
OS2TypoDOffset: 0
OS2TypoLinegap: 98
OS2WinAscent: 1221
OS2WinAOffset: 0
OS2WinDescent: 439
OS2WinDOffset: 0
HheadAscent: 1221
HheadAOffset: 0
HheadDescent: -244
HheadDOffset: 0
OS2SubXSize: 650
OS2SubYSize: 700
OS2SubXOff: 47
OS2SubYOff: 140
OS2SupXSize: 650
OS2SupYSize: 700
OS2SupXOff: -164
OS2SupYOff: 480
OS2StrikeYSize: 49
OS2StrikeYPos: 258
OS2CapHeight: 683
OS2XHeight: 462
OS2Vendor: 'ALIF'
OS2CodePages: 00000041.00000000
OS2UnicodeRanges: 8000206f.8000004b.00000000.00000000
Lookup: 2 0 0 "'ccmp' Glyph Composition/Decomposition in Arabic lookup 0" { "'ccmp' Glyph Composition/Decomposition in Arabic lookup 0 subtable"  } ['ccmp' ('arab' <'KSH ' 'MLY ' 'SND ' 'URD ' 'dflt' > ) ]
Lookup: 1 0 0 "'locl' Localized Forms in Arabic lookup 5" { "'locl' Localized Forms in Arabic lookup 5 subtable"  } ['locl' ('arab' <'URD ' > ) ]
Lookup: 1 0 0 "'locl' Localized Forms in Arabic lookup 6" { "'locl' Localized Forms in Arabic lookup 6 subtable"  } ['locl' ('arab' <'KSH ' > ) ]
Lookup: 1 0 0 "'locl' Localized Forms in Arabic lookup 7" { "'locl' Localized Forms in Arabic lookup 7 subtable"  } ['locl' ('arab' <'SND ' > ) ]

StartChar: .notdef
Encoding: 65536 -1 0
Width: 500
GlyphClass: 1
Flags: W
LayerCount: 2
Fore
SplineSet
50 -200 m 1
 50 800 l 1
 450 800 l 1
 450 -200 l 1
 50 -200 l 1
100 -150 m 1
 400 -150 l 1
 400 750 l 1
 100 750 l 1
 100 -150 l 1
EndSplineSet
Validated: 1
EndChar

StartChar: exclam
Encoding: 33 33 2
Width: 253
GlyphClass: 1
Flags: W
LayerCount: 2
Fore
SplineSet
203 464 m 0
 206.333007812 415.333007812 203.501953125 372.833007812 194.501953125 336.5 c 0
 185.501953125 300.166992188 173.668945312 267.333984375 159.001953125 238.000976562 c 0
 155.001953125 230.000976562 151.168945312 222.000976562 147.501953125 214.000976562 c 0
 143.834960938 206.000976562 138.66796875 199.333984375 132.000976562 194.000976562 c 0
 127.333984375 190.66796875 124.833984375 191.000976562 124.500976562 195.000976562 c 0
 124.16796875 199.000976562 124.000976562 201.333984375 124.000976562 202.000976562 c 0
 134.000976562 262.000976562 136.16796875 318.500976562 130.500976562 371.500976562 c 0
 124.833984375 424.500976562 114.333984375 473.333984375 99.0009765625 518.000976562 c 0
 83.66796875 562.66796875 66.66796875 603.000976562 48.0009765625 639.000976562 c 0
 46.66796875 641.66796875 44.0009765625 646.16796875 40.0009765625 652.500976562 c 0
 36.0009765625 658.833984375 32.5009765625 665.166992188 29.5009765625 671.5 c 0
 26.5009765625 677.833007812 25.333984375 682 26.0009765625 684 c 0
 35.333984375 707.333007812 45.1669921875 730.5 55.5 753.5 c 0
 65.8330078125 776.5 76 800 86 824 c 1
 102.666992188 788.666992188 119.333984375 753 136.000976562 717 c 0
 152.66796875 681 167.16796875 642.666992188 179.500976562 602 c 0
 191.833984375 561.333007812 199.666992188 515.333007812 203 464 c 0
49.001953125 85 m 2
 138.000976562 177 l 2
 140.66796875 181 144.66796875 181 150.000976562 177 c 2
 223.000976562 107 l 2
 227.000976562 104.333007812 227.000976562 100.333007812 223.000976562 95 c 2
 135.000976562 3 l 2
 131.66796875 -1 127.334960938 -1 122.001953125 3 c 2
 50.001953125 73 l 2
 46.001953125 76.3330078125 45.6689453125 80.3330078125 49.001953125 85 c 2
EndSplineSet
Validated: 33
Substitution2: "'locl' Localized Forms in Latin lookup 98 subtable" exclam.locl
EndChar

StartChar: quotedbl
Encoding: 34 34 3
Width: 333
GlyphClass: 1
Flags: W
LayerCount: 2
Fore
SplineSet
118 432 m 1
 97.0009765625 432 l 1
 77.0009765625 584 l 2
 75.66796875 596 74.5009765625 608.166992188 73.5009765625 620.5 c 0
 72.5009765625 632.833007812 72.0009765625 645 72.0009765625 657 c 0
 72.0009765625 667.666992188 74.5009765625 676.666992188 79.5009765625 684 c 0
 84.5009765625 691.333007812 93.333984375 695 106.000976562 695 c 0
 113.333984375 695 120.666992188 693.5 128 690.5 c 0
 135.333007812 687.5 139 682.333007812 139 675 c 2
 139 623 l 1
 118 432 l 1
239.000976562 432 m 1
 218 432.001953125 l 1
 196 625.001953125 l 2
 195.333007812 632.334960938 194.333007812 640.66796875 193 650.000976562 c 0
 191.666992188 659.333984375 191 665.333984375 191 668.000976562 c 0
 191 677.333984375 195.333007812 683.666992188 204 687 c 0
 212.666992188 690.333007812 221.333984375 692 230.000976562 692 c 0
 235.333984375 692 241.500976562 690.5 248.500976562 687.5 c 0
 255.500976562 684.5 259.000976562 679.666992188 259.000976562 673 c 2
 259.000976562 649 l 2
 259.000976562 641 258.66796875 633.333007812 258.000976562 626 c 2
 239.000976562 432 l 1
EndSplineSet
Validated: 1
Substitution2: "'locl' Localized Forms in Latin lookup 98 subtable" quotedbl.locl
EndChar

StartChar: numbersign
Encoding: 35 35 4
Width: 715
GlyphClass: 1
Flags: W
LayerCount: 2
Fore
SplineSet
10 228 m 1
 6 249 l 1
 14 259 l 1
 192 259 l 1
 251 468 l 1
 81 468 l 1
 75 478 l 1
 71 499 l 1
 79 509 l 1
 262 509 l 1
 316 704 l 1
 327 707 l 1
 349 705 l 1
 356 695 l 1
 304 509 l 1
 511 509 l 1
 565 704 l 1
 576 707 l 1
 598 705 l 1
 605 695 l 1
 553 509 l 1
 702 509 l 1
 708 476 l 1
 696 468 l 1
 542 468 l 1
 484 259 l 1
 642 259 l 1
 648 226 l 1
 636 218 l 1
 472 218 l 1
 413 6 l 1
 380 9 l 1
 376 23 l 1
 430 218 l 1
 223 218 l 1
 164 6 l 1
 131 9 l 1
 127 23 l 1
 181 218 l 1
 16 218 l 1
 10 228 l 1
235 259 m 1
 441 259 l 1
 500 468 l 1
 293 468 l 1
 235 259 l 1
EndSplineSet
Validated: 1
EndChar

StartChar: dollar
Encoding: 36 36 5
Width: 476
GlyphClass: 1
Flags: W
LayerCount: 2
Fore
SplineSet
439 593 m 1
 379 539.997070312 l 1
 366 542.997070312 l 1
 358.666992188 571.6640625 347.333984375 595.497070312 332.000976562 614.497070312 c 0
 316.66796875 633.497070312 295.334960938 644.6640625 268.001953125 647.997070312 c 1
 268.001953125 396.997070312 l 1
 274.668945312 393.6640625 282.001953125 390.331054688 290.001953125 386.998046875 c 0
 340.001953125 364.998046875 377.834960938 340.498046875 403.501953125 313.498046875 c 0
 429.168945312 286.498046875 442.001953125 253.998046875 442.001953125 215.998046875 c 0
 442.001953125 183.998046875 434.001953125 154.831054688 418.001953125 128.498046875 c 0
 402.001953125 102.165039062 380.668945312 79.498046875 354.001953125 60.498046875 c 0
 327.334960938 41.498046875 298.66796875 26.998046875 268.000976562 16.998046875 c 1
 268.000976562 -99.001953125 l 1
 228.000976562 -107.001953125 l 1
 228.000976562 6.998046875 l 1
 212.66796875 4.3310546875 197.334960938 2.998046875 182.001953125 2.998046875 c 0
 149.334960938 2.998046875 118.334960938 10.498046875 89.001953125 25.498046875 c 0
 59.6689453125 40.498046875 38.3359375 65.3310546875 25.0029296875 99.998046875 c 1
 80.0029296875 162.998046875 l 1
 96.0029296875 161.998046875 l 1
 106.002929688 129.331054688 121.169921875 101.998046875 141.502929688 79.998046875 c 0
 161.8359375 57.998046875 188.668945312 46.998046875 222.001953125 46.998046875 c 2
 228.001953125 46.998046875 l 1
 228.001953125 321.998046875 l 1
 175.334960938 345.331054688 135.66796875 370.331054688 109.000976562 396.998046875 c 0
 82.333984375 423.665039062 69.0009765625 459.33203125 69.0009765625 503.999023438 c 0
 69.0009765625 537.999023438 76.16796875 567.33203125 90.5009765625 591.999023438 c 0
 104.833984375 616.666015625 124.166992188 636.333007812 148.5 651 c 0
 172.833007812 665.666992188 199.333007812 675.333984375 228 680.000976562 c 1
 228 790.000976562 l 1
 268 798.000976562 l 1
 268 684.000976562 l 1
 271 684.000976562 l 2
 294.333007812 684.000976562 316 681.833984375 336 677.500976562 c 0
 356 673.16796875 374.666992188 664.66796875 392 652.000976562 c 0
 409.333007812 639.333984375 425 619.666992188 439 593 c 1
145 536.997070312 m 0
 145 510.997070312 153 488.330078125 169 468.997070312 c 0
 185 449.6640625 204.666992188 432.6640625 228 417.997070312 c 1
 228 646.997070312 l 1
 203.333007812 640.997070312 183.333007812 627.830078125 168 607.497070312 c 0
 152.666992188 587.1640625 145 563.6640625 145 536.997070312 c 0
358 185.997070312 m 0
 358 208.6640625 349 230.33203125 331 250.999023438 c 0
 313 271.666015625 292 288.666015625 268 301.999023438 c 1
 268 54.9990234375 l 1
 294 64.33203125 315.5 80.6650390625 332.5 103.998046875 c 0
 349.5 127.331054688 358 154.6640625 358 185.997070312 c 0
EndSplineSet
Validated: 1
EndChar

StartChar: percent
Encoding: 37 37 6
Width: 827
GlyphClass: 1
Flags: W
LayerCount: 2
Fore
SplineSet
228 795 m 1
 253.333007812 788.333007812 277.334960938 776.997070312 300.001953125 760.997070312 c 0
 322.668945312 744.997070312 341.168945312 725.830078125 355.501953125 703.497070312 c 0
 369.834960938 681.1640625 377.001953125 657.331054688 377.001953125 631.998046875 c 0
 377.001953125 609.331054688 371.668945312 586.831054688 361.001953125 564.498046875 c 0
 350.334960938 542.165039062 336.16796875 521.665039062 318.500976562 502.998046875 c 0
 300.833984375 484.331054688 281.000976562 469.331054688 259.000976562 457.998046875 c 0
 237.000976562 446.665039062 214.66796875 440.998046875 192.000976562 440.998046875 c 0
 162.66796875 440.998046875 138.16796875 448.331054688 118.500976562 462.998046875 c 0
 98.833984375 477.665039062 84.1669921875 496.498046875 74.5 519.498046875 c 0
 64.8330078125 542.498046875 60 565.665039062 60 588.998046875 c 0
 60 619.665039062 68.1669921875 647.83203125 84.5 673.499023438 c 0
 100.833007812 699.166015625 121.833007812 722.333007812 147.5 743 c 0
 173.166992188 763.666992188 200 781 228 795 c 1
703.001953125 776.997070312 m 1
 723.001953125 765.997070312 l 1
 724.001953125 752.997070312 l 1
 103.001953125 -1.0029296875 l 1
 75.001953125 16.9970703125 l 1
 76.001953125 30.9970703125 l 1
 692.001953125 776.997070312 l 1
 703.001953125 776.997070312 l 1
178.001953125 742.997070312 m 1
 155.334960938 730.330078125 139.8359375 712.997070312 131.502929688 690.997070312 c 0
 123.169921875 668.997070312 119.002929688 646.6640625 119.002929688 623.997070312 c 0
 119.002929688 603.330078125 123.502929688 582.330078125 132.502929688 560.997070312 c 0
 141.502929688 539.6640625 154.502929688 521.997070312 171.502929688 507.997070312 c 0
 188.502929688 493.997070312 209.3359375 486.997070312 234.002929688 486.997070312 c 0
 258.002929688 486.997070312 276.169921875 492.830078125 288.502929688 504.497070312 c 0
 300.8359375 516.1640625 309.168945312 530.497070312 313.501953125 547.497070312 c 0
 317.834960938 564.497070312 320.001953125 581.330078125 320.001953125 597.997070312 c 0
 320.001953125 621.997070312 314.001953125 644.6640625 302.001953125 665.997070312 c 0
 290.001953125 687.330078125 273.501953125 704.997070312 252.501953125 718.997070312 c 0
 231.501953125 732.997070312 206.668945312 740.997070312 178.001953125 742.997070312 c 1
624.002929688 341.997070312 m 1
 649.3359375 335.330078125 673.337890625 323.994140625 696.004882812 307.994140625 c 0
 718.671875 291.994140625 737.171875 272.827148438 751.504882812 250.494140625 c 0
 765.837890625 228.161132812 773.004882812 204.328125 773.004882812 178.995117188 c 0
 773.004882812 156.328125 767.671875 133.828125 757.004882812 111.495117188 c 0
 746.337890625 89.162109375 732.170898438 68.662109375 714.50390625 49.9951171875 c 0
 696.836914062 31.328125 677.00390625 16.328125 655.00390625 4.9951171875 c 0
 633.00390625 -6.337890625 610.670898438 -12.0048828125 588.00390625 -12.0048828125 c 0
 558.670898438 -12.0048828125 534.170898438 -4.671875 514.50390625 9.9951171875 c 0
 494.836914062 24.662109375 480.169921875 43.4951171875 470.502929688 66.4951171875 c 0
 460.8359375 89.4951171875 456.002929688 112.662109375 456.002929688 135.995117188 c 0
 456.002929688 166.662109375 464.169921875 194.829101562 480.502929688 220.49609375 c 0
 496.8359375 246.163085938 517.8359375 269.330078125 543.502929688 289.997070312 c 0
 569.169921875 310.6640625 596.002929688 327.997070312 624.002929688 341.997070312 c 1
574.004882812 289.994140625 m 1
 551.337890625 277.327148438 535.838867188 259.994140625 527.505859375 237.994140625 c 0
 519.172851562 215.994140625 515.005859375 193.661132812 515.005859375 170.994140625 c 0
 515.005859375 150.327148438 519.505859375 129.327148438 528.505859375 107.994140625 c 0
 537.505859375 86.6611328125 550.505859375 68.994140625 567.505859375 54.994140625 c 0
 584.505859375 40.994140625 605.338867188 33.994140625 630.005859375 33.994140625 c 0
 654.005859375 33.994140625 672.172851562 39.8271484375 684.505859375 51.494140625 c 0
 696.838867188 63.1611328125 705.171875 77.494140625 709.504882812 94.494140625 c 0
 713.837890625 111.494140625 716.004882812 128.327148438 716.004882812 144.994140625 c 0
 716.004882812 168.994140625 710.004882812 191.661132812 698.004882812 212.994140625 c 0
 686.004882812 234.327148438 669.504882812 251.994140625 648.504882812 265.994140625 c 0
 627.504882812 279.994140625 602.671875 287.994140625 574.004882812 289.994140625 c 1
EndSplineSet
Validated: 1
EndChar

StartChar: ampersand
Encoding: 38 38 7
Width: 738
GlyphClass: 1
Flags: W
LayerCount: 2
Fore
SplineSet
326 356 m 1
 327.998046875 398.999023438 l 1
 355.998046875 397.666015625 387.998046875 396.833007812 423.998046875 396.5 c 0
 459.998046875 396.166992188 494.665039062 396 527.998046875 396 c 2
 584.498046875 396 l 2
 604.831054688 396 623.998046875 396.333007812 641.998046875 397 c 0
 659.998046875 397.666992188 673.998046875 398.333984375 683.998046875 399.000976562 c 1
 680.998046875 351.000976562 l 1
 660.331054688 354.333984375 636.831054688 356.333984375 610.498046875 357.000976562 c 0
 584.165039062 357.66796875 558.665039062 358.000976562 533.998046875 358.000976562 c 1
 536.665039062 347.333984375 538.83203125 336.833984375 540.499023438 326.500976562 c 0
 542.166015625 316.16796875 542.999023438 305.66796875 542.999023438 295.000976562 c 0
 542.999023438 261.66796875 535.83203125 230.000976562 521.499023438 200.000976562 c 0
 507.166015625 170.000976562 489.666015625 141.66796875 468.999023438 115.000976562 c 1
 471.999023438 112.000976562 l 2
 485.33203125 98.0009765625 501.165039062 84.66796875 519.498046875 72.0009765625 c 0
 537.831054688 59.333984375 556.998046875 53.0009765625 576.998046875 53.0009765625 c 0
 600.998046875 53.0009765625 620.498046875 59.833984375 635.498046875 73.5009765625 c 0
 650.498046875 87.16796875 662.665039062 104.500976562 671.998046875 125.500976562 c 0
 681.331054688 146.500976562 688.331054688 167.66796875 692.998046875 189.000976562 c 1
 713.998046875 184.000976562 l 1
 709.998046875 162.000976562 703.998046875 139.500976562 695.998046875 116.500976562 c 0
 687.998046875 93.5009765625 677.498046875 72.333984375 664.498046875 53.0009765625 c 0
 651.498046875 33.66796875 635.331054688 18.16796875 615.998046875 6.5009765625 c 0
 596.665039062 -5.166015625 573.33203125 -10.9990234375 545.999023438 -10.9990234375 c 0
 521.33203125 -10.9990234375 497.83203125 -5.33203125 475.499023438 6.0009765625 c 0
 453.166015625 17.333984375 433.333007812 31.333984375 416 48.0009765625 c 2
 411 52.0009765625 l 1
 391 36.0009765625 367.833007812 22.0009765625 341.5 10.0009765625 c 0
 315.166992188 -1.9990234375 287.333984375 -7.9990234375 258.000976562 -7.9990234375 c 0
 228.000976562 -7.9990234375 198.000976562 -4.166015625 168.000976562 3.5009765625 c 0
 138.000976562 11.16796875 112.333984375 25.66796875 91.0009765625 47.0009765625 c 0
 71.66796875 66.333984375 56.5009765625 89.0009765625 45.5009765625 115.000976562 c 0
 34.5009765625 141.000976562 29.0009765625 167.66796875 29.0009765625 195.000976562 c 0
 29.0009765625 225.66796875 34.5009765625 251.834960938 45.5009765625 273.501953125 c 0
 56.5009765625 295.168945312 73.66796875 315.501953125 97.0009765625 334.501953125 c 0
 120.333984375 353.501953125 150.333984375 374.334960938 187.000976562 397.001953125 c 1
 179.000976562 416.334960938 172.66796875 436.501953125 168.000976562 457.501953125 c 0
 163.333984375 478.501953125 161.000976562 499.334960938 161.000976562 520.001953125 c 0
 161.000976562 550.668945312 167.500976562 579.501953125 180.500976562 606.501953125 c 0
 193.500976562 633.501953125 212.16796875 655.501953125 236.500976562 672.501953125 c 0
 260.833984375 689.501953125 290.000976562 698.001953125 324.000976562 698.001953125 c 0
 340.66796875 698.001953125 356.834960938 694.168945312 372.501953125 686.501953125 c 0
 388.168945312 678.834960938 401.001953125 668.16796875 411.001953125 654.500976562 c 0
 421.001953125 640.833984375 426.001953125 624.666992188 426.001953125 606 c 0
 426.001953125 584 422.334960938 563.833007812 415.001953125 545.5 c 0
 407.668945312 527.166992188 395.668945312 510.333984375 379.001953125 495.000976562 c 0
 369.001953125 485.66796875 355.501953125 475.334960938 338.501953125 464.001953125 c 0
 321.501953125 452.668945312 305.334960938 442.501953125 290.001953125 433.501953125 c 0
 274.668945312 424.501953125 264.001953125 418.668945312 258.001953125 416.001953125 c 1
 305.334960938 311.334960938 370.66796875 216.334960938 454.000976562 131.001953125 c 1
 467.333984375 150.334960938 477.000976562 171.66796875 483.000976562 195.000976562 c 0
 489.000976562 218.333984375 492.000976562 242.000976562 492.000976562 266.000976562 c 0
 492.000976562 281.333984375 488.66796875 295.666992188 482.000976562 309 c 0
 475.333984375 322.333007812 466.666992188 334.333007812 456 345 c 0
 448 353 438.666992188 357.666992188 428 359 c 0
 417.333007812 360.333007812 406.333007812 361 395 361 c 0
 383.666992188 361 372.166992188 360.5 360.5 359.5 c 0
 348.833007812 358.5 337.333007812 357.333007812 326 356 c 1
249.998046875 434.999023438 m 1
 277.998046875 452.33203125 299.498046875 467.999023438 314.498046875 481.999023438 c 0
 329.498046875 495.999023438 339.831054688 510.83203125 345.498046875 526.499023438 c 0
 351.165039062 542.166015625 353.998046875 560.666015625 353.998046875 581.999023438 c 0
 353.998046875 593.999023438 350.665039062 606.166015625 343.998046875 618.499023438 c 0
 337.331054688 630.83203125 328.831054688 641.33203125 318.498046875 649.999023438 c 0
 308.165039062 658.666015625 297.665039062 662.999023438 286.998046875 662.999023438 c 0
 266.998046875 662.999023438 252.498046875 657.499023438 243.498046875 646.499023438 c 0
 234.498046875 635.499023438 228.665039062 621.999023438 225.998046875 605.999023438 c 0
 223.331054688 589.999023438 221.998046875 574.33203125 221.998046875 558.999023438 c 0
 221.998046875 537.666015625 224.498046875 516.666015625 229.498046875 495.999023438 c 0
 234.498046875 475.33203125 241.331054688 454.999023438 249.998046875 434.999023438 c 1
395.998046875 67.9990234375 m 1
 355.998046875 112.666015625 318.498046875 161.500976562 283.498046875 214.500976562 c 0
 248.498046875 267.500976562 219.331054688 321.333984375 195.998046875 376.000976562 c 1
 161.998046875 353.333984375 138.665039062 329.166992188 125.998046875 303.5 c 0
 113.331054688 277.833007812 106.998046875 249.333007812 106.998046875 218 c 0
 106.998046875 187.333007812 113.998046875 157.666015625 127.998046875 128.999023438 c 0
 141.998046875 100.33203125 161.498046875 76.83203125 186.498046875 58.4990234375 c 0
 211.498046875 40.166015625 240.331054688 30.9990234375 272.998046875 30.9990234375 c 0
 324.331054688 30.9990234375 365.331054688 43.33203125 395.998046875 67.9990234375 c 1
EndSplineSet
Validated: 1
EndChar

StartChar: quotesingle
Encoding: 39 39 8
Width: 210
GlyphClass: 1
Flags: W
LayerCount: 2
Fore
SplineSet
110 436 m 1
 94 435.998046875 l 1
 76 628.998046875 l 2
 75.3330078125 634.998046875 74.8330078125 640.998046875 74.5 646.998046875 c 0
 74.1669921875 652.998046875 74 659.331054688 74 665.998046875 c 0
 74 675.331054688 77.6669921875 682.498046875 85 687.498046875 c 0
 92.3330078125 692.498046875 100.666015625 694.998046875 109.999023438 694.998046875 c 0
 120.666015625 694.998046875 128.333007812 691.831054688 133 685.498046875 c 0
 137.666992188 679.165039062 140 671.33203125 140 661.999023438 c 0
 140 656.666015625 139.666992188 650.333007812 139 643 c 0
 138.333007812 635.666992188 137.333007812 628.666992188 136 622 c 2
 110 436 l 1
EndSplineSet
Validated: 1
Substitution2: "'locl' Localized Forms in Latin lookup 98 subtable" quotesingle.locl
EndChar

StartChar: parenleft
Encoding: 40 40 9
Width: 257
GlyphClass: 1
Flags: W
LayerCount: 2
Fore
SplineSet
246 -163 m 1
 245.999023438 -187.001953125 l 1
 219.999023438 -185.001953125 197.166015625 -176.668945312 177.499023438 -162.001953125 c 0
 157.83203125 -147.334960938 141.33203125 -129.001953125 127.999023438 -107.001953125 c 0
 114.666015625 -85.001953125 103.666015625 -61.3349609375 94.9990234375 -36.001953125 c 0
 86.33203125 -10.6689453125 79.9990234375 13.998046875 75.9990234375 37.998046875 c 0
 69.33203125 77.998046875 64.6650390625 118.165039062 61.998046875 158.498046875 c 0
 59.3310546875 198.831054688 57.998046875 239.331054688 57.998046875 279.998046875 c 0
 57.998046875 318.665039062 59.498046875 357.33203125 62.498046875 395.999023438 c 0
 65.498046875 434.666015625 70.6650390625 472.666015625 77.998046875 509.999023438 c 0
 84.6650390625 541.999023438 94.498046875 574.499023438 107.498046875 607.499023438 c 0
 120.498046875 640.499023438 138.165039062 668.999023438 160.498046875 692.999023438 c 0
 182.831054688 716.999023438 211.331054688 731.999023438 245.998046875 737.999023438 c 1
 245.998046875 710.999023438 l 1
 220.665039062 704.33203125 199.665039062 689.999023438 182.998046875 667.999023438 c 0
 166.331054688 645.999023438 152.998046875 618.999023438 142.998046875 586.999023438 c 0
 132.998046875 554.999023438 125.665039062 520.499023438 120.998046875 483.499023438 c 0
 116.331054688 446.499023438 113.331054688 409.83203125 111.998046875 373.499023438 c 0
 110.665039062 337.166015625 109.998046875 303.999023438 109.998046875 273.999023438 c 0
 109.998046875 239.999023438 110.665039062 204.166015625 111.998046875 166.499023438 c 0
 113.331054688 128.83203125 116.331054688 91.4990234375 120.998046875 54.4990234375 c 0
 125.665039062 17.4990234375 132.83203125 -16.5009765625 142.499023438 -47.5009765625 c 0
 152.166015625 -78.5009765625 165.333007812 -104.16796875 182 -124.500976562 c 0
 198.666992188 -144.833984375 220 -157.666992188 246 -163 c 1
EndSplineSet
Validated: 1
Substitution2: "'locl' Localized Forms in Latin lookup 98 subtable" parenleft.locl
EndChar

StartChar: parenright
Encoding: 41 41 10
Width: 259
GlyphClass: 1
Flags: W
LayerCount: 2
Fore
SplineSet
11 709 m 1
 10.9990234375 736.001953125 l 1
 44.9990234375 729.334960938 73.33203125 714.334960938 95.9990234375 691.001953125 c 0
 118.666015625 667.668945312 136.999023438 639.168945312 150.999023438 605.501953125 c 0
 164.999023438 571.834960938 175.666015625 535.66796875 182.999023438 497.000976562 c 0
 190.33203125 458.333984375 195.165039062 419.500976562 197.498046875 380.500976562 c 0
 199.831054688 341.500976562 200.998046875 305.333984375 200.998046875 272.000976562 c 0
 200.998046875 238.000976562 199.998046875 201.16796875 197.998046875 161.500976562 c 0
 195.998046875 121.833984375 191.831054688 82.333984375 185.498046875 43.0009765625 c 0
 179.165039062 3.66796875 169.165039062 -32.6650390625 155.498046875 -65.998046875 c 0
 141.831054688 -99.3310546875 123.331054688 -126.998046875 99.998046875 -148.998046875 c 0
 76.6650390625 -170.998046875 46.998046875 -184.331054688 10.998046875 -188.998046875 c 1
 10.998046875 -164.998046875 l 1
 34.3310546875 -158.998046875 54.998046875 -148.665039062 72.998046875 -133.998046875 c 0
 90.998046875 -119.331054688 104.998046875 -96.998046875 114.998046875 -66.998046875 c 0
 132.998046875 -13.6650390625 143.165039062 42.66796875 145.498046875 102.000976562 c 0
 147.831054688 161.333984375 148.998046875 219.333984375 148.998046875 276.000976562 c 0
 148.998046875 315.333984375 147.665039062 354.666992188 144.998046875 394 c 0
 142.331054688 433.333007812 137.331054688 472.333007812 129.998046875 511 c 0
 125.331054688 536.333007812 118.831054688 562.333007812 110.498046875 589 c 0
 102.165039062 615.666992188 90.33203125 640 74.9990234375 662 c 0
 59.666015625 684 38.3330078125 699.666992188 11 709 c 1
EndSplineSet
Validated: 1
Substitution2: "'locl' Localized Forms in Latin lookup 98 subtable" parenright.locl
EndChar

StartChar: asterisk
Encoding: 42 42 11
Width: 301
GlyphClass: 1
Flags: W
LayerCount: 2
Fore
SplineSet
175 448 m 1
 134.999023438 448.002929688 l 1
 138.33203125 467.3359375 140.499023438 485.3359375 141.499023438 502.002929688 c 0
 142.499023438 518.669921875 143.33203125 537.669921875 143.999023438 559.002929688 c 1
 130.666015625 548.3359375 117.499023438 537.168945312 104.499023438 525.501953125 c 0
 91.4990234375 513.834960938 78.9990234375 501.001953125 66.9990234375 487.001953125 c 1
 45.9990234375 522.001953125 l 1
 63.33203125 530.668945312 78.9990234375 539.501953125 92.9990234375 548.501953125 c 0
 106.999023438 557.501953125 120.33203125 566.334960938 132.999023438 575.001953125 c 1
 118.33203125 585.668945312 104.165039062 595.168945312 90.498046875 603.501953125 c 0
 76.8310546875 611.834960938 62.6640625 619.66796875 47.9970703125 627.000976562 c 1
 74.9970703125 655.000976562 l 1
 86.330078125 644.333984375 97.330078125 634.166992188 107.997070312 624.5 c 0
 118.6640625 614.833007812 130.331054688 605.333007812 142.998046875 596 c 1
 142.998046875 612 142.665039062 627.833007812 141.998046875 643.5 c 0
 141.331054688 659.166992188 138.998046875 675.333984375 134.998046875 692.000976562 c 1
 174.998046875 692.000976562 l 1
 171.665039062 675.333984375 169.33203125 659.500976562 167.999023438 644.500976562 c 0
 166.666015625 629.500976562 165.333007812 613.66796875 164 597.000976562 c 1
 189.333007812 617.000976562 212 637.66796875 232 659.000976562 c 1
 257 628.000976562 l 1
 241 620.66796875 225.833007812 612.66796875 211.5 604.000976562 c 0
 197.166992188 595.333984375 183 586.000976562 169 576.000976562 c 1
 184.333007812 564.66796875 199.333007812 554.16796875 214 544.500976562 c 0
 228.666992188 534.833984375 243 526.666992188 257 520 c 1
 231 491 l 1
 213 511 190.666992188 531.333007812 164 552 c 1
 164.666992188 534.666992188 165.666992188 517.5 167 500.5 c 0
 168.333007812 483.5 171 466 175 448 c 1
EndSplineSet
Validated: 1
EndChar

StartChar: plus
Encoding: 43 43 12
Width: 747
GlyphClass: 1
Flags: W
LayerCount: 2
Fore
SplineSet
392 586 m 1
 392 276 l 1
 705 276 l 1
 700 236 l 1
 392 236 l 1
 392 -67 l 1
 352 -74 l 1
 352 236 l 1
 42 236 l 1
 49 276 l 1
 352 276 l 1
 352 580 l 1
 392 586 l 1
EndSplineSet
Validated: 1
EndChar

StartChar: comma
Encoding: 44 44 13
Width: 233
GlyphClass: 1
Flags: W
LayerCount: 2
Fore
SplineSet
77 -210 m 1
 58 -195.998046875 l 1
 75.3330078125 -172.665039062 90.666015625 -149.33203125 103.999023438 -125.999023438 c 0
 117.33203125 -102.666015625 123.999023438 -80.9990234375 123.999023438 -60.9990234375 c 0
 123.999023438 -53.666015625 122.999023438 -46.166015625 120.999023438 -38.4990234375 c 0
 118.999023438 -30.83203125 115.666015625 -24.33203125 110.999023438 -18.9990234375 c 2
 40.9990234375 64.0009765625 l 2
 36.33203125 70.0009765625 33.9990234375 78.66796875 33.9990234375 90.0009765625 c 0
 33.9990234375 103.333984375 40.666015625 114.666992188 53.9990234375 124 c 0
 67.33203125 133.333007812 80.33203125 138 92.9990234375 138 c 0
 106.33203125 138 118.33203125 131.166992188 128.999023438 117.5 c 0
 139.666015625 103.833007812 148.833007812 87.5 156.5 68.5 c 0
 164.166992188 49.5 170.166992188 31 174.5 13 c 0
 178.833007812 -5 181 -18.3330078125 181 -27 c 0
 181 -51.6669921875 172.5 -78 155.5 -106 c 0
 138.5 -134 112.333007812 -168.666992188 77 -210 c 1
EndSplineSet
Validated: 1
EndChar

StartChar: hyphen
Encoding: 45 45 14
Width: 353
GlyphClass: 1
Flags: W
LayerCount: 2
Fore
SplineSet
297 276 m 1
 291 236 l 1
 55 236 l 1
 62 276 l 1
 297 276 l 1
EndSplineSet
Validated: 1
EndChar

StartChar: period
Encoding: 46 46 15
Width: 272
GlyphClass: 1
Flags: W
LayerCount: 2
Fore
SplineSet
69 52 m 0
 69 70.6669921875 75.5 86.5 88.5 99.5 c 0
 101.5 112.5 117.333007812 119 136 119 c 0
 154.666992188 119 170.5 112.5 183.5 99.5 c 0
 196.5 86.5 203 70.6669921875 203 52 c 0
 203 33.3330078125 196.5 17.5 183.5 4.5 c 0
 170.5 -8.5 154.666992188 -15 136 -15 c 0
 117.333007812 -15 101.5 -8.5 88.5 4.5 c 0
 75.5 17.5 69 33.3330078125 69 52 c 0
EndSplineSet
Validated: 1
Substitution2: "'locl' Localized Forms in Latin lookup 98 subtable" period.locl
EndChar

StartChar: slash
Encoding: 47 47 16
Width: 390
GlyphClass: 1
Flags: W
LayerCount: 2
Fore
SplineSet
380 720 m 1
 402 715 l 1
 407 704 l 1
 18 -192 l 1
 -14 -184 l 1
 -17 -170 l 1
 369 718 l 1
 380 720 l 1
EndSplineSet
Validated: 1
EndChar

StartChar: zero
Encoding: 48 48 17
Width: 500
GlyphClass: 1
Flags: W
LayerCount: 2
Fore
SplineSet
290 704 m 1
 330.666992188 678.666992188 363.331054688 647.166992188 387.998046875 609.5 c 0
 412.665039062 571.833007812 430.83203125 531.333007812 442.499023438 488 c 0
 454.166015625 444.666992188 459.999023438 400.666992188 459.999023438 356 c 0
 459.999023438 316 455.33203125 274.5 445.999023438 231.5 c 0
 436.666015625 188.5 422.166015625 148.5 402.499023438 111.5 c 0
 382.83203125 74.5 356.83203125 44.3330078125 324.499023438 21 c 0
 292.166015625 -2.3330078125 252.999023438 -14 206.999023438 -14 c 0
 178.33203125 -14 153.83203125 -6.8330078125 133.499023438 7.5 c 0
 113.166015625 21.8330078125 96.4990234375 40.8330078125 83.4990234375 64.5 c 0
 70.4990234375 88.1669921875 60.33203125 114 52.9990234375 142 c 0
 45.666015625 170 40.666015625 198.166992188 37.9990234375 226.5 c 0
 35.33203125 254.833007812 33.9990234375 280.333007812 33.9990234375 303 c 0
 33.9990234375 363 44.9990234375 421.666992188 66.9990234375 479 c 0
 88.9990234375 536.333007812 121.33203125 586.333007812 163.999023438 629 c 0
 180.666015625 645.666992188 200.333007812 660.166992188 223 672.5 c 0
 245.666992188 684.833007812 268 695.333007812 290 704 c 1
233.997070312 640 m 1
 204.6640625 622 180.165039062 598.333984375 160.498046875 569.000976562 c 0
 140.831054688 539.66796875 125.998046875 507.834960938 115.998046875 473.501953125 c 0
 105.998046875 439.168945312 100.998046875 405.001953125 100.998046875 371.001953125 c 0
 100.998046875 342.334960938 102.498046875 313.334960938 105.498046875 284.001953125 c 0
 108.498046875 254.668945312 113.998046875 226.3359375 121.998046875 199.002929688 c 0
 128.665039062 176.3359375 138.165039062 153.668945312 150.498046875 131.001953125 c 0
 162.831054688 108.334960938 177.498046875 89.501953125 194.498046875 74.501953125 c 0
 211.498046875 59.501953125 230.665039062 52.001953125 251.998046875 52.001953125 c 0
 282.665039062 52.001953125 307.498046875 59.501953125 326.498046875 74.501953125 c 0
 345.498046875 89.501953125 360.165039062 108.834960938 370.498046875 132.501953125 c 0
 380.831054688 156.168945312 387.998046875 181.501953125 391.998046875 208.501953125 c 0
 395.998046875 235.501953125 397.998046875 261.001953125 397.998046875 285.001953125 c 0
 397.998046875 330.334960938 392.165039062 374.16796875 380.498046875 416.500976562 c 0
 368.831054688 458.833984375 351.998046875 499.666992188 329.998046875 539 c 0
 327.998046875 543 322.165039062 552 312.498046875 566 c 0
 302.831054688 580 291.1640625 594.333007812 277.497070312 609 c 0
 263.830078125 623.666992188 249.330078125 634 233.997070312 640 c 1
EndSplineSet
Validated: 1
Substitution2: "'dnom' Denominators in Latin lookup 96 subtable" zero.dnom
Substitution2: "'numr' Numerators in Latin lookup 95 subtable" zero.numr
EndChar

StartChar: one
Encoding: 49 49 18
Width: 500
GlyphClass: 1
Flags: W
LayerCount: 2
Fore
SplineSet
92 639 m 1
 308.000976562 712.001953125 l 1
 314.000976562 700.001953125 l 1
 311.333984375 655.334960938 309.500976562 610.66796875 308.500976562 566.000976562 c 0
 307.500976562 521.333984375 307.000976562 476.666992188 307.000976562 432 c 2
 307.000976562 321.5 l 2
 307.000976562 281.833007812 307.16796875 242.833007812 307.500976562 204.5 c 0
 307.833984375 166.166992188 308.166992188 131 308.5 99 c 0
 308.833007812 67 309.333007812 41.3330078125 310 22 c 1
 226 -5 l 1
 214 -0 l 1
 216.666992188 69.3330078125 218.666992188 139 220 209 c 0
 221.333007812 279 222 349 222 419 c 0
 222 456.333007812 222.333007812 489.5 223 518.5 c 0
 223.666992188 547.5 221 570.333007812 215 587 c 0
 209 603.666992188 195.666992188 612 175 612 c 2
 92 612 l 1
 92 639 l 1
EndSplineSet
Validated: 33
Substitution2: "'dnom' Denominators in Latin lookup 96 subtable" one.dnom
Substitution2: "'numr' Numerators in Latin lookup 95 subtable" one.numr
EndChar

StartChar: two
Encoding: 50 50 19
Width: 500
GlyphClass: 1
Flags: W
LayerCount: 2
Fore
SplineSet
467 88 m 1
 471.994140625 79.994140625 l 1
 448.994140625 1.994140625 l 1
 11.994140625 1.994140625 l 1
 11.994140625 17.994140625 l 1
 40.6611328125 47.3271484375 68.828125 76.8271484375 96.4951171875 106.494140625 c 0
 124.162109375 136.161132812 151.329101562 166.328125 177.99609375 196.995117188 c 0
 203.99609375 227.662109375 228.829101562 259.329101562 252.49609375 291.99609375 c 0
 276.163085938 324.663085938 295.663085938 358.99609375 310.99609375 394.99609375 c 0
 326.329101562 430.99609375 333.99609375 468.663085938 333.99609375 507.99609375 c 0
 333.99609375 525.329101562 330.49609375 544.329101562 323.49609375 564.99609375 c 0
 316.49609375 585.663085938 304.829101562 603.330078125 288.49609375 617.997070312 c 0
 272.163085938 632.6640625 249.663085938 639.997070312 220.99609375 639.997070312 c 0
 193.663085938 639.997070312 168.830078125 633.330078125 146.497070312 619.997070312 c 0
 124.1640625 606.6640625 103.331054688 591.997070312 83.998046875 575.997070312 c 1
 63.998046875 594.997070312 l 1
 91.3310546875 624.997070312 122.831054688 651.330078125 158.498046875 673.997070312 c 0
 194.165039062 696.6640625 232.998046875 707.997070312 274.998046875 707.997070312 c 0
 304.331054688 707.997070312 330.331054688 701.1640625 352.998046875 687.497070312 c 0
 375.665039062 673.830078125 393.498046875 655.330078125 406.498046875 631.997070312 c 0
 419.498046875 608.6640625 425.998046875 582.331054688 425.998046875 552.998046875 c 0
 425.998046875 526.331054688 421.331054688 500.831054688 411.998046875 476.498046875 c 0
 402.665039062 452.165039062 391.33203125 428.33203125 377.999023438 404.999023438 c 0
 348.666015625 351.666015625 313.333007812 299.666015625 272 248.999023438 c 0
 230.666992188 198.33203125 189 148.33203125 147 98.9990234375 c 0
 145.666992188 97.666015625 145 96.3330078125 145 95 c 0
 145 92.3330078125 146.5 90.5 149.5 89.5 c 0
 152.5 88.5 155.333007812 88 158 88 c 2
 467 88 l 1
EndSplineSet
Validated: 1
Substitution2: "'dnom' Denominators in Latin lookup 96 subtable" two.dnom
Substitution2: "'numr' Numerators in Latin lookup 95 subtable" two.numr
EndChar

StartChar: three
Encoding: 51 51 20
Width: 500
GlyphClass: 1
Flags: W
LayerCount: 2
Fore
SplineSet
241 382 m 1
 241 374 l 1
 304.333007812 368.666992188 354.333007812 353.333984375 391 328.000976562 c 0
 427.666992188 302.66796875 446 265.000976562 446 215.000976562 c 0
 446 181.000976562 438.5 149.833984375 423.5 121.500976562 c 0
 408.5 93.16796875 388.333007812 68.66796875 363 48.0009765625 c 0
 337.666992188 27.333984375 309.333984375 11.333984375 278.000976562 0.0009765625 c 0
 246.66796875 -11.33203125 214.334960938 -16.9990234375 181.001953125 -16.9990234375 c 0
 152.334960938 -16.9990234375 124.834960938 -12.166015625 98.501953125 -2.4990234375 c 0
 72.1689453125 7.16796875 47.6689453125 20.66796875 25.001953125 38.0009765625 c 1
 18.001953125 49.0009765625 l 1
 60.001953125 121.000976562 l 1
 70.001953125 121.000976562 l 1
 85.3349609375 95.66796875 104.16796875 73.0009765625 126.500976562 53.0009765625 c 0
 148.833984375 33.0009765625 175.333984375 23.0009765625 206.000976562 23.0009765625 c 0
 236.000976562 23.0009765625 262.000976562 30.66796875 284.000976562 46.0009765625 c 0
 306.000976562 61.333984375 322.833984375 81.333984375 334.500976562 106.000976562 c 0
 346.16796875 130.66796875 352.000976562 157.334960938 352.000976562 186.001953125 c 0
 352.000976562 207.334960938 347.500976562 227.834960938 338.500976562 247.501953125 c 0
 329.500976562 267.168945312 317.66796875 284.668945312 303.000976562 300.001953125 c 0
 290.333984375 314.001953125 273.833984375 324.168945312 253.500976562 330.501953125 c 0
 233.16796875 336.834960938 211.66796875 340.834960938 189.000976562 342.501953125 c 0
 166.333984375 344.168945312 145.000976562 345.001953125 125.000976562 345.001953125 c 1
 126.000976562 371.001953125 l 1
 186.66796875 385.001953125 233.66796875 405.501953125 267.000976562 432.501953125 c 0
 300.333984375 459.501953125 317.000976562 495.334960938 317.000976562 540.001953125 c 0
 317.000976562 571.334960938 306.333984375 595.66796875 285.000976562 613.000976562 c 0
 263.66796875 630.333984375 238.000976562 639.000976562 208.000976562 639.000976562 c 0
 188.66796875 639.000976562 168.16796875 633.16796875 146.500976562 621.500976562 c 0
 124.833984375 609.833984375 104.666992188 598.000976562 86 586.000976562 c 1
 72 608.000976562 l 1
 89.3330078125 622.66796875 108 637.16796875 128 651.500976562 c 0
 148 665.833984375 168.666992188 677.833984375 190 687.500976562 c 0
 211.333007812 697.16796875 232.333007812 702.000976562 253 702.000976562 c 0
 293.666992188 702.000976562 328.166992188 690.500976562 356.5 667.500976562 c 0
 384.833007812 644.500976562 399 611.333984375 399 568.000976562 c 0
 399 536.000976562 391.833007812 507.500976562 377.5 482.500976562 c 0
 363.166992188 457.500976562 344.166992188 436.66796875 320.5 420.000976562 c 0
 296.833007812 403.333984375 270.333007812 390.666992188 241 382 c 1
EndSplineSet
Validated: 1
Substitution2: "'dnom' Denominators in Latin lookup 96 subtable" three.dnom
Substitution2: "'numr' Numerators in Latin lookup 95 subtable" three.numr
EndChar

StartChar: four
Encoding: 52 52 21
Width: 500
GlyphClass: 1
Flags: W
LayerCount: 2
Fore
SplineSet
285 669 m 1
 360.999023438 704.000976562 l 1
 367.999023438 698.000976562 l 1
 367.999023438 692.66796875 367.83203125 678.66796875 367.499023438 656.000976562 c 0
 367.166015625 633.333984375 366.999023438 605.166992188 366.999023438 571.5 c 2
 366.999023438 463 l 1
 366.999023438 348 l 1
 366.999023438 244 l 1
 373.999023438 235 l 1
 467.999023438 235 l 1
 472.999023438 228 l 1
 456.999023438 191 l 1
 374.999023438 191 l 1
 366.999023438 183 l 1
 366.999023438 124 l 2
 366.999023438 102.666992188 367.33203125 83.1669921875 367.999023438 65.5 c 0
 368.666015625 47.8330078125 369.333007812 35.3330078125 370 28 c 1
 290 -5 l 1
 285 1 l 1
 287 13 288.333007812 29.1669921875 289 49.5 c 0
 289.666992188 69.8330078125 290 91.8330078125 290 115.5 c 2
 290 182 l 1
 283 191 l 1
 -1 191 l 1
 -1 235 l 1
 285 669 l 1
283.999023438 235.000976562 m 1
 289.998046875 243 l 1
 289.998046875 585 l 2
 289.998046875 590.333007812 288.331054688 593 284.998046875 593 c 0
 282.998046875 593 281.331054688 592.333007812 279.998046875 591 c 0
 263.331054688 571.666992188 247.331054688 550.833984375 231.998046875 528.500976562 c 0
 216.665039062 506.16796875 201.665039062 483.66796875 186.998046875 461.000976562 c 0
 177.665039062 446.333984375 166.165039062 427.833984375 152.498046875 405.500976562 c 0
 138.831054688 383.16796875 125.331054688 360.500976562 111.998046875 337.500976562 c 0
 98.6650390625 314.500976562 87.33203125 294.16796875 77.9990234375 276.500976562 c 0
 68.666015625 258.833984375 63.9990234375 247.333984375 63.9990234375 242.000976562 c 2
 68.9990234375 235.000976562 l 1
 283.999023438 235.000976562 l 1
EndSplineSet
Validated: 1
Substitution2: "'dnom' Denominators in Latin lookup 96 subtable" four.dnom
Substitution2: "'numr' Numerators in Latin lookup 95 subtable" four.numr
EndChar

StartChar: five
Encoding: 53 53 22
Width: 500
GlyphClass: 1
Flags: W
LayerCount: 2
Fore
SplineSet
125 594 m 2
 125.002929688 406.00390625 l 1
 145.669921875 416.00390625 167.169921875 424.670898438 189.502929688 432.00390625 c 0
 211.8359375 439.336914062 234.3359375 443.00390625 257.002929688 443.00390625 c 0
 296.3359375 443.00390625 330.168945312 434.836914062 358.501953125 418.50390625 c 0
 386.834960938 402.170898438 408.834960938 379.50390625 424.501953125 350.50390625 c 0
 440.168945312 321.50390625 448.001953125 288.336914062 448.001953125 251.00390625 c 0
 448.001953125 200.336914062 435.501953125 155.169921875 410.501953125 115.502929688 c 0
 385.501953125 75.8359375 352.668945312 44.8359375 312.001953125 22.5029296875 c 0
 271.334960938 0.169921875 226.66796875 -10.9970703125 178.000976562 -10.9970703125 c 0
 146.66796875 -10.9970703125 116.500976562 -4.6640625 87.5009765625 8.0029296875 c 0
 58.5009765625 20.669921875 33.66796875 39.3369140625 13.0009765625 64.00390625 c 1
 12.0009765625 76.00390625 l 1
 56.0009765625 132.00390625 l 1
 67.0009765625 132.00390625 l 1
 74.333984375 116.00390625 83.333984375 99.8369140625 94.0009765625 83.50390625 c 0
 104.66796875 67.1708984375 117.500976562 53.50390625 132.500976562 42.50390625 c 0
 147.500976562 31.50390625 165.333984375 26.00390625 186.000976562 26.00390625 c 0
 223.333984375 26.00390625 254.333984375 35.3369140625 279.000976562 54.00390625 c 0
 303.66796875 72.6708984375 322.000976562 97.00390625 334.000976562 127.00390625 c 0
 346.000976562 157.00390625 352.000976562 189.00390625 352.000976562 223.00390625 c 0
 352.000976562 250.336914062 347.500976562 277.169921875 338.500976562 303.502929688 c 0
 329.500976562 329.8359375 315.000976562 351.668945312 295.000976562 369.001953125 c 0
 275.000976562 386.334960938 247.66796875 395.001953125 213.000976562 395.001953125 c 0
 191.000976562 395.001953125 170.000976562 390.001953125 150.000976562 380.001953125 c 0
 130.000976562 370.001953125 112.000976562 357.334960938 96.0009765625 342.001953125 c 1
 83.0009765625 353.001953125 l 1
 83.0009765625 680.001953125 l 1
 90.0009765625 687.001953125 l 1
 425.000976562 687.001953125 l 1
 398.000976562 609.001953125 l 1
 369.333984375 608.334960938 337.666992188 607.66796875 303 607.000976562 c 0
 268.333007812 606.333984375 236 605.666992188 206 605 c 0
 176 604.333007812 153 604 137 604 c 0
 129 604 125 600.666992188 125 594 c 2
EndSplineSet
Validated: 1
Substitution2: "'dnom' Denominators in Latin lookup 96 subtable" five.dnom
Substitution2: "'numr' Numerators in Latin lookup 95 subtable" five.numr
EndChar

StartChar: six
Encoding: 54 54 23
Width: 500
GlyphClass: 1
Flags: W
LayerCount: 2
Fore
SplineSet
471 688 m 1
 451 634 l 1
 442 630 l 1
 424 637.333007812 404.666992188 641 384 641 c 0
 353.333007812 641 324.833007812 635 298.5 623 c 0
 272.166992188 611 248.666992188 595.333007812 228 576 c 0
 188.666992188 539.333007812 162.5 497.166015625 149.5 449.499023438 c 0
 136.5 401.83203125 129.666992188 353.999023438 129 305.999023438 c 1
 136 304.999023438 l 1
 162.666992188 326.33203125 191.5 343.665039062 222.5 356.998046875 c 0
 253.5 370.331054688 286.333007812 376.998046875 321 376.998046875 c 0
 351.666992188 376.998046875 378.166992188 368.998046875 400.5 352.998046875 c 0
 422.833007812 336.998046875 440.166015625 316.498046875 452.499023438 291.498046875 c 0
 464.83203125 266.498046875 470.999023438 239.665039062 470.999023438 210.998046875 c 0
 470.999023438 181.665039062 464.499023438 153.665039062 451.499023438 126.998046875 c 0
 438.499023438 100.331054688 420.83203125 76.498046875 398.499023438 55.498046875 c 0
 376.166015625 34.498046875 350.999023438 17.8310546875 322.999023438 5.498046875 c 0
 294.999023438 -6.8349609375 265.999023438 -13.001953125 235.999023438 -13.001953125 c 0
 200.666015625 -13.001953125 170.833007812 -5.3349609375 146.5 9.998046875 c 0
 122.166992188 25.3310546875 102.5 45.3310546875 87.5 69.998046875 c 0
 72.5 94.6650390625 61.6669921875 121.665039062 55 150.998046875 c 0
 48.3330078125 180.331054688 45 209.331054688 45 237.998046875 c 0
 45 300.665039062 56.1669921875 361.498046875 78.5 420.498046875 c 0
 100.833007812 479.498046875 134.333007812 531.331054688 179 575.998046875 c 0
 199.666992188 597.998046875 222.666992188 618.331054688 248 636.998046875 c 0
 273.333007812 655.665039062 300.333007812 670.83203125 329 682.499023438 c 0
 357.666992188 694.166015625 386.666992188 699.999023438 416 699.999023438 c 0
 423.333007812 699.999023438 432.5 698.83203125 443.5 696.499023438 c 0
 454.5 694.166015625 463.666992188 691.333007812 471 688 c 1
132 265 m 1
 132 242.333007812 133.830078125 217.663085938 137.497070312 190.99609375 c 0
 141.1640625 164.329101562 147.831054688 138.829101562 157.498046875 114.49609375 c 0
 167.165039062 90.1630859375 180.498046875 70.330078125 197.498046875 54.9970703125 c 0
 214.498046875 39.6640625 236.331054688 31.9970703125 262.998046875 31.9970703125 c 0
 305.665039062 31.9970703125 337.83203125 45.830078125 359.499023438 73.4970703125 c 0
 381.166015625 101.1640625 391.999023438 133.997070312 391.999023438 171.997070312 c 0
 391.999023438 196.6640625 386.166015625 219.831054688 374.499023438 241.498046875 c 0
 362.83203125 263.165039062 346.83203125 280.665039062 326.499023438 293.998046875 c 0
 306.166015625 307.331054688 282.666015625 313.998046875 255.999023438 313.998046875 c 0
 242.666015625 313.998046875 227.666015625 311.331054688 210.999023438 305.998046875 c 0
 194.33203125 300.665039062 178.83203125 294.33203125 164.499023438 286.999023438 c 0
 150.166015625 279.666015625 139.333007812 272.333007812 132 265 c 1
EndSplineSet
Validated: 1
Substitution2: "'dnom' Denominators in Latin lookup 96 subtable" six.dnom
Substitution2: "'numr' Numerators in Latin lookup 95 subtable" six.numr
EndChar

StartChar: seven
Encoding: 55 55 24
Width: 500
GlyphClass: 1
Flags: W
LayerCount: 2
Fore
SplineSet
494 686 m 1
 494 674 l 1
 340 422 l 2
 301.333007812 358 266.5 292 235.5 224 c 0
 204.5 156 181 85.3330078125 165 12 c 1
 81 -8 l 1
 75 0 l 1
 81 20.6669921875 90.3330078125 44.6669921875 103 72 c 0
 115.666992188 99.3330078125 129.833984375 128 145.500976562 158 c 0
 161.16796875 188 177.16796875 217.5 193.500976562 246.5 c 0
 209.833984375 275.5 224.666992188 301.333007812 238 324 c 2
 248.5 342 l 1
 276.5 390 l 1
 315 456 l 2
 329 480 343.166992188 504 357.5 528 c 0
 371.833007812 552 385.333007812 574 398 594 c 1
 392 606 l 1
 56 606 l 1
 49 615 l 1
 70 694 l 1
 74.6669921875 692.666992188 86.1669921875 691.5 104.5 690.5 c 0
 122.833007812 689.5 144 688.666992188 168 688 c 0
 192 687.333007812 214.833007812 686.833007812 236.5 686.5 c 0
 258.166992188 686.166992188 274.666992188 686 286 686 c 2
 494 686 l 1
EndSplineSet
Validated: 1
Substitution2: "'dnom' Denominators in Latin lookup 96 subtable" seven.dnom
Substitution2: "'numr' Numerators in Latin lookup 95 subtable" seven.numr
EndChar

StartChar: eight
Encoding: 56 56 25
Width: 500
GlyphClass: 1
Flags: W
LayerCount: 2
Fore
SplineSet
312 396 m 1
 312.000976562 385 l 1
 347.333984375 361 376.000976562 339.833007812 398.000976562 321.5 c 0
 420.000976562 303.166992188 436.000976562 284.5 446.000976562 265.5 c 0
 456.000976562 246.5 461.000976562 223.666992188 461.000976562 197 c 0
 461.000976562 165 454.16796875 136.166992188 440.500976562 110.5 c 0
 426.833984375 84.8330078125 408.333984375 63 385.000976562 45 c 0
 361.66796875 27 335.66796875 13.3330078125 307.000976562 4 c 0
 278.333984375 -5.3330078125 249.000976562 -10 219.000976562 -10 c 0
 195.000976562 -10 170.500976562 -6.8330078125 145.500976562 -0.5 c 0
 120.500976562 5.8330078125 99.333984375 17.666015625 82.0009765625 34.9990234375 c 0
 66.0009765625 50.9990234375 55.0009765625 69.666015625 49.0009765625 90.9990234375 c 0
 43.0009765625 112.33203125 40.0009765625 134.33203125 40.0009765625 156.999023438 c 0
 40.0009765625 188.33203125 46.0009765625 214.499023438 58.0009765625 235.499023438 c 0
 70.0009765625 256.499023438 87.833984375 275.999023438 111.500976562 293.999023438 c 0
 135.16796875 311.999023438 165.000976562 331.33203125 201.000976562 351.999023438 c 1
 201.000976562 362.999023438 l 1
 183.000976562 375.666015625 165.333984375 390.499023438 148.000976562 407.499023438 c 0
 130.66796875 424.499023438 116.500976562 443.33203125 105.500976562 463.999023438 c 0
 94.5009765625 484.666015625 89.0009765625 506.666015625 89.0009765625 529.999023438 c 0
 89.0009765625 562.666015625 97.16796875 589.999023438 113.500976562 611.999023438 c 0
 129.833984375 633.999023438 150.666992188 652.499023438 176 667.499023438 c 0
 201.333007812 682.499023438 227.333007812 695.33203125 254 705.999023438 c 1
 263 705.999023438 l 2
 314.333007812 705.999023438 355.833007812 693.33203125 387.5 667.999023438 c 0
 419.166992188 642.666015625 435 609.333007812 435 568 c 0
 435 544 429 521.166992188 417 499.5 c 0
 405 477.833007812 389.5 458.333007812 370.5 441 c 0
 351.5 423.666992188 332 408.666992188 312 396 c 1
279.000976562 412 m 1
 300.333984375 426.666992188 317.671875 445.499023438 331.004882812 468.499023438 c 0
 344.337890625 491.499023438 351.004882812 516.33203125 351.004882812 542.999023438 c 0
 351.004882812 559.666015625 346.171875 576.999023438 336.504882812 594.999023438 c 0
 326.837890625 612.999023438 312.670898438 628.166015625 294.00390625 640.499023438 c 0
 275.336914062 652.83203125 251.669921875 658.999023438 223.002929688 658.999023438 c 1
 200.3359375 644.33203125 185.168945312 629.33203125 177.501953125 613.999023438 c 0
 169.834960938 598.666015625 166.001953125 581.333007812 166.001953125 562 c 0
 166.001953125 542.666992188 171.668945312 523.833984375 183.001953125 505.500976562 c 0
 194.334960938 487.16796875 208.66796875 470.16796875 226.000976562 454.500976562 c 0
 243.333984375 438.833984375 261.000976562 424.666992188 279.000976562 412 c 1
238.005859375 333.999023438 m 1
 203.338867188 315.999023438 175.505859375 294.998046875 154.505859375 270.998046875 c 0
 133.505859375 246.998046875 123.005859375 215.665039062 123.005859375 176.998046875 c 0
 123.005859375 153.665039062 127.672851562 130.83203125 137.005859375 108.499023438 c 0
 146.338867188 86.166015625 160.171875 67.8330078125 178.504882812 53.5 c 0
 196.837890625 39.1669921875 219.004882812 32 245.004882812 32 c 0
 286.337890625 32 318.170898438 44.8330078125 340.50390625 70.5 c 0
 362.836914062 96.1669921875 374.00390625 128.666992188 374.00390625 168 c 0
 374.00390625 193.333007812 368.336914062 215.166015625 357.00390625 233.499023438 c 0
 345.670898438 251.83203125 329.837890625 268.83203125 309.504882812 284.499023438 c 0
 289.171875 300.166015625 265.338867188 316.666015625 238.005859375 333.999023438 c 1
EndSplineSet
Validated: 1
Substitution2: "'dnom' Denominators in Latin lookup 96 subtable" eight.dnom
Substitution2: "'numr' Numerators in Latin lookup 95 subtable" eight.numr
EndChar

StartChar: nine
Encoding: 57 57 26
Width: 500
GlyphClass: 1
Flags: W
LayerCount: 2
Fore
SplineSet
214 11 m 1
 128.998046875 -9 l 1
 118.998046875 -1 l 1
 128.998046875 22.3330078125 144.665039062 49 165.998046875 79 c 0
 187.331054688 109 209.331054688 138.333007812 231.998046875 167 c 2
 245.498046875 185 l 2
 254.498046875 197 265.498046875 212.166992188 278.498046875 230.5 c 0
 291.498046875 248.833007812 304.498046875 267.5 317.498046875 286.5 c 0
 330.498046875 305.5 340.998046875 322 348.998046875 336 c 1
 343.998046875 342 l 1
 319.331054688 329.333007812 294.6640625 319 269.997070312 311 c 0
 245.330078125 303 219.997070312 299 193.997070312 299 c 0
 171.330078125 299 147.997070312 306.166992188 123.997070312 320.5 c 0
 99.9970703125 334.833007812 79.9970703125 354.5 63.9970703125 379.5 c 0
 47.9970703125 404.5 39.9970703125 433 39.9970703125 465 c 0
 39.9970703125 491 42.830078125 515.166992188 48.4970703125 537.5 c 0
 54.1640625 559.833007812 64.3310546875 580 78.998046875 598 c 0
 88.998046875 610 103.998046875 622.666992188 123.998046875 636 c 0
 143.998046875 649.333007812 165.165039062 661.833007812 187.498046875 673.5 c 0
 209.831054688 685.166992188 229.331054688 694.666992188 245.998046875 702 c 1
 318.665039062 702 372.83203125 686.333007812 408.499023438 655 c 0
 444.166015625 623.666992188 461.999023438 581.333984375 461.999023438 528.000976562 c 0
 461.999023438 500.000976562 456.33203125 471.000976562 444.999023438 441.000976562 c 0
 433.666015625 411.000976562 419.333007812 381.500976562 402 352.500976562 c 0
 384.666992188 323.500976562 367.333984375 296.000976562 350.000976562 270.000976562 c 0
 332.000976562 244.000976562 313.333984375 216.16796875 294.000976562 186.500976562 c 0
 274.66796875 156.833984375 257.66796875 127.166992188 243.000976562 97.5 c 0
 228.333984375 67.8330078125 218.666992188 39 214 11 c 1
350.998046875 384 m 0
 363.665039062 396.666992188 371.999023438 411.831054688 375.999023438 429.498046875 c 0
 379.999023438 447.165039062 381.999023438 464.665039062 381.999023438 481.998046875 c 0
 381.999023438 509.998046875 375.999023438 536.331054688 363.999023438 560.998046875 c 0
 351.999023438 585.665039062 333.83203125 605.665039062 309.499023438 620.998046875 c 0
 285.166015625 636.331054688 254.999023438 643.998046875 218.999023438 643.998046875 c 0
 200.33203125 643.998046875 184.165039062 636.831054688 170.498046875 622.498046875 c 0
 156.831054688 608.165039062 146.498046875 590.998046875 139.498046875 570.998046875 c 0
 132.498046875 550.998046875 128.998046875 532.331054688 128.998046875 514.998046875 c 0
 128.998046875 489.665039062 133.998046875 464.33203125 143.998046875 438.999023438 c 0
 153.998046875 413.666015625 168.665039062 392.833007812 187.998046875 376.5 c 0
 207.331054688 360.166992188 230.998046875 352 258.998046875 352 c 0
 275.665039062 352 292.165039062 354.333007812 308.498046875 359 c 0
 324.831054688 363.666992188 338.998046875 372 350.998046875 384 c 0
EndSplineSet
Validated: 1
Substitution2: "'dnom' Denominators in Latin lookup 96 subtable" nine.dnom
Substitution2: "'numr' Numerators in Latin lookup 95 subtable" nine.numr
EndChar

StartChar: colon
Encoding: 58 58 27
Width: 184
GlyphClass: 1
Flags: W
LayerCount: 2
Fore
SplineSet
35 398 m 0
 35 413.333007812 40.6669921875 426.666015625 52 437.999023438 c 0
 63.3330078125 449.33203125 77 454.999023438 93 454.999023438 c 0
 108.333007812 454.999023438 121.5 449.33203125 132.5 437.999023438 c 0
 143.5 426.666015625 149 413.333007812 149 398 c 0
 149 382.666992188 143.5 369.333984375 132.5 358.000976562 c 0
 121.5 346.66796875 108.333007812 341.000976562 93 341.000976562 c 0
 77 341.000976562 63.3330078125 346.66796875 52 358.000976562 c 0
 40.6669921875 369.333984375 35 382.666992188 35 398 c 0
35 45 m 0
 35 60.3330078125 40.6669921875 73.666015625 52 84.9990234375 c 0
 63.3330078125 96.33203125 77 101.999023438 93 101.999023438 c 0
 108.333007812 101.999023438 121.5 96.33203125 132.5 84.9990234375 c 0
 143.5 73.666015625 149 60.3330078125 149 45 c 0
 149 29.6669921875 143.5 16.333984375 132.5 5.0009765625 c 0
 121.5 -6.33203125 108.333007812 -11.9990234375 93 -11.9990234375 c 0
 77 -11.9990234375 63.3330078125 -6.33203125 52 5.0009765625 c 0
 40.6669921875 16.333984375 35 29.6669921875 35 45 c 0
EndSplineSet
Validated: 1
Substitution2: "'locl' Localized Forms in Latin lookup 98 subtable" colon.locl
EndChar

StartChar: semicolon
Encoding: 59 59 28
Width: 193
GlyphClass: 1
Flags: W
LayerCount: 2
Fore
SplineSet
29 400 m 0
 29 415.333007812 34.6669921875 428.666015625 46 439.999023438 c 0
 57.3330078125 451.33203125 71 456.999023438 87 456.999023438 c 0
 102.333007812 456.999023438 115.5 451.33203125 126.5 439.999023438 c 0
 137.5 428.666015625 143 415.333007812 143 400 c 0
 143 384.666992188 137.5 371.333984375 126.5 360.000976562 c 0
 115.5 348.66796875 102.333007812 343.000976562 87 343.000976562 c 0
 71 343.000976562 57.3330078125 348.66796875 46 360.000976562 c 0
 34.6669921875 371.333984375 29 384.666992188 29 400 c 0
70 -190 m 1
 55.0009765625 -177.000976562 l 1
 67.0009765625 -161.000976562 77.833984375 -142.66796875 87.5009765625 -122.000976562 c 0
 97.16796875 -101.333984375 102.000976562 -82.0009765625 102.000976562 -64.0009765625 c 0
 102.000976562 -56.66796875 100.66796875 -50.0009765625 98.0009765625 -44.0009765625 c 0
 95.333984375 -38.0009765625 92.333984375 -32.0009765625 89.0009765625 -26.0009765625 c 2
 55.0009765625 24.9990234375 l 2
 52.333984375 28.9990234375 50.1669921875 33.166015625 48.5 37.4990234375 c 0
 46.8330078125 41.83203125 46 46.33203125 46 50.9990234375 c 0
 46 56.9990234375 46.5 63.33203125 47.5 69.9990234375 c 0
 48.5 76.666015625 51 81.9990234375 55 85.9990234375 c 2
 57 87.9990234375 l 2
 66.3330078125 95.33203125 77 98.9990234375 89 98.9990234375 c 0
 97.6669921875 98.9990234375 106.166992188 94.666015625 114.5 85.9990234375 c 0
 122.833007812 77.33203125 130.5 66.33203125 137.5 52.9990234375 c 0
 144.5 39.666015625 150 26.3330078125 154 13 c 0
 158 -0.3330078125 160 -12 160 -22 c 0
 160 -42 155.333007812 -61.8330078125 146 -81.5 c 0
 136.666992188 -101.166992188 125 -120 111 -138 c 0
 97 -156 83.3330078125 -173.333007812 70 -190 c 1
EndSplineSet
Validated: 1
EndChar

StartChar: less
Encoding: 60 60 29
Width: 710
GlyphClass: 1
Flags: W
LayerCount: 2
Fore
SplineSet
653 528 m 1
 662 505 l 1
 660 496 l 1
 138 255 l 1
 138 243 l 1
 657 2 l 1
 662 -8 l 1
 651 -31 l 1
 641 -36 l 1
 41 244 l 1
 41 256 l 1
 642 531 l 1
 653 528 l 1
EndSplineSet
Validated: 1
EndChar

StartChar: equal
Encoding: 61 61 30
Width: 823
GlyphClass: 1
Flags: W
LayerCount: 2
Fore
SplineSet
745 369 m 1
 739 329 l 1
 77 329 l 1
 84 369 l 1
 745 369 l 1
745 172 m 1
 739 132 l 1
 77 132 l 1
 84 172 l 1
 745 172 l 1
EndSplineSet
Validated: 1
EndChar

StartChar: greater
Encoding: 62 62 31
Width: 711
GlyphClass: 1
Flags: W
LayerCount: 2
Fore
SplineSet
574 254 m 1
 50 494 l 1
 48 504 l 1
 58 528 l 1
 68 531 l 1
 670 256 l 1
 670 244 l 1
 70 -36 l 1
 60 -31 l 1
 52 -7 l 1
 56 2 l 1
 574 245 l 1
 574 254 l 1
EndSplineSet
Validated: 1
EndChar

StartChar: question
Encoding: 63 63 32
Width: 353
GlyphClass: 1
Flags: W
LayerCount: 2
Fore
SplineSet
162 222 m 1
 162.000976562 210.998046875 l 1
 116.000976562 178.998046875 l 1
 104.66796875 186.331054688 94.8349609375 196.331054688 86.501953125 208.998046875 c 0
 78.1689453125 221.665039062 74.001953125 235.33203125 74.001953125 249.999023438 c 0
 74.001953125 259.999023438 76.6689453125 269.666015625 82.001953125 278.999023438 c 0
 87.3349609375 288.33203125 93.3349609375 296.999023438 100.001953125 304.999023438 c 0
 116.001953125 325.666015625 133.334960938 344.666015625 152.001953125 361.999023438 c 0
 170.668945312 379.33203125 188.501953125 396.665039062 205.501953125 413.998046875 c 0
 222.501953125 431.331054688 236.334960938 450.498046875 247.001953125 471.498046875 c 0
 257.668945312 492.498046875 263.001953125 516.998046875 263.001953125 544.998046875 c 0
 263.001953125 562.998046875 258.334960938 580.998046875 249.001953125 598.998046875 c 0
 239.668945312 616.998046875 227.501953125 631.831054688 212.501953125 643.498046875 c 0
 197.501953125 655.165039062 181.668945312 660.998046875 165.001953125 660.998046875 c 0
 145.668945312 660.998046875 127.3359375 654.665039062 110.002929688 641.998046875 c 0
 92.669921875 629.331054688 84.0029296875 611.6640625 84.0029296875 588.997070312 c 0
 84.0029296875 576.997070312 87.0029296875 565.6640625 93.0029296875 554.997070312 c 0
 99.0029296875 544.330078125 106.669921875 535.330078125 116.002929688 527.997070312 c 1
 49.0029296875 487.997070312 l 1
 40.3359375 495.997070312 33.5029296875 506.330078125 28.5029296875 518.997070312 c 0
 23.5029296875 531.6640625 21.0029296875 544.331054688 21.0029296875 556.998046875 c 0
 21.0029296875 577.665039062 26.8359375 596.33203125 38.5029296875 612.999023438 c 0
 50.169921875 629.666015625 65.169921875 643.999023438 83.5029296875 655.999023438 c 0
 101.8359375 667.999023438 121.668945312 677.166015625 143.001953125 683.499023438 c 0
 164.334960938 689.83203125 185.001953125 692.999023438 205.001953125 692.999023438 c 0
 243.001953125 692.999023438 274.001953125 681.33203125 298.001953125 657.999023438 c 0
 322.001953125 634.666015625 334.001953125 603.666015625 334.001953125 564.999023438 c 0
 334.001953125 548.33203125 331.168945312 532.999023438 325.501953125 518.999023438 c 0
 319.834960938 504.999023438 312.66796875 490.666015625 304.000976562 475.999023438 c 0
 292.000976562 455.999023438 276.66796875 437.166015625 258.000976562 419.499023438 c 0
 239.333984375 401.83203125 220.666992188 384.83203125 202 368.499023438 c 0
 183.333007812 352.166015625 167.5 336.166015625 154.5 320.499023438 c 0
 141.5 304.83203125 135 289.33203125 135 273.999023438 c 0
 135 252.666015625 144 235.333007812 162 222 c 1
82.0009765625 45.998046875 m 0
 82.0009765625 61.3310546875 87.5009765625 74.6640625 98.5009765625 85.9970703125 c 0
 109.500976562 97.330078125 122.66796875 102.997070312 138.000976562 102.997070312 c 0
 154.000976562 102.997070312 167.66796875 97.330078125 179.000976562 85.9970703125 c 0
 190.333984375 74.6640625 196.000976562 61.3310546875 196.000976562 45.998046875 c 0
 196.000976562 30.6650390625 190.333984375 17.33203125 179.000976562 5.9990234375 c 0
 167.66796875 -5.333984375 154.000976562 -11.0009765625 138.000976562 -11.0009765625 c 0
 122.66796875 -11.0009765625 109.500976562 -5.333984375 98.5009765625 5.9990234375 c 0
 87.5009765625 17.33203125 82.0009765625 30.6650390625 82.0009765625 45.998046875 c 0
EndSplineSet
Validated: 1
EndChar

StartChar: at
Encoding: 64 64 33
Width: 728
GlyphClass: 1
Flags: W
LayerCount: 2
Fore
SplineSet
472 371 m 1
 513.999023438 392.9921875 l 1
 517.999023438 388.9921875 l 1
 515.999023438 362.9921875 514.83203125 336.9921875 514.499023438 310.9921875 c 0
 514.166015625 284.9921875 513.999023438 258.9921875 513.999023438 232.9921875 c 0
 513.999023438 219.659179688 514.166015625 205.9921875 514.499023438 191.9921875 c 0
 514.83203125 177.9921875 514.999023438 164.325195312 514.999023438 150.9921875 c 0
 514.999023438 142.325195312 516.499023438 132.4921875 519.499023438 121.4921875 c 0
 522.499023438 110.4921875 530.666015625 104.9921875 543.999023438 104.9921875 c 0
 565.33203125 104.9921875 582.33203125 113.159179688 594.999023438 129.4921875 c 0
 607.666015625 145.825195312 616.999023438 165.325195312 622.999023438 187.9921875 c 0
 628.999023438 210.659179688 632.666015625 230.9921875 633.999023438 248.9921875 c 0
 637.33203125 293.659179688 630.665039062 333.659179688 613.998046875 368.9921875 c 0
 597.331054688 404.325195312 573.6640625 433.825195312 542.997070312 457.4921875 c 0
 512.330078125 481.159179688 477.330078125 497.659179688 437.997070312 506.9921875 c 0
 398.6640625 516.325195312 357.997070312 516.9921875 315.997070312 508.9921875 c 0
 289.330078125 504.325195312 263.830078125 495.825195312 239.497070312 483.4921875 c 0
 215.1640625 471.159179688 192.331054688 456.326171875 170.998046875 438.993164062 c 1
 148.331054688 411.66015625 130.998046875 380.327148438 118.998046875 344.994140625 c 0
 106.998046875 309.661132812 100.831054688 273.328125 100.498046875 235.995117188 c 0
 100.165039062 198.662109375 105.83203125 162.495117188 117.499023438 127.495117188 c 0
 129.166015625 92.4951171875 147.333007812 61.9951171875 172 35.9951171875 c 0
 193.333007812 16.662109375 218.166015625 0.4951171875 246.499023438 -12.5048828125 c 0
 274.83203125 -25.5048828125 305.665039062 -33.337890625 338.998046875 -36.0048828125 c 1
 352.998046875 -51.0048828125 l 1
 309.998046875 -93.0048828125 l 1
 275.331054688 -90.337890625 243.1640625 -81.6708984375 213.497070312 -67.00390625 c 0
 183.830078125 -52.3369140625 157.497070312 -34.00390625 134.497070312 -12.00390625 c 0
 111.497070312 9.99609375 92.6640625 33.6630859375 77.9970703125 58.99609375 c 0
 59.330078125 91.6630859375 47.4970703125 126.330078125 42.4970703125 162.997070312 c 0
 37.4970703125 199.6640625 38.830078125 235.831054688 46.4970703125 271.498046875 c 0
 54.1640625 307.165039062 67.3310546875 340.33203125 85.998046875 370.999023438 c 0
 103.331054688 399.666015625 125.331054688 427.499023438 151.998046875 454.499023438 c 0
 178.665039062 481.499023438 208.498046875 504.999023438 241.498046875 524.999023438 c 0
 274.498046875 544.999023438 308.998046875 558.33203125 344.998046875 564.999023438 c 0
 388.998046875 573.666015625 432.165039062 572.333007812 474.498046875 561 c 0
 516.831054688 549.666992188 554.998046875 530.5 588.998046875 503.5 c 0
 622.998046875 476.5 649.331054688 443.5 667.998046875 404.5 c 0
 686.665039062 365.5 694.33203125 323 690.999023438 277 c 0
 688.33203125 245.666992188 680.665039062 216.833984375 667.998046875 190.500976562 c 0
 655.331054688 164.16796875 639.331054688 141.334960938 619.998046875 122.001953125 c 0
 611.998046875 113.334960938 600.831054688 104.16796875 586.498046875 94.5009765625 c 0
 572.165039062 84.833984375 557.165039062 76.833984375 541.498046875 70.5009765625 c 0
 525.831054688 64.16796875 512.331054688 61.0009765625 500.998046875 61.0009765625 c 0
 486.331054688 61.0009765625 475.831054688 64.833984375 469.498046875 72.5009765625 c 0
 463.165039062 80.16796875 458.998046875 90.0009765625 456.998046875 102.000976562 c 1
 444.998046875 105.000976562 l 1
 425.665039062 94.333984375 405.165039062 84.333984375 383.498046875 75.0009765625 c 0
 361.831054688 65.66796875 339.331054688 61.0009765625 315.998046875 61.0009765625 c 0
 286.665039062 61.0009765625 263.498046875 68.0009765625 246.498046875 82.0009765625 c 0
 229.498046875 96.0009765625 217.331054688 113.66796875 209.998046875 135.000976562 c 0
 202.665039062 156.333984375 198.998046875 177.666992188 198.998046875 199 c 0
 198.998046875 232.333007812 205.498046875 263.833007812 218.498046875 293.5 c 0
 231.498046875 323.166992188 251.831054688 347.5 279.498046875 366.5 c 0
 307.165039062 385.5 342.998046875 395 386.998046875 395 c 0
 399.665039062 395 413.83203125 393 429.499023438 389 c 0
 445.166015625 385 459.333007812 379 472 371 c 1
454.999023438 137.9921875 m 1
 455 298.993164062 l 2
 455 308.326171875 454.5 317.326171875 453.5 325.993164062 c 0
 452.5 334.66015625 448.666992188 341.993164062 442 347.993164062 c 0
 435.333007812 354.66015625 427.333007812 360.16015625 418 364.493164062 c 0
 408.666992188 368.826171875 399 370.993164062 389 370.993164062 c 0
 359.666992188 370.993164062 334.333984375 361.993164062 313.000976562 343.993164062 c 0
 304.333984375 336.66015625 295.166992188 322.993164062 285.5 302.993164062 c 0
 275.833007812 282.993164062 270.666015625 255.326171875 269.999023438 219.993164062 c 0
 269.33203125 205.326171875 270.83203125 190.659179688 274.499023438 175.9921875 c 0
 278.166015625 161.325195312 284.333007812 147.9921875 293 135.9921875 c 0
 301.666992188 124.659179688 313.166992188 116.9921875 327.5 112.9921875 c 0
 341.833007812 108.9921875 356.333007812 106.9921875 371 106.9921875 c 0
 387 106.9921875 402.166992188 110.325195312 416.5 116.9921875 c 0
 430.833007812 123.659179688 443.666015625 130.659179688 454.999023438 137.9921875 c 1
EndSplineSet
Validated: 33
EndChar

StartChar: A
Encoding: 65 65 34
Width: 722
GlyphClass: 2
Flags: W
AnchorPoint: "Anchor-10" 331 0 basechar 0
AnchorPoint: "Anchor-9" 352 680 basechar 0
LayerCount: 2
Fore
SplineSet
572 -10 m 0
 555.333007812 -10 543.00390625 -1.1669921875 535.00390625 16.5 c 0
 527.00390625 34.1669921875 520.00390625 54 514.00390625 76 c 2
 460.00390625 264 l 2
 457.336914062 270 453.669921875 273 449.002929688 273 c 2
 224.002929688 273 l 2
 220.002929688 273 216.669921875 270.333007812 214.002929688 265 c 2
 97.0029296875 17 l 1
 6.0029296875 -2 l 1
 3.0029296875 8 l 1
 62.3359375 108 120.502929688 209 177.502929688 311 c 0
 234.502929688 413 289.3359375 516 342.002929688 620 c 0
 342.669921875 622 343.002929688 624.333007812 343.002929688 627 c 0
 343.002929688 628.333007812 342.169921875 630.333007812 340.502929688 633 c 0
 338.8359375 635.666992188 335.668945312 637.333984375 331.001953125 638.000976562 c 2
 241.001953125 653.000976562 l 1
 241.001953125 680.000976562 l 1
 435.001953125 680.000976562 l 1
 440.334960938 652.66796875 448.16796875 618.16796875 458.500976562 576.500976562 c 0
 468.833984375 534.833984375 480.333984375 491.166992188 493.000976562 445.5 c 0
 505.66796875 399.833007812 517.334960938 357 528.001953125 317 c 0
 539.334960938 276.333007812 551.834960938 234 565.501953125 190 c 0
 579.168945312 146 595.001953125 109 613.001953125 79 c 0
 619.668945312 68.3330078125 628.668945312 60.666015625 640.001953125 55.9990234375 c 0
 651.334960938 51.33203125 663.66796875 48.9990234375 677.000976562 48.9990234375 c 0
 684.333984375 48.9990234375 691.666992188 49.33203125 699 49.9990234375 c 0
 706.333007812 50.666015625 713.333007812 51.3330078125 720 52 c 1
 721 26 l 1
 617 -4 l 2
 602.333007812 -8 587.333007812 -10 572 -10 c 0
366.00390625 576 m 0
 362.00390625 576 360.002929688 574.666015625 360.002929688 571.999023438 c 2
 244.002929688 327.999023438 l 2
 243.3359375 327.33203125 243.002929688 325.83203125 243.002929688 323.499023438 c 2
 243.002929688 318.999023438 l 2
 243.002929688 314.33203125 245.3359375 311.999023438 250.002929688 311.999023438 c 2
 438.002929688 311.999023438 l 2
 442.669921875 311.999023438 445.002929688 314.33203125 445.002929688 318.999023438 c 2
 444.002929688 322.999023438 l 2
 443.3359375 325.666015625 443.002929688 327.333007812 443.002929688 328 c 2
 373.002929688 572 l 2
 371.669921875 574.666992188 369.336914062 576 366.00390625 576 c 0
EndSplineSet
Validated: 1
EndChar

StartChar: B
Encoding: 66 66 35
Width: 559
GlyphClass: 1
Flags: W
LayerCount: 2
Fore
SplineSet
335 378 m 1
 334.000976562 370.00390625 l 1
 407.333984375 360.670898438 458.000976562 342.50390625 486.000976562 315.50390625 c 0
 514.000976562 288.50390625 528.000976562 250.336914062 528.000976562 201.00390625 c 0
 528.000976562 162.336914062 520.000976562 130.00390625 504.000976562 104.00390625 c 0
 488.000976562 78.00390625 467.000976562 57.3369140625 441.000976562 42.00390625 c 0
 415.000976562 26.6708984375 386.333984375 15.6708984375 355.000976562 9.00390625 c 0
 323.66796875 2.3369140625 293.000976562 -0.99609375 263.000976562 -0.99609375 c 0
 246.333984375 -0.99609375 226.833984375 -0.8291015625 204.500976562 -0.49609375 c 0
 182.16796875 -0.1630859375 160.500976562 0.00390625 139.500976562 0.00390625 c 0
 118.500976562 0.00390625 100.833984375 0.1708984375 86.5009765625 0.50390625 c 2
 65.0009765625 1.00390625 l 1
 64.0009765625 11.00390625 l 1
 70.66796875 21.00390625 75.66796875 27.50390625 79.0009765625 30.50390625 c 0
 82.333984375 33.50390625 84.5009765625 38.00390625 85.5009765625 44.00390625 c 0
 86.5009765625 50.00390625 87.0009765625 62.3369140625 87.0009765625 81.00390625 c 2
 87.0009765625 611.00390625 l 2
 87.0009765625 622.336914062 82.66796875 631.169921875 74.0009765625 637.502929688 c 0
 65.333984375 643.8359375 54.6669921875 648.668945312 42 652.001953125 c 2
 4 662.001953125 l 1
 5 679.001953125 l 1
 12 686.001953125 l 1
 259 686.001953125 l 2
 287 686.001953125 314.666992188 684.168945312 342 680.501953125 c 0
 369.333007812 676.834960938 394 670.16796875 416 660.500976562 c 0
 438 650.833984375 455.5 637.333984375 468.5 620.000976562 c 0
 481.5 602.66796875 488 580.334960938 488 553.001953125 c 0
 488 520.334960938 480.833007812 493.16796875 466.5 471.500976562 c 0
 452.166992188 449.833984375 433.5 431.666992188 410.5 417 c 0
 387.5 402.333007812 362.333007812 389.333007812 335 378 c 1
169.000976562 629.00390625 m 2
 169.001953125 391.000976562 l 2
 170.334960938 386.333984375 173.834960938 383.500976562 179.501953125 382.500976562 c 0
 185.168945312 381.500976562 193.001953125 381.000976562 203.001953125 381.000976562 c 0
 238.334960938 381.000976562 271.16796875 386.500976562 301.500976562 397.500976562 c 0
 331.833984375 408.500976562 356.333984375 426.000976562 375.000976562 450.000976562 c 0
 393.66796875 474.000976562 403.000976562 505.66796875 403.000976562 545.000976562 c 0
 403.000976562 573.000976562 395.500976562 594.333984375 380.500976562 609.000976562 c 0
 365.500976562 623.66796875 345.833984375 633.834960938 321.500976562 639.501953125 c 0
 297.16796875 645.168945312 270.66796875 648.001953125 242.000976562 648.001953125 c 0
 234.66796875 648.001953125 225.500976562 647.834960938 214.500976562 647.501953125 c 0
 203.500976562 647.168945312 193.66796875 645.8359375 185.000976562 643.502929688 c 0
 176.333984375 641.169921875 171.000976562 636.336914062 169.000976562 629.00390625 c 2
169.001953125 338.000976562 m 2
 169.001953125 66 l 2
 169.001953125 54.6669921875 173.168945312 47.333984375 181.501953125 44.0009765625 c 0
 189.834960938 40.66796875 210.66796875 39.0009765625 244.000976562 39.0009765625 c 0
 278.000976562 39.0009765625 309.66796875 45.0009765625 339.000976562 57.0009765625 c 0
 368.333984375 69.0009765625 392.000976562 87.5009765625 410.000976562 112.500976562 c 0
 428.000976562 137.500976562 437.000976562 169.333984375 437.000976562 208.000976562 c 0
 437.000976562 238.000976562 431.000976562 262.000976562 419.000976562 280.000976562 c 0
 407.000976562 298.000976562 391.16796875 311.833984375 371.500976562 321.500976562 c 0
 351.833984375 331.16796875 329.833984375 337.66796875 305.500976562 341.000976562 c 0
 281.16796875 344.333984375 256.334960938 346.000976562 231.001953125 346.000976562 c 2
 188.501953125 346.000976562 l 2
 178.168945312 346.000976562 171.668945312 343.333984375 169.001953125 338.000976562 c 2
EndSplineSet
Validated: 1
EndChar

StartChar: C
Encoding: 67 67 36
Width: 633
GlyphClass: 2
Flags: W
AnchorPoint: "Anchor-10" 357 0 basechar 0
AnchorPoint: "Anchor-9" 317 683 basechar 0
LayerCount: 2
Fore
SplineSet
624 586 m 1
 566.999023438 527.999023438 l 1
 552.999023438 528.999023438 l 1
 536.33203125 574.33203125 512.665039062 607.165039062 481.998046875 627.498046875 c 0
 451.331054688 647.831054688 415.331054688 657.998046875 373.998046875 657.998046875 c 0
 328.665039062 657.998046875 290.33203125 648.998046875 258.999023438 630.998046875 c 0
 227.666015625 612.998046875 202.333007812 588.665039062 183 557.998046875 c 0
 163.666992188 527.331054688 149.666992188 493.498046875 141 456.498046875 c 0
 132.333007812 419.498046875 128 381.998046875 128 343.998046875 c 0
 128 313.331054688 132.5 282.998046875 141.5 252.998046875 c 0
 150.5 222.998046875 161.333007812 196.331054688 174 172.998046875 c 0
 186.666992188 149.665039062 198.333984375 132.33203125 209.000976562 120.999023438 c 0
 236.333984375 93.666015625 262.833984375 72.9990234375 288.500976562 58.9990234375 c 0
 314.16796875 44.9990234375 347.334960938 37.9990234375 388.001953125 37.9990234375 c 0
 422.001953125 37.9990234375 454.668945312 44.4990234375 486.001953125 57.4990234375 c 0
 517.334960938 70.4990234375 547.001953125 86.33203125 575.001953125 104.999023438 c 1
 592.001953125 75.9990234375 l 1
 556.001953125 51.33203125 518.001953125 29.9990234375 478.001953125 11.9990234375 c 0
 438.001953125 -6.0009765625 396.334960938 -15.0009765625 353.001953125 -15.0009765625 c 0
 313.668945312 -15.0009765625 274.668945312 -9.833984375 236.001953125 0.4990234375 c 0
 197.334960938 10.83203125 163.66796875 30.33203125 135.000976562 58.9990234375 c 0
 100.333984375 94.33203125 75.6669921875 135.499023438 61 182.499023438 c 0
 46.3330078125 229.499023438 39 277.33203125 39 325.999023438 c 0
 39 373.999023438 45.5 421.33203125 58.5 467.999023438 c 0
 71.5 514.666015625 95.3330078125 555.333007812 130 590 c 0
 166.666992188 626.666992188 209.166992188 654 257.5 672 c 0
 305.833007812 690 356 699 408 699 c 0
 452 699 492.5 690.833007812 529.5 674.5 c 0
 566.5 658.166992188 598 628.666992188 624 586 c 1
EndSplineSet
Validated: 1
EndChar

StartChar: D
Encoding: 68 68 37
Width: 737
GlyphClass: 1
Flags: W
LayerCount: 2
Fore
SplineSet
295 2 m 2
 64.00390625 1.9990234375 l 1
 64.00390625 11.9990234375 l 1
 74.00390625 19.33203125 80.00390625 27.6650390625 82.00390625 36.998046875 c 0
 84.00390625 46.3310546875 85.3369140625 60.3310546875 86.00390625 78.998046875 c 2
 86.00390625 572.998046875 l 2
 86.00390625 580.998046875 85.8369140625 588.998046875 85.50390625 596.998046875 c 0
 85.1708984375 604.998046875 84.6708984375 612.665039062 84.00390625 619.998046875 c 0
 83.3369140625 628.665039062 78.669921875 635.33203125 70.0029296875 639.999023438 c 0
 61.3359375 644.666015625 51.1689453125 648.333007812 39.501953125 651 c 0
 27.8349609375 653.666992188 17.66796875 656.333984375 9.0009765625 659.000976562 c 1
 9.0009765625 678.000976562 l 1
 16.0009765625 686.000976562 l 1
 329.000976562 686.000976562 l 2
 406.333984375 686.000976562 469.166992188 678.66796875 517.5 664.000976562 c 0
 565.833007812 649.333984375 602.833007812 628.666992188 628.5 602 c 0
 654.166992188 575.333007812 671.833984375 543.5 681.500976562 506.5 c 0
 691.16796875 469.5 696.000976562 429 696.000976562 385 c 0
 696.000976562 321.666992188 689.16796875 267.166992188 675.500976562 221.5 c 0
 661.833984375 175.833007812 635.666992188 132.333007812 597 91 c 0
 575 67 546.833007812 48.5 512.5 35.5 c 0
 478.166992188 22.5 442 13.6669921875 404 9 c 0
 366 4.3330078125 329.666992188 2 295 2 c 2
170.00390625 574.999023438 m 2
 170 169.99609375 l 2
 170.666992188 156.663085938 171.333984375 141.830078125 172.000976562 125.497070312 c 0
 172.66796875 109.1640625 174.334960938 94.3310546875 177.001953125 80.998046875 c 0
 179.668945312 67.6650390625 183.3359375 58.33203125 188.002929688 52.9990234375 c 0
 194.669921875 46.33203125 206.169921875 42.4990234375 222.502929688 41.4990234375 c 0
 238.8359375 40.4990234375 253.668945312 39.9990234375 267.001953125 39.9990234375 c 0
 334.334960938 39.9990234375 389.834960938 49.4990234375 433.501953125 68.4990234375 c 0
 477.168945312 87.4990234375 511.3359375 113.166015625 536.002929688 145.499023438 c 0
 560.669921875 177.83203125 577.836914062 213.999023438 587.50390625 253.999023438 c 0
 597.170898438 293.999023438 602.00390625 334.999023438 602.00390625 376.999023438 c 0
 602.00390625 397.666015625 599.836914062 420.999023438 595.50390625 446.999023438 c 0
 591.170898438 472.999023438 583.670898438 498.83203125 573.00390625 524.499023438 c 0
 562.336914062 550.166015625 547.669921875 572.333007812 529.002929688 591 c 0
 505.002929688 614.333007812 468.8359375 629.166015625 420.502929688 635.499023438 c 0
 372.169921875 641.83203125 315.336914062 644.999023438 250.00390625 644.999023438 c 0
 228.670898438 644.999023438 213.170898438 644.666015625 203.50390625 643.999023438 c 0
 193.836914062 643.33203125 187.336914062 642.33203125 184.00390625 640.999023438 c 0
 180.670898438 639.666015625 178.00390625 638.499023438 176.00390625 637.499023438 c 0
 174.00390625 636.499023438 172.50390625 631.83203125 171.50390625 623.499023438 c 0
 170.50390625 615.166015625 170.00390625 598.999023438 170.00390625 574.999023438 c 2
EndSplineSet
Validated: 1
EndChar

StartChar: E
Encoding: 69 69 38
Width: 518
GlyphClass: 2
Flags: W
AnchorPoint: "Anchor-10" 259 0 basechar 0
AnchorPoint: "Anchor-9" 270 683 basechar 0
LayerCount: 2
Fore
SplineSet
417 384 m 1
 410.997070312 336.001953125 l 1
 391.6640625 337.334960938 371.997070312 338.66796875 351.997070312 340.000976562 c 0
 331.997070312 341.333984375 312.330078125 342.000976562 292.997070312 342.000976562 c 2
 233.997070312 342.000976562 l 2
 213.997070312 342.000976562 197.330078125 341.000976562 183.997070312 339.000976562 c 0
 170.6640625 337.000976562 163.997070312 333.000976562 163.997070312 327.000976562 c 2
 163.997070312 188.000976562 l 2
 163.997070312 169.333984375 164.830078125 149.166992188 166.497070312 127.5 c 0
 168.1640625 105.833007812 172.331054688 88.666015625 178.998046875 75.9990234375 c 0
 186.331054688 63.33203125 196.498046875 54.83203125 209.498046875 50.4990234375 c 0
 222.498046875 46.166015625 244.331054688 43.9990234375 274.998046875 43.9990234375 c 0
 286.998046875 43.9990234375 298.331054688 44.166015625 308.998046875 44.4990234375 c 0
 319.665039062 44.83203125 332.665039062 45.33203125 347.998046875 45.9990234375 c 0
 363.331054688 46.666015625 383.831054688 47.9990234375 409.498046875 49.9990234375 c 0
 435.165039062 51.9990234375 468.33203125 54.666015625 508.999023438 57.9990234375 c 1
 513.999023438 52.9990234375 l 1
 500.999023438 -0.0009765625 l 1
 112.999023438 -0.0009765625 l 1
 102.999023438 5.33203125 96.166015625 14.33203125 92.4990234375 26.9990234375 c 0
 88.83203125 39.666015625 86.9990234375 52.666015625 86.9990234375 65.9990234375 c 2
 86.9990234375 557.999023438 l 2
 86.9990234375 565.33203125 86.666015625 575.33203125 85.9990234375 587.999023438 c 0
 85.33203125 600.666015625 82.6650390625 611.999023438 77.998046875 621.999023438 c 0
 75.3310546875 628.666015625 67.8310546875 634.833007812 55.498046875 640.5 c 0
 43.1650390625 646.166992188 25.33203125 650.666992188 1.9990234375 654 c 1
 0.9990234375 674 l 1
 7.9990234375 681 l 1
 155.999023438 682 l 2
 179.33203125 682 205.33203125 682.5 233.999023438 683.5 c 2
 319.999023438 686.5 l 2
 348.666015625 687.5 374.666015625 688 397.999023438 688 c 2
 422.999023438 688 l 2
 430.33203125 688 437.33203125 687.666992188 443.999023438 687 c 1
 441.999023438 637 l 1
 437.999023438 630 l 1
 420.666015625 631.333007812 400.499023438 632.5 377.499023438 633.5 c 0
 354.499023438 634.5 331.999023438 635.5 309.999023438 636.5 c 0
 287.999023438 637.5 269.499023438 638.333007812 254.499023438 639 c 0
 239.499023438 639.666992188 230.999023438 640 228.999023438 640 c 2
 188.999023438 640 l 2
 178.999023438 638 172.499023438 629.166992188 169.499023438 613.5 c 0
 166.499023438 597.833007812 164.999023438 581.333007812 164.999023438 564 c 2
 164.999023438 398 l 2
 164.999023438 389.333007812 171.33203125 384.833007812 183.999023438 384.5 c 0
 196.666015625 384.166992188 212.333007812 384 231 384 c 0
 257.666992188 384 287.666992188 384.666992188 321 386 c 0
 354.333007812 387.333007812 384.333007812 389 411 391 c 1
 417 384 l 1
EndSplineSet
Validated: 1
EndChar

StartChar: F
Encoding: 70 70 39
Width: 441
GlyphClass: 1
Flags: W
LayerCount: 2
Fore
SplineSet
87 360 m 2
 88.998046875 521.001953125 l 1
 88.998046875 570.501953125 l 2
 88.998046875 588.834960938 86.8310546875 605.334960938 82.498046875 620.001953125 c 0
 78.1650390625 634.668945312 69.33203125 643.668945312 55.9990234375 647.001953125 c 2
 0.9990234375 660.001953125 l 1
 0.9990234375 681.001953125 l 1
 7.9990234375 688.001953125 l 1
 122.999023438 688.001953125 l 1
 244.499023438 688.001953125 l 2
 284.166015625 688.001953125 320.333007812 688.168945312 353 688.501953125 c 0
 385.666992188 688.834960938 411 689.334960938 429 690.001953125 c 1
 429 637.001953125 l 1
 421 629.001953125 l 1
 385 631.668945312 349 635.668945312 313 641.001953125 c 0
 277 646.334960938 241 649.001953125 205 649.001953125 c 0
 198.333007812 649.001953125 192 647.334960938 186 644.001953125 c 0
 180 640.668945312 175.666992188 634.668945312 173 626.001953125 c 0
 172.333007812 622.668945312 171.5 618.168945312 170.5 612.501953125 c 0
 169.5 606.834960938 168.666992188 596.66796875 168 582.000976562 c 0
 167.333007812 567.333984375 166.833007812 545.000976562 166.5 515.000976562 c 0
 166.166992188 485.000976562 166 443.66796875 166 391.000976562 c 0
 166 388.333984375 167 385.500976562 169 382.500976562 c 0
 171 379.500976562 174.333007812 378.000976562 179 378.000976562 c 0
 215.666992188 378.000976562 255 379.66796875 297 383.000976562 c 0
 339 386.333984375 378 388.666992188 414 390 c 1
 413 341 l 1
 408 336 l 1
 373.333007812 338 335.333007812 339.333007812 294 340 c 0
 252.666992188 340.666992188 214.333984375 341 179.000976562 341 c 0
 176.333984375 341 173.666992188 340 171 338 c 0
 168.333007812 336 167 333.333007812 167 330 c 0
 167 279.333007812 167.333007812 226.5 168 171.5 c 0
 168.666992188 116.5 170 63.6669921875 172 13 c 1
 80 -2 l 1
 82 58.6669921875 83.6669921875 119 85 179 c 0
 86.3330078125 239 87 299.333007812 87 360 c 2
EndSplineSet
Validated: 1
EndChar

StartChar: G
Encoding: 71 71 40
Width: 661
GlyphClass: 1
Flags: W
LayerCount: 2
Fore
SplineSet
325 270 m 1
 324.994140625 296 l 1
 600.994140625 307 l 1
 601.661132812 284.333007812 602.161132812 257.5 602.494140625 226.5 c 0
 602.827148438 195.5 603.327148438 165.333007812 603.994140625 136 c 0
 604.661132812 106.666992188 605.161132812 82.1669921875 605.494140625 62.5 c 2
 605.994140625 33 l 1
 576.661132812 25.6669921875 545.828125 18 513.495117188 10 c 0
 481.162109375 2 449.829101562 -4.5 419.49609375 -9.5 c 0
 389.163085938 -14.5 361.663085938 -17 336.99609375 -17 c 0
 298.99609375 -17 262.163085938 -10.3330078125 226.49609375 3 c 0
 190.829101562 16.3330078125 159.329101562 36.3330078125 131.99609375 63 c 0
 97.99609375 97 73.99609375 137.166992188 59.99609375 183.5 c 0
 45.99609375 229.833007812 38.99609375 276.666015625 38.99609375 323.999023438 c 0
 38.99609375 373.33203125 45.6630859375 421.83203125 58.99609375 469.499023438 c 0
 72.3291015625 517.166015625 96.3291015625 558.333007812 130.99609375 593 c 0
 168.329101562 630.333007812 211.99609375 657.333007812 261.99609375 674 c 0
 311.99609375 690.666992188 363.329101562 699 415.99609375 699 c 0
 459.329101562 699 498.329101562 690.333007812 532.99609375 673 c 0
 567.663085938 655.666992188 598.330078125 626.666992188 624.997070312 586 c 1
 566.997070312 529 l 1
 554.997070312 530 l 1
 532.997070312 574 506.997070312 605 476.997070312 623 c 0
 446.997070312 641 411.6640625 650 370.997070312 650 c 0
 324.330078125 650 285.330078125 641.166992188 253.997070312 623.5 c 0
 222.6640625 605.833007812 197.831054688 582 179.498046875 552 c 0
 161.165039062 522 148.165039062 488.666992188 140.498046875 452 c 0
 132.831054688 415.333007812 128.998046875 378 128.998046875 340 c 0
 128.998046875 303.333007812 134.331054688 267 144.998046875 231 c 0
 155.665039062 195 172.165039062 162.166992188 194.498046875 132.5 c 0
 216.831054688 102.833007812 245.6640625 79.166015625 280.997070312 61.4990234375 c 0
 316.330078125 43.83203125 358.330078125 34.9990234375 406.997070312 34.9990234375 c 0
 440.330078125 34.9990234375 471.663085938 38.33203125 500.99609375 44.9990234375 c 0
 509.663085938 46.9990234375 515.330078125 53.166015625 517.997070312 63.4990234375 c 0
 520.6640625 73.83203125 521.831054688 85.6650390625 521.498046875 98.998046875 c 0
 521.165039062 112.331054688 520.998046875 123.998046875 520.998046875 133.998046875 c 0
 520.998046875 139.331054688 521.331054688 148.1640625 521.998046875 160.497070312 c 0
 522.665039062 172.830078125 522.498046875 186.330078125 521.498046875 200.997070312 c 0
 520.498046875 215.6640625 517.831054688 228.331054688 513.498046875 238.998046875 c 0
 509.165039062 249.665039062 502.33203125 255.33203125 492.999023438 255.999023438 c 0
 470.999023438 257.999023438 445.33203125 259.83203125 415.999023438 261.499023438 c 0
 386.666015625 263.166015625 358.333007812 264.333007812 331 265 c 1
 325 270 l 1
EndSplineSet
Validated: 33
EndChar

StartChar: H
Encoding: 72 72 41
Width: 706
GlyphClass: 1
Flags: W
LayerCount: 2
Fore
SplineSet
699 32 m 2
 699.999023438 13.9951171875 l 1
 693.999023438 -0.0048828125 l 1
 544.999023438 -0.0048828125 l 1
 533.999023438 20.9951171875 l 1
 535.33203125 69.662109375 536.499023438 121.829101562 537.499023438 177.49609375 c 0
 538.499023438 233.163085938 538.999023438 285.330078125 538.999023438 333.997070312 c 0
 538.999023438 336.6640625 538.166015625 339.331054688 536.499023438 341.998046875 c 0
 534.83203125 344.665039062 531.665039062 345.998046875 526.998046875 345.998046875 c 2
 183.998046875 345.998046875 l 2
 175.331054688 345.998046875 170.998046875 341.998046875 170.998046875 333.998046875 c 0
 170.998046875 311.331054688 170.831054688 286.498046875 170.498046875 259.498046875 c 0
 170.165039062 232.498046875 169.998046875 205.331054688 169.998046875 177.998046875 c 0
 169.998046875 149.331054688 170.331054688 123.1640625 170.998046875 99.4970703125 c 0
 171.665039062 75.830078125 173.33203125 51.330078125 175.999023438 25.9970703125 c 1
 83.9990234375 -2.0029296875 l 1
 77.9990234375 2.9970703125 l 1
 83.33203125 59.6640625 86.33203125 119.331054688 86.9990234375 181.998046875 c 0
 87.666015625 244.665039062 87.9990234375 306.33203125 87.9990234375 366.999023438 c 0
 87.9990234375 408.33203125 87.83203125 449.83203125 87.4990234375 491.499023438 c 0
 87.166015625 533.166015625 85.3330078125 574.666015625 82 615.999023438 c 0
 81.3330078125 625.33203125 78.8330078125 631.665039062 74.5 634.998046875 c 0
 70.1669921875 638.331054688 63 641.498046875 53 644.498046875 c 0
 43 647.498046875 28.3330078125 652.331054688 9 658.998046875 c 1
 8 677.998046875 l 1
 15 684.998046875 l 1
 177 684.998046875 l 1
 182 679.998046875 l 1
 178 657.331054688 175 629.831054688 173 597.498046875 c 0
 171 565.165039062 169.833007812 531.33203125 169.5 495.999023438 c 0
 169.166992188 460.666015625 169 427.666015625 169 396.999023438 c 0
 169 394.33203125 169.833007812 391.665039062 171.5 388.998046875 c 0
 173.166992188 386.331054688 176.333984375 384.998046875 181.000976562 384.998046875 c 2
 527.000976562 384.998046875 l 2
 532.333984375 384.998046875 535.666992188 386.331054688 537 388.998046875 c 0
 538.333007812 391.665039062 539 394.33203125 539 396.999023438 c 0
 539 440.33203125 538.5 486.499023438 537.5 535.499023438 c 0
 536.5 584.499023438 536 630.33203125 536 672.999023438 c 1
 624 689.999023438 l 1
 629 683.999023438 l 1
 624.333007812 623.33203125 621.333007812 562.999023438 620 502.999023438 c 0
 618.666992188 442.999023438 618 382.666015625 618 321.999023438 c 0
 618 281.33203125 618.333007812 240.83203125 619 200.499023438 c 0
 619.666992188 160.166015625 620.666992188 119.666015625 622 78.9990234375 c 0
 622 70.33203125 625.5 62.83203125 632.5 56.4990234375 c 0
 639.5 50.166015625 647.833007812 45.3330078125 657.5 42 c 0
 667.166992188 38.6669921875 676 36.1669921875 684 34.5 c 0
 692 32.8330078125 697 32 699 32 c 2
EndSplineSet
Validated: 1
EndChar

StartChar: I
Encoding: 73 73 42
Width: 280
GlyphClass: 2
Flags: W
AnchorPoint: "Anchor-10" 141 0 basechar 0
AnchorPoint: "Anchor-9" 137 683 basechar 0
LayerCount: 2
Fore
SplineSet
275 23 m 1
 272.997070312 -1.0029296875 l 1
 7.9970703125 -1.0029296875 l 1
 7.9970703125 24.9970703125 l 1
 32.6640625 29.6640625 50.9970703125 34.1640625 62.9970703125 38.4970703125 c 0
 74.9970703125 42.830078125 83.1640625 48.4970703125 87.4970703125 55.4970703125 c 0
 91.830078125 62.4970703125 94.330078125 72.1640625 94.9970703125 84.4970703125 c 0
 95.6640625 96.830078125 96.3310546875 113.330078125 96.998046875 133.997070312 c 2
 96.998046875 496.997070312 l 2
 96.998046875 516.330078125 96.8310546875 535.663085938 96.498046875 554.99609375 c 0
 96.1650390625 574.329101562 95.33203125 593.329101562 93.9990234375 611.99609375 c 0
 93.33203125 621.99609375 91.1650390625 628.829101562 87.498046875 632.49609375 c 0
 83.8310546875 636.163085938 75.8310546875 639.330078125 63.498046875 641.997070312 c 0
 51.1650390625 644.6640625 31.6650390625 648.997070312 4.998046875 654.997070312 c 1
 4.998046875 676.997070312 l 1
 11.998046875 682.997070312 l 1
 261.998046875 682.997070312 l 1
 267.998046875 676.997070312 l 1
 267.998046875 655.997070312 l 1
 200.998046875 640.997070312 l 2
 187.665039062 637.6640625 180.33203125 628.997070312 178.999023438 614.997070312 c 0
 176.33203125 595.6640625 174.83203125 570.831054688 174.499023438 540.498046875 c 0
 174.166015625 510.165039062 174.333007812 478.83203125 175 446.499023438 c 0
 175.666992188 414.166015625 176 384.999023438 176 358.999023438 c 0
 176 325.666015625 176.166992188 293.333007812 176.5 262 c 0
 176.833007812 230.666992188 177.333007812 199.666992188 178 169 c 0
 178.666992188 155 178.666992188 138.5 178 119.5 c 0
 177.333007812 100.5 179 83.5 183 68.5 c 0
 187 53.5 196 44 210 40 c 0
 217.333007812 38 226 35.6669921875 236 33 c 0
 246 30.3330078125 255 28 263 26 c 2
 275 23 l 1
EndSplineSet
Validated: 33
EndChar

StartChar: J
Encoding: 74 74 43
Width: 265
GlyphClass: 1
Flags: W
LayerCount: 2
Fore
SplineSet
175 608 m 2
 174.998046875 90.9970703125 l 2
 174.998046875 13.6640625 159.165039062 -51.1689453125 127.498046875 -103.501953125 c 0
 95.8310546875 -155.834960938 46.3310546875 -199.334960938 -21.001953125 -234.001953125 c 1
 -35.001953125 -216.001953125 l 1
 -15.6689453125 -204.001953125 1.8310546875 -190.334960938 17.498046875 -175.001953125 c 0
 33.1650390625 -159.668945312 46.33203125 -140.501953125 56.9990234375 -117.501953125 c 0
 67.666015625 -94.501953125 75.8330078125 -65.8349609375 81.5 -31.501953125 c 0
 87.1669921875 2.8310546875 90 45.3310546875 90 95.998046875 c 2
 90 607.998046875 l 2
 90 613.331054688 88.8330078125 620.498046875 86.5 629.498046875 c 0
 84.1669921875 638.498046875 80 643.665039062 74 644.998046875 c 2
 2 662.998046875 l 1
 2 683.998046875 l 1
 9 689.998046875 l 1
 259 689.998046875 l 1
 266 683.998046875 l 1
 264 659.998046875 l 1
 196 645.998046875 l 2
 190 644.665039062 185 640.33203125 181 632.999023438 c 0
 177 625.666015625 175 617.333007812 175 608 c 2
EndSplineSet
Validated: 1
EndChar

StartChar: K
Encoding: 75 75 44
Width: 593
GlyphClass: 1
Flags: W
LayerCount: 2
Fore
SplineSet
178 319 m 1
 169 317.998046875 l 1
 169 269.331054688 169.333007812 220.498046875 170 171.498046875 c 0
 170.666992188 122.498046875 172.333984375 73.6650390625 175.000976562 24.998046875 c 1
 94.0009765625 -4.001953125 l 1
 86.0009765625 0.998046875 l 1
 86.0009765625 594.998046875 l 2
 86.0009765625 600.331054688 85.66796875 605.6640625 85.0009765625 610.997070312 c 0
 84.333984375 616.330078125 83.0009765625 621.330078125 81.0009765625 625.997070312 c 0
 78.333984375 631.997070312 71.1669921875 637.497070312 59.5 642.497070312 c 0
 47.8330078125 647.497070312 36.5 651.497070312 25.5 654.497070312 c 0
 14.5 657.497070312 8 658.997070312 6 658.997070312 c 1
 8 675.997070312 l 1
 16 682.997070312 l 1
 174 682.997070312 l 1
 181 675.997070312 l 1
 177.666992188 665.330078125 174.833984375 647.830078125 172.500976562 623.497070312 c 0
 170.16796875 599.1640625 168.500976562 565.6640625 167.500976562 522.997070312 c 0
 166.500976562 480.330078125 166.000976562 425.330078125 166.000976562 357.997070312 c 1
 174.000976562 356.997070312 l 1
 461.000976562 682.997070312 l 1
 551.000976562 682.997070312 l 1
 550.000976562 673.997070312 l 1
 259.000976562 379.997070312 l 2
 257.66796875 378.6640625 256.000976562 376.831054688 254.000976562 374.498046875 c 0
 252.000976562 372.165039062 251.000976562 370.33203125 251.000976562 368.999023438 c 0
 251.000976562 366.33203125 252.66796875 363.33203125 256.000976562 359.999023438 c 2
 344.000976562 271.999023438 l 2
 376.000976562 239.999023438 407.833984375 208.499023438 439.500976562 177.499023438 c 0
 471.16796875 146.499023438 500.16796875 118.33203125 526.500976562 92.9990234375 c 0
 552.833984375 67.666015625 573.666992188 48.3330078125 589 35 c 1
 588 24 l 1
 503 -7 l 1
 450.333007812 49 396.5 103.666992188 341.5 157 c 0
 286.5 210.333007812 232 264.333007812 178 319 c 1
EndSplineSet
Validated: 1
EndChar

StartChar: L
Encoding: 76 76 45
Width: 494
GlyphClass: 1
Flags: W
LayerCount: 2
Fore
SplineSet
482 58 m 2
 491.999023438 47.9990234375 l 1
 477.999023438 -5.0009765625 l 1
 459.33203125 -3.0009765625 433.999023438 -1.5009765625 401.999023438 -0.5009765625 c 0
 369.999023438 0.4990234375 334.499023438 1.166015625 295.499023438 1.4990234375 c 0
 256.499023438 1.83203125 216.999023438 1.9990234375 176.999023438 1.9990234375 c 2
 64.9990234375 1.9990234375 l 1
 64.9990234375 15.9990234375 l 1
 72.9990234375 27.33203125 78.666015625 44.83203125 81.9990234375 68.4990234375 c 0
 85.33203125 92.166015625 86.9990234375 116.999023438 86.9990234375 142.999023438 c 2
 86.9990234375 620.999023438 l 2
 86.9990234375 628.33203125 85.33203125 635.33203125 81.9990234375 641.999023438 c 0
 78.666015625 648.666015625 73.3330078125 652.666015625 66 653.999023438 c 0
 59.3330078125 655.33203125 51.5 656.999023438 42.5 658.999023438 c 0
 33.5 660.999023438 25.6669921875 662.666015625 19 663.999023438 c 0
 12.3330078125 665.33203125 8.666015625 665.999023438 7.9990234375 665.999023438 c 1
 8.9990234375 682.999023438 l 1
 15.9990234375 689.999023438 l 1
 252.999023438 689.999023438 l 1
 258.999023438 683.999023438 l 1
 258.999023438 662.999023438 l 1
 246.999023438 660.499023438 l 2
 238.999023438 658.83203125 229.999023438 656.999023438 219.999023438 654.999023438 c 0
 209.999023438 652.999023438 201.33203125 650.999023438 193.999023438 648.999023438 c 0
 187.999023438 648.33203125 183.666015625 645.33203125 180.999023438 639.999023438 c 0
 178.33203125 634.666015625 176.665039062 629.333007812 175.998046875 624 c 0
 171.998046875 551.333007812 169.998046875 474.333007812 169.998046875 393 c 0
 169.998046875 336.333007812 170.665039062 279.5 171.998046875 222.5 c 0
 173.331054688 165.5 174.998046875 110 176.998046875 56 c 0
 177.665039062 53.3330078125 179.33203125 50.5 181.999023438 47.5 c 0
 184.666015625 44.5 187.333007812 43 190 43 c 0
 216 43 245.333007812 43.6669921875 278 45 c 0
 310.666992188 46.3330078125 342.333984375 48 373.000976562 50 c 0
 403.66796875 52 429.16796875 53.8330078125 449.500976562 55.5 c 0
 469.833984375 57.1669921875 480.666992188 58 482 58 c 2
EndSplineSet
Validated: 1
EndChar

StartChar: M
Encoding: 77 77 46
Width: 962
GlyphClass: 1
Flags: W
LayerCount: 2
Fore
SplineSet
475 147 m 2
 751.002929688 689.998046875 l 1
 854.002929688 689.998046875 l 1
 854.002929688 677.998046875 l 1
 840.669921875 671.331054688 833.169921875 659.331054688 831.502929688 641.998046875 c 0
 829.8359375 624.665039062 829.002929688 604.998046875 829.002929688 582.998046875 c 0
 829.002929688 500.998046875 829.8359375 420.831054688 831.502929688 342.498046875 c 0
 833.169921875 264.165039062 838.336914062 183.998046875 847.00390625 101.998046875 c 0
 848.336914062 87.3310546875 854.169921875 74.3310546875 864.502929688 62.998046875 c 0
 874.8359375 51.6650390625 888.3359375 45.998046875 905.002929688 45.998046875 c 0
 911.669921875 45.998046875 920.502929688 46.8310546875 931.502929688 48.498046875 c 0
 942.502929688 50.1650390625 952.3359375 51.33203125 961.002929688 51.9990234375 c 1
 961.002929688 27.9990234375 l 1
 939.002929688 19.9990234375 915.8359375 12.33203125 891.502929688 4.9990234375 c 0
 867.169921875 -2.333984375 845.002929688 -6.0009765625 825.002929688 -6.0009765625 c 0
 810.3359375 -6.0009765625 796.168945312 -3.333984375 782.501953125 1.9990234375 c 0
 768.834960938 7.33203125 762.001953125 16.33203125 762.001953125 28.9990234375 c 2
 762.001953125 210.999023438 l 2
 762.001953125 216.33203125 761.668945312 228.999023438 761.001953125 248.999023438 c 0
 760.334960938 268.999023438 759.66796875 293.166015625 759.000976562 321.499023438 c 0
 758.333984375 349.83203125 757.500976562 378.83203125 756.500976562 408.499023438 c 0
 755.500976562 438.166015625 754.66796875 465.499023438 754.000976562 490.499023438 c 0
 753.333984375 515.499023438 752.666992188 534.666015625 752 547.999023438 c 0
 752 557.999023438 749.333007812 562.999023438 744 562.999023438 c 0
 740 562.999023438 736.333007812 560.33203125 733 554.999023438 c 2
 447 0.9990234375 l 1
 417 0.9990234375 l 1
 398.333007812 46.33203125 378.666015625 93.4990234375 357.999023438 142.499023438 c 0
 337.33203125 191.499023438 316.83203125 240.33203125 296.499023438 288.999023438 c 0
 276.166015625 337.666015625 256.499023438 383.333007812 237.499023438 426 c 0
 218.499023438 468.666992188 200.999023438 506 184.999023438 538 c 0
 180.999023438 544.666992188 177.33203125 548 173.999023438 548 c 0
 170.666015625 548 166.999023438 537.333007812 162.999023438 516 c 0
 158.999023438 494.666992188 154.83203125 466.666992188 150.499023438 432 c 0
 146.166015625 397.333007812 141.999023438 359.666015625 137.999023438 318.999023438 c 0
 133.999023438 278.33203125 130.166015625 238.165039062 126.499023438 198.498046875 c 0
 122.83203125 158.831054688 119.83203125 123.498046875 117.499023438 92.498046875 c 0
 115.166015625 61.498046875 113.333007812 38.3310546875 112 22.998046875 c 1
 37 -3.001953125 l 1
 30 -0.001953125 l 1
 49.3330078125 97.998046875 67.5 196.331054688 84.5 294.998046875 c 0
 101.5 393.665039062 116.666992188 492.33203125 130 590.999023438 c 0
 130.666992188 592.999023438 131 594.999023438 131 596.999023438 c 2
 131 602.999023438 l 2
 131 612.33203125 128.666992188 620.499023438 124 627.499023438 c 0
 119.333007812 634.499023438 112.333007812 639.33203125 103 641.999023438 c 2
 35 660.999023438 l 1
 37 682.999023438 l 1
 44 689.999023438 l 1
 220 689.999023438 l 1
 238.666992188 636.666015625 260.666992188 579.666015625 286 518.999023438 c 0
 311.333007812 458.33203125 338.5 396.83203125 367.5 334.499023438 c 0
 396.5 272.166015625 424.666992188 211.333007812 452 152 c 0
 453.333007812 150 455 147.166992188 457 143.5 c 0
 459 139.833007812 461 138 463 138 c 0
 468.333007812 138 472.333007812 141 475 147 c 2
EndSplineSet
Validated: 1
EndChar

StartChar: N
Encoding: 78 78 47
Width: 732
GlyphClass: 2
Flags: W
AnchorPoint: "Anchor-10" 366 0 basechar 0
AnchorPoint: "Anchor-9" 395 683 basechar 0
LayerCount: 2
Fore
SplineSet
577 678 m 1
 657.001953125 693.998046875 l 1
 663.001953125 685.998046875 l 1
 656.334960938 572.665039062 652.16796875 458.33203125 650.500976562 342.999023438 c 0
 648.833984375 227.666015625 648.000976562 113.333007812 648.000976562 0 c 1
 612.000976562 -0 l 1
 600.66796875 13.3330078125 590.500976562 25.3330078125 581.500976562 36 c 0
 572.500976562 46.6669921875 560.333984375 61.333984375 545.000976562 80.0009765625 c 2
 386.000976562 278.000976562 l 2
 335.333984375 341.333984375 289.833984375 396.333984375 249.500976562 443.000976562 c 0
 209.16796875 489.66796875 176.66796875 527.000976562 152.000976562 555.000976562 c 0
 150.66796875 557.000976562 149.000976562 559.000976562 147.000976562 561.000976562 c 0
 145.000976562 563.000976562 143.000976562 564.000976562 141.000976562 564.000976562 c 0
 137.66796875 564.000976562 135.66796875 561.833984375 135.000976562 557.500976562 c 0
 134.333984375 553.16796875 134.000976562 549.66796875 134.000976562 547.000976562 c 0
 134.000976562 515.000976562 134.66796875 478.000976562 136.000976562 436.000976562 c 0
 137.333984375 394.000976562 139.166992188 349.66796875 141.5 303.000976562 c 0
 143.833007812 256.333984375 146.5 209.166992188 149.5 161.5 c 0
 152.5 113.833007812 155.333007812 68.3330078125 158 25 c 1
 88 -5 l 1
 79 4 l 1
 83 83.3330078125 86.1669921875 162.666015625 88.5 241.999023438 c 0
 90.8330078125 321.33203125 92 400.33203125 92 478.999023438 c 0
 92 500.33203125 91.8330078125 521.83203125 91.5 543.499023438 c 0
 91.1669921875 565.166015625 91 586.666015625 91 607.999023438 c 0
 91 615.33203125 90.5 620.999023438 89.5 624.999023438 c 0
 88.5 628.999023438 82.3330078125 633.33203125 71 637.999023438 c 0
 59.6669921875 642.666015625 38 648.666015625 6 655.999023438 c 1
 2 682.999023438 l 1
 10 689.999023438 l 1
 172 689.999023438 l 1
 205.333007812 645.999023438 240 600.33203125 276 552.999023438 c 0
 312 505.666015625 348 458.833007812 384 412.5 c 0
 420 366.166992188 455 322.5 489 281.5 c 0
 523 240.5 554.666992188 204.333007812 584 173 c 2
 589 168 l 2
 591 166 593 165 595 165 c 0
 597.666992188 165 599.333984375 166.166992188 600.000976562 168.5 c 0
 600.66796875 170.833007812 601.000976562 172.333007812 601.000976562 173 c 0
 601.000976562 198.333007812 600.66796875 224.833007812 600.000976562 252.5 c 0
 599.333984375 280.166992188 598.166992188 312.5 596.5 349.5 c 0
 594.833007812 386.5 592.5 431.5 589.5 484.5 c 0
 586.5 537.5 582.333007812 602 577 678 c 1
EndSplineSet
Validated: 1
EndChar

StartChar: O
Encoding: 79 79 48
Width: 737
GlyphClass: 2
Flags: W
AnchorPoint: "Anchor-10" 369 0 basechar 0
AnchorPoint: "Anchor-9" 381 693 basechar 0
LayerCount: 2
Fore
SplineSet
320 -18 m 0
 268.666992188 -18 225.169921875 -8.33203125 189.502929688 11.0009765625 c 0
 153.8359375 30.333984375 125.168945312 56.1669921875 103.501953125 88.5 c 0
 81.8349609375 120.833007812 66.001953125 156.833007812 56.001953125 196.5 c 0
 46.001953125 236.166992188 41.001953125 276.666992188 41.001953125 318 c 0
 41.001953125 382.666992188 48.6689453125 437.833984375 64.001953125 483.500976562 c 0
 79.3349609375 529.16796875 105.334960938 572.000976562 142.001953125 612.000976562 c 0
 163.334960938 634.66796875 188.334960938 652.334960938 217.001953125 665.001953125 c 0
 245.668945312 677.668945312 276.168945312 686.668945312 308.501953125 692.001953125 c 0
 340.834960938 697.334960938 372.334960938 700.001953125 403.001953125 700.001953125 c 0
 440.334960938 700.001953125 477.66796875 694.168945312 515.000976562 682.501953125 c 0
 552.333984375 670.834960938 584.333984375 651.334960938 611.000976562 624.001953125 c 0
 631.66796875 603.334960938 648.16796875 578.501953125 660.500976562 549.501953125 c 0
 672.833984375 520.501953125 681.666992188 490.168945312 687 458.501953125 c 0
 692.333007812 426.834960938 695 395.334960938 695 364.001953125 c 0
 695 331.334960938 693.166992188 298.001953125 689.5 264.001953125 c 0
 685.833007812 230.001953125 674 192.668945312 654 152.001953125 c 0
 638 119.334960938 613.666992188 90.16796875 581 64.5009765625 c 0
 548.333007812 38.833984375 509.833007812 18.6669921875 465.5 4 c 0
 421.166992188 -10.6669921875 372.666992188 -18 320 -18 c 0
371.002929688 660.000976562 m 0
 327.669921875 660.000976562 291.00390625 651.001953125 261.00390625 633.001953125 c 0
 231.00390625 615.001953125 206.670898438 591.001953125 188.00390625 561.001953125 c 0
 169.336914062 531.001953125 155.669921875 497.501953125 147.002929688 460.501953125 c 0
 138.3359375 423.501953125 134.002929688 386.001953125 134.002929688 348.001953125 c 0
 134.002929688 301.334960938 139.502929688 256.834960938 150.502929688 214.501953125 c 0
 161.502929688 172.168945312 182.3359375 134.001953125 213.002929688 100.001953125 c 0
 243.002929688 66.6689453125 272.3359375 45.501953125 301.002929688 36.501953125 c 0
 329.669921875 27.501953125 353.669921875 23.001953125 373.002929688 23.001953125 c 0
 414.3359375 23.001953125 449.502929688 32.1689453125 478.502929688 50.501953125 c 0
 507.502929688 68.8349609375 531.002929688 93.16796875 549.002929688 123.500976562 c 0
 567.002929688 153.833984375 580.169921875 187.500976562 588.502929688 224.500976562 c 0
 596.8359375 261.500976562 601.002929688 298.66796875 601.002929688 336.000976562 c 0
 601.002929688 371.333984375 596.8359375 408.000976562 588.502929688 446.000976562 c 0
 580.169921875 484.000976562 567.002929688 519.16796875 549.002929688 551.500976562 c 0
 531.002929688 583.833984375 507.3359375 610.000976562 478.002929688 630.000976562 c 0
 448.669921875 650.000976562 413.002929688 660.000976562 371.002929688 660.000976562 c 0
EndSplineSet
Validated: 1
EndChar

StartChar: P
Encoding: 80 80 49
Width: 527
GlyphClass: 1
Flags: W
LayerCount: 2
Fore
SplineSet
172 22 m 1
 88.998046875 -6.0029296875 l 1
 81.998046875 0.9970703125 l 1
 83.3310546875 70.9970703125 84.8310546875 141.1640625 86.498046875 211.497070312 c 0
 88.1650390625 281.830078125 88.998046875 352.330078125 88.998046875 422.997070312 c 0
 88.998046875 452.330078125 88.498046875 481.830078125 87.498046875 511.497070312 c 0
 86.498046875 541.1640625 85.3310546875 570.6640625 83.998046875 599.997070312 c 0
 82.6650390625 619.997070312 74.83203125 633.330078125 60.4990234375 639.997070312 c 0
 46.166015625 646.6640625 29.3330078125 651.331054688 10 653.998046875 c 1
 10 671.998046875 l 1
 17 678.998046875 l 1
 274 678.998046875 l 2
 356 678.998046875 415 664.831054688 451 636.498046875 c 0
 487 608.165039062 505 567.33203125 505 513.999023438 c 0
 505 452.666015625 483.666992188 400.666015625 441 357.999023438 c 0
 419 335.33203125 391.333007812 319.499023438 358 310.499023438 c 0
 324.666992188 301.499023438 291.666992188 295.666015625 259 292.999023438 c 0
 249.666992188 292.33203125 237.5 291.83203125 222.5 291.499023438 c 0
 207.5 291.166015625 194.166992188 289.833007812 182.5 287.5 c 0
 170.833007812 285.166992188 165 280.666992188 165 274 c 0
 165 266 165.5 248.333007812 166.5 221 c 0
 167.5 193.666992188 168.666992188 162.166992188 170 126.5 c 0
 171.333007812 90.8330078125 172 56 172 22 c 1
235.998046875 639.997070312 m 2
 179.997070312 639.998046875 l 2
 176.6640625 639.998046875 174.331054688 638.831054688 172.998046875 636.498046875 c 0
 171.665039062 634.165039062 170.998046875 631.665039062 170.998046875 628.998046875 c 0
 168.998046875 584.998046875 167.498046875 536.831054688 166.498046875 484.498046875 c 0
 165.498046875 432.165039062 164.998046875 384.33203125 164.998046875 340.999023438 c 0
 164.998046875 336.33203125 166.331054688 333.165039062 168.998046875 331.498046875 c 0
 171.665039062 329.831054688 173.998046875 328.998046875 175.998046875 328.998046875 c 0
 245.331054688 328.998046875 301.498046875 344.665039062 344.498046875 375.998046875 c 0
 387.498046875 407.331054688 408.998046875 450.6640625 408.998046875 505.997070312 c 0
 408.998046875 540.6640625 400.998046875 567.6640625 384.998046875 586.997070312 c 0
 368.998046875 606.330078125 347.831054688 619.997070312 321.498046875 627.997070312 c 0
 295.165039062 635.997070312 266.665039062 639.997070312 235.998046875 639.997070312 c 2
EndSplineSet
Validated: 1
EndChar

StartChar: Q
Encoding: 81 81 50
Width: 740
GlyphClass: 1
Flags: W
LayerCount: 2
Fore
SplineSet
722 -174 m 1
 728.997070312 -194 l 1
 709.6640625 -202 685.331054688 -210.833007812 655.998046875 -220.5 c 0
 626.665039062 -230.166992188 599.33203125 -235 573.999023438 -235 c 0
 545.33203125 -235 518.83203125 -228.5 494.499023438 -215.5 c 0
 470.166015625 -202.5 447.833007812 -185.166992188 427.5 -163.5 c 0
 407.166992188 -141.833007812 388.166992188 -118.166015625 370.5 -92.4990234375 c 0
 352.833007812 -66.83203125 336.333007812 -41.33203125 321 -15.9990234375 c 1
 286.333007812 -15.9990234375 251.333007812 -10.666015625 216 0.0009765625 c 0
 180.666992188 10.66796875 150.666992188 29.66796875 126 57.0009765625 c 0
 98 88.333984375 76.8330078125 125.500976562 62.5 168.500976562 c 0
 48.1669921875 211.500976562 41 255.333984375 41 300.000976562 c 0
 41 369.333984375 48.6669921875 428.666992188 64 478 c 0
 79.3330078125 527.333007812 105.333007812 571 142 609 c 0
 176 644.333007812 215.666992188 668 261 680 c 0
 306.333007812 692 352.666015625 698 399.999023438 698 c 0
 438.666015625 698 476.666015625 692.666992188 513.999023438 682 c 0
 551.33203125 671.333007812 584.33203125 651.333007812 612.999023438 622 c 0
 634.33203125 601.333007812 650.999023438 576.166015625 662.999023438 546.499023438 c 0
 674.999023438 516.83203125 683.499023438 486.33203125 688.499023438 454.999023438 c 0
 693.499023438 423.666015625 695.999023438 393.999023438 695.999023438 365.999023438 c 0
 695.999023438 333.999023438 695.33203125 309.166015625 693.999023438 291.499023438 c 0
 692.666015625 273.83203125 690.666015625 259.33203125 687.999023438 247.999023438 c 0
 685.33203125 236.666015625 681.665039062 223.999023438 676.998046875 209.999023438 c 0
 669.665039062 187.999023438 661.83203125 167.83203125 653.499023438 149.499023438 c 0
 645.166015625 131.166015625 630.333007812 110.333007812 609 87 c 0
 586.333007812 62.3330078125 558.833007812 42.3330078125 526.5 27 c 0
 494.166992188 11.6669921875 462.333984375 0.333984375 431.000976562 -6.9990234375 c 1
 427.000976562 -16.9990234375 l 1
 435.000976562 -31.666015625 444.833984375 -49.4990234375 456.500976562 -70.4990234375 c 0
 468.16796875 -91.4990234375 479.000976562 -108.666015625 489.000976562 -121.999023438 c 0
 494.333984375 -128.666015625 502.666992188 -137.333007812 514 -148 c 0
 525.333007812 -158.666992188 541 -168.166992188 561 -176.5 c 0
 581 -184.833007812 605.666992188 -189 635 -189 c 0
 640.333007812 -189 648.5 -188.166992188 659.5 -186.5 c 0
 670.5 -184.833007812 681.833007812 -182.833007812 693.5 -180.5 c 0
 705.166992188 -178.166992188 714.666992188 -176 722 -174 c 1
364.997070312 22 m 0
 411.6640625 22 450.163085938 31.666015625 480.49609375 50.9990234375 c 0
 510.829101562 70.33203125 534.829101562 95.83203125 552.49609375 127.499023438 c 0
 570.163085938 159.166015625 582.663085938 193.499023438 589.99609375 230.499023438 c 0
 597.329101562 267.499023438 600.99609375 303.33203125 600.99609375 337.999023438 c 0
 600.99609375 377.33203125 596.329101562 415.999023438 586.99609375 453.999023438 c 0
 577.663085938 491.999023438 563.663085938 526.499023438 544.99609375 557.499023438 c 0
 526.329101562 588.499023438 502.99609375 613.33203125 474.99609375 631.999023438 c 0
 446.99609375 650.666015625 413.99609375 659.999023438 375.99609375 659.999023438 c 0
 327.99609375 659.999023438 288.329101562 650.166015625 256.99609375 630.499023438 c 0
 225.663085938 610.83203125 200.99609375 584.83203125 182.99609375 552.499023438 c 0
 164.99609375 520.166015625 152.329101562 484.833007812 144.99609375 446.5 c 0
 137.663085938 408.166992188 133.99609375 370.666992188 133.99609375 334 c 0
 133.99609375 289.333007812 140.49609375 245.833007812 153.49609375 203.5 c 0
 166.49609375 161.166992188 188.329101562 124 218.99609375 92 c 0
 238.329101562 72 260.829101562 55.3330078125 286.49609375 42 c 0
 312.163085938 28.6669921875 338.330078125 22 364.997070312 22 c 0
EndSplineSet
Validated: 1
EndChar

StartChar: R
Encoding: 82 82 51
Width: 548
GlyphClass: 1
Flags: W
LayerCount: 2
Fore
SplineSet
275 331 m 1
 272.99609375 322.999023438 l 1
 535.99609375 26.9990234375 l 1
 535.99609375 17.9990234375 l 1
 436.99609375 -8.0009765625 l 1
 413.663085938 21.9990234375 388.99609375 53.4990234375 362.99609375 86.4990234375 c 0
 336.99609375 119.499023438 312.163085938 151.166015625 288.49609375 181.499023438 c 0
 264.829101562 211.83203125 243.99609375 237.83203125 225.99609375 259.499023438 c 0
 207.99609375 281.166015625 195.329101562 295.666015625 187.99609375 302.999023438 c 0
 181.99609375 308.999023438 175.329101562 311.999023438 167.99609375 311.999023438 c 1
 167.99609375 263.999023438 168.163085938 215.83203125 168.49609375 167.499023438 c 0
 168.829101562 119.166015625 170.329101562 70.9990234375 172.99609375 22.9990234375 c 1
 89.99609375 -6.0009765625 l 1
 78.99609375 2.9990234375 l 1
 82.99609375 75.666015625 85.49609375 148.333007812 86.49609375 221 c 0
 87.49609375 293.666992188 87.99609375 366.333984375 87.99609375 439.000976562 c 0
 87.99609375 443.000976562 87.8291015625 451.333984375 87.49609375 464.000976562 c 0
 87.1630859375 476.66796875 86.830078125 491.66796875 86.4970703125 509.000976562 c 0
 86.1640625 526.333984375 85.8310546875 544.166992188 85.498046875 562.5 c 0
 85.1650390625 580.833007812 84.998046875 597 84.998046875 611 c 0
 84.998046875 621.666992188 79.1650390625 630.333984375 67.498046875 637.000976562 c 0
 55.8310546875 643.66796875 43.8310546875 648.500976562 31.498046875 651.500976562 c 0
 19.1650390625 654.500976562 11.33203125 656.000976562 7.9990234375 656.000976562 c 1
 8.9990234375 673.000976562 l 1
 14.9990234375 679.000976562 l 1
 286.999023438 679.000976562 l 2
 348.33203125 679.000976562 397.499023438 667.333984375 434.499023438 644.000976562 c 0
 471.499023438 620.66796875 489.999023438 585.66796875 489.999023438 539.000976562 c 0
 489.999023438 493.000976562 480.33203125 455.333984375 460.999023438 426.000976562 c 0
 441.666015625 396.66796875 415.833007812 374.66796875 383.5 360.000976562 c 0
 351.166992188 345.333984375 315 335.666992188 275 331 c 1
166.99609375 369.999023438 m 0
 166.99609375 367.33203125 167.663085938 364.166992188 168.99609375 360.5 c 0
 170.329101562 356.833007812 172.662109375 355 175.995117188 355 c 0
 212.662109375 355 247.495117188 360.666992188 280.495117188 372 c 0
 313.495117188 383.333007812 340.328125 401.5 360.995117188 426.5 c 0
 381.662109375 451.5 391.995117188 483.666992188 391.995117188 523 c 0
 391.995117188 555 383.495117188 579.5 366.495117188 596.5 c 0
 349.495117188 613.5 328.162109375 625 302.495117188 631 c 0
 276.828125 637 250.995117188 640 224.995117188 640 c 2
 184.995117188 640 l 2
 177.662109375 640 173.662109375 631.333007812 172.995117188 614 c 0
 172.328125 601.333007812 171.828125 585 171.495117188 565 c 0
 171.162109375 545 170.662109375 524 169.995117188 502 c 0
 169.328125 480 168.828125 459.166992188 168.495117188 439.5 c 0
 168.162109375 419.833007812 167.829101562 403.666015625 167.49609375 390.999023438 c 0
 167.163085938 378.33203125 166.99609375 371.33203125 166.99609375 369.999023438 c 0
EndSplineSet
Validated: 1
EndChar

StartChar: S
Encoding: 83 83 52
Width: 484
GlyphClass: 1
Flags: W
LayerCount: 2
Fore
SplineSet
451 606 m 1
 388.002929688 550.000976562 l 1
 375.002929688 553.000976562 l 1
 366.3359375 586.333984375 352.3359375 613.333984375 333.002929688 634.000976562 c 0
 313.669921875 654.66796875 287.002929688 665.000976562 253.002929688 665.000976562 c 0
 221.002929688 665.000976562 194.502929688 653.500976562 173.502929688 630.500976562 c 0
 152.502929688 607.500976562 142.002929688 579.66796875 142.002929688 547.000976562 c 0
 142.002929688 521.000976562 149.3359375 498.333984375 164.002929688 479.000976562 c 0
 178.669921875 459.66796875 197.669921875 442.66796875 221.002929688 428.000976562 c 0
 244.3359375 413.333984375 269.002929688 400.333984375 295.002929688 389.000976562 c 0
 347.669921875 366.333984375 387.336914062 340.666992188 414.00390625 312 c 0
 440.670898438 283.333007812 454.00390625 249 454.00390625 209 c 0
 454.00390625 176.333007812 445.836914062 146.166015625 429.50390625 118.499023438 c 0
 413.170898438 90.83203125 391.670898438 67.1650390625 365.00390625 47.498046875 c 0
 338.336914062 27.8310546875 309.00390625 12.498046875 277.00390625 1.498046875 c 0
 245.00390625 -9.501953125 213.00390625 -15.001953125 181.00390625 -15.001953125 c 0
 146.336914062 -15.001953125 113.669921875 -7.1689453125 83.0029296875 8.498046875 c 0
 52.3359375 24.1650390625 30.0029296875 50.33203125 16.0029296875 86.9990234375 c 1
 73.0029296875 152.999023438 l 1
 90.0029296875 151.999023438 l 1
 100.669921875 117.33203125 116.669921875 88.4990234375 138.002929688 65.4990234375 c 0
 159.3359375 42.4990234375 187.668945312 30.9990234375 223.001953125 30.9990234375 c 0
 249.001953125 30.9990234375 272.834960938 37.4990234375 294.501953125 50.4990234375 c 0
 316.168945312 63.4990234375 333.501953125 80.9990234375 346.501953125 102.999023438 c 0
 359.501953125 124.999023438 366.001953125 149.999023438 366.001953125 177.999023438 c 0
 366.001953125 196.666015625 360.168945312 214.833007812 348.501953125 232.5 c 0
 336.834960938 250.166992188 321.66796875 266 303.000976562 280 c 0
 284.333984375 294 265.000976562 305.333007812 245.000976562 314 c 0
 205.000976562 331.333007812 171.333984375 349 144.000976562 367 c 0
 116.66796875 385 96.16796875 405.5 82.5009765625 428.5 c 0
 68.833984375 451.5 62.0009765625 479.333007812 62.0009765625 512 c 0
 62.0009765625 554 72.16796875 589 92.5009765625 617 c 0
 112.833984375 645 139.166992188 666.166992188 171.5 680.5 c 0
 203.833007812 694.833007812 238 702 274 702 c 0
 298.666992188 702 321.666992188 699.833007812 343 695.5 c 0
 364.333007812 691.166992188 384 682.166992188 402 668.5 c 0
 420 654.833007812 436.333007812 634 451 606 c 1
EndSplineSet
Validated: 1
EndChar

StartChar: T
Encoding: 84 84 53
Width: 551
GlyphClass: 1
Flags: W
LayerCount: 2
Fore
SplineSet
543 696 m 1
 548.999023438 689 l 1
 548.999023438 641 l 1
 540.999023438 634 l 1
 498.999023438 636 465.33203125 637.666992188 439.999023438 639 c 0
 414.666015625 640.333007812 394.999023438 641.333007812 380.999023438 642 c 2
 349.499023438 643.5 l 2
 342.499023438 643.833007812 336.33203125 644 330.999023438 644 c 0
 324.33203125 644 320.499023438 624.833007812 319.499023438 586.5 c 0
 318.499023438 548.166992188 317.999023438 498.666992188 317.999023438 438 c 0
 317.999023438 398 318.666015625 353 319.999023438 303 c 0
 321.33203125 253 322.999023438 203 324.999023438 153 c 0
 326.999023438 103 328.999023438 57.6669921875 330.999023438 17 c 1
 230.999023438 -10 l 1
 221.999023438 -1 l 1
 225.999023438 62.3330078125 229.166015625 125.833007812 231.499023438 189.5 c 0
 233.83203125 253.166992188 234.999023438 316.666992188 234.999023438 380 c 2
 234.999023438 450 l 2
 234.999023438 476 234.83203125 501.833007812 234.499023438 527.5 c 0
 234.166015625 553.166992188 233.833007812 575.833984375 233.5 595.500976562 c 0
 233.166992188 615.16796875 233 628.66796875 233 636.000976562 c 0
 233 640.000976562 230 642.000976562 224 642.000976562 c 0
 212 642.000976562 187.166992188 641.333984375 149.5 640.000976562 c 0
 111.833007812 638.66796875 65.3330078125 637.000976562 10 635.000976562 c 1
 2 642.000976562 l 1
 2 690.000976562 l 1
 9 697.000976562 l 1
 28.3330078125 696.333984375 44.5 695.500976562 57.5 694.500976562 c 0
 70.5 693.500976562 83 692.500976562 95 691.500976562 c 0
 107 690.500976562 120.666992188 689.66796875 136 689.000976562 c 0
 151.333007812 688.333984375 170.5 687.666992188 193.5 687 c 0
 216.5 686.333007812 245.666992188 686 281 686 c 0
 318.333007812 686 360.333007812 687.166992188 407 689.5 c 0
 453.666992188 691.833007812 499 694 543 696 c 1
EndSplineSet
Validated: 1
EndChar

StartChar: U
Encoding: 85 85 54
Width: 712
GlyphClass: 2
Flags: W
AnchorPoint: "Anchor-10" 356 0 basechar 0
AnchorPoint: "Anchor-9" 367 683 basechar 0
LayerCount: 2
Fore
SplineSet
183 674 m 2
 182.333007812 670.666992188 181.501953125 662.8359375 180.501953125 650.502929688 c 0
 179.501953125 638.169921875 178.668945312 624.336914062 178.001953125 609.00390625 c 0
 177.334960938 593.670898438 176.66796875 579.670898438 176.000976562 567.00390625 c 0
 175.333984375 554.336914062 175.000976562 546.00390625 175.000976562 542.00390625 c 2
 167.000976562 269.00390625 l 2
 167.000976562 213.00390625 175.000976562 169.336914062 191.000976562 138.00390625 c 0
 207.000976562 106.670898438 228.333984375 84.50390625 255.000976562 71.50390625 c 0
 281.66796875 58.50390625 311.000976562 52.00390625 343.000976562 52.00390625 c 0
 374.333984375 52.00390625 404.833984375 57.8369140625 434.500976562 69.50390625 c 0
 464.16796875 81.1708984375 492.334960938 95.00390625 519.001953125 111.00390625 c 1
 519.001953125 202.336914062 519.501953125 293.836914062 520.501953125 385.50390625 c 0
 521.501953125 477.170898438 522.334960938 568.337890625 523.001953125 659.004882812 c 1
 611.001953125 694.004882812 l 1
 617.001953125 687.004882812 l 1
 613.001953125 658.337890625 610.001953125 624.670898438 608.001953125 586.00390625 c 0
 606.001953125 547.336914062 604.501953125 506.169921875 603.501953125 462.502929688 c 0
 602.501953125 418.8359375 601.834960938 374.668945312 601.501953125 330.001953125 c 0
 601.168945312 285.334960938 601.001953125 242.66796875 601.001953125 202.000976562 c 0
 601.001953125 174.66796875 601.668945312 149.334960938 603.001953125 126.001953125 c 0
 604.334960938 102.668945312 608.334960938 83.8359375 615.001953125 69.5029296875 c 0
 621.668945312 55.169921875 633.001953125 48.0029296875 649.001953125 48.0029296875 c 0
 659.001953125 48.0029296875 668.668945312 49.169921875 678.001953125 51.5029296875 c 0
 687.334960938 53.8359375 697.001953125 55.3359375 707.001953125 56.0029296875 c 1
 711.001953125 39.0029296875 l 1
 706.001953125 32.0029296875 l 1
 689.334960938 26.669921875 671.001953125 21.169921875 651.001953125 15.5029296875 c 0
 631.001953125 9.8359375 612.334960938 5.0029296875 595.001953125 1.0029296875 c 0
 577.668945312 -2.9970703125 563.668945312 -4.9970703125 553.001953125 -4.9970703125 c 0
 540.334960938 -4.9970703125 531.66796875 -1.330078125 527.000976562 6.0029296875 c 0
 522.333984375 13.3359375 520.000976562 22.3359375 520.000976562 33.0029296875 c 2
 520.000976562 64.0029296875 l 1
 512.000976562 70.0029296875 l 1
 477.333984375 47.3359375 440.166992188 28.5029296875 400.5 13.5029296875 c 0
 360.833007812 -1.4970703125 320.333007812 -8.9970703125 279 -8.9970703125 c 0
 233 -8.9970703125 197.333007812 -1.830078125 172 12.5029296875 c 0
 146.666992188 26.8359375 128.5 44.6689453125 117.5 66.001953125 c 0
 106.5 87.3349609375 99 107.66796875 95 127.000976562 c 0
 91.6669921875 150.333984375 89.5 178.666992188 88.5 212 c 0
 87.5 245.333007812 87 277.333007812 87 308 c 0
 87 346.666992188 87.3330078125 385.666992188 88 425 c 0
 88.6669921875 464.333007812 89 503.333007812 89 542 c 2
 89 601 l 2
 89 611 85.1669921875 619.333007812 77.5 626 c 0
 69.8330078125 632.666992188 60.666015625 638 49.9990234375 642 c 0
 39.33203125 646 29.33203125 648.833007812 19.9990234375 650.5 c 0
 10.666015625 652.166992188 4.3330078125 653 1 653 c 2
 -1 673 l 1
 7 680 l 1
 176 680 l 1
 183 674 l 2
EndSplineSet
Validated: 1
EndChar

StartChar: V
Encoding: 86 86 55
Width: 707
GlyphClass: 1
Flags: W
LayerCount: 2
Fore
SplineSet
614 680 m 1
 699.998046875 696.999023438 l 1
 705.998046875 677.999023438 l 1
 689.998046875 657.999023438 674.331054688 636.999023438 658.998046875 614.999023438 c 0
 643.665039062 592.999023438 629.665039062 571.83203125 616.998046875 551.499023438 c 0
 604.331054688 531.166015625 593.6640625 513.499023438 584.997070312 498.499023438 c 0
 576.330078125 483.499023438 570.330078125 473.33203125 566.997070312 467.999023438 c 0
 530.997070312 401.33203125 495.497070312 328.999023438 460.497070312 250.999023438 c 0
 425.497070312 172.999023438 393.6640625 92.666015625 364.997070312 9.9990234375 c 1
 296.997070312 -16.0009765625 l 1
 286.997070312 -9.0009765625 l 1
 143.997070312 472.999023438 l 2
 136.6640625 496.33203125 129.331054688 519.33203125 121.998046875 541.999023438 c 0
 114.665039062 564.666015625 105.998046875 586.999023438 95.998046875 608.999023438 c 0
 87.998046875 625.666015625 77.1650390625 636.499023438 63.498046875 641.499023438 c 0
 49.8310546875 646.499023438 28.998046875 650.999023438 0.998046875 654.999023438 c 1
 -0.001953125 681.999023438 l 1
 6.998046875 687.999023438 l 1
 181.998046875 697.999023438 l 1
 221.331054688 505.999023438 276.331054688 319.33203125 346.998046875 137.999023438 c 0
 348.331054688 135.999023438 349.831054688 134.499023438 351.498046875 133.499023438 c 0
 353.165039062 132.499023438 354.33203125 131.666015625 354.999023438 130.999023438 c 0
 358.33203125 132.33203125 365.83203125 145.33203125 377.499023438 169.999023438 c 0
 389.166015625 194.666015625 405.333007812 229.333007812 426 274 c 2
 545 548 l 2
 554.333007812 570.666992188 565 593 577 615 c 0
 589 637 601.333007812 658.666992188 614 680 c 1
EndSplineSet
Validated: 1
EndChar

StartChar: W
Encoding: 87 87 56
Width: 1050
GlyphClass: 1
Flags: W
LayerCount: 2
Fore
SplineSet
965 675 m 1
 1046.00097656 689.004882812 l 1
 1046.00097656 668.004882812 l 1
 931.000976562 480.004882812 l 2
 919.000976562 460.671875 903.66796875 433.171875 885.000976562 397.504882812 c 0
 866.333984375 361.837890625 846.000976562 322.004882812 824.000976562 278.004882812 c 0
 802.000976562 234.004882812 780.333984375 189.171875 759.000976562 143.504882812 c 0
 737.66796875 97.837890625 719.000976562 55.337890625 703.000976562 16.0048828125 c 1
 643.000976562 -10.9951171875 l 1
 631.000976562 -2.9951171875 l 1
 615.000976562 87.671875 597.833984375 177.838867188 579.500976562 267.505859375 c 0
 561.16796875 357.172851562 542.000976562 446.672851562 522.000976562 536.005859375 c 2
 520.000976562 544.005859375 l 2
 519.333984375 546.672851562 517.666992188 548.005859375 515 548.005859375 c 0
 513.666992188 548.005859375 512.166992188 546.672851562 510.5 544.005859375 c 0
 508.833007812 541.338867188 507.333007812 538.671875 506 536.004882812 c 2
 478 473.004882812 l 2
 460 433.004882812 439.833007812 387.504882812 417.5 336.504882812 c 0
 395.166992188 285.504882812 373.333984375 232.671875 352.000976562 178.004882812 c 0
 330.66796875 123.337890625 312.000976562 70.0048828125 296.000976562 18.0048828125 c 1
 232.000976562 -10.9951171875 l 1
 221.000976562 -5.9951171875 l 1
 209.66796875 58.0048828125 197.66796875 121.837890625 185.000976562 185.504882812 c 0
 172.333984375 249.171875 158.333984375 312.338867188 143.000976562 375.005859375 c 0
 133.000976562 415.672851562 122.66796875 456.005859375 112.000976562 496.005859375 c 0
 101.333984375 536.005859375 88.333984375 575.338867188 73.0009765625 614.005859375 c 0
 67.66796875 628.005859375 58.16796875 637.672851562 44.5009765625 643.005859375 c 0
 30.833984375 648.338867188 16.333984375 652.338867188 1.0009765625 655.005859375 c 1
 -0.9990234375 679.005859375 l 1
 7.0009765625 686.005859375 l 1
 163.000976562 689.005859375 l 1
 166.333984375 673.005859375 171.000976562 650.172851562 177.000976562 620.505859375 c 0
 183.000976562 590.838867188 190.000976562 557.171875 198.000976562 519.504882812 c 0
 206.000976562 481.837890625 214.500976562 442.170898438 223.500976562 400.50390625 c 0
 232.500976562 358.836914062 241.500976562 317.669921875 250.500976562 277.002929688 c 0
 259.500976562 236.3359375 268.000976562 198.3359375 276.000976562 163.002929688 c 0
 276.66796875 159.002929688 279.000976562 157.002929688 283.000976562 157.002929688 c 0
 286.333984375 157.002929688 288.666992188 158.3359375 290 161.002929688 c 0
 298.666992188 177.669921875 310.166992188 201.502929688 324.5 232.502929688 c 0
 338.833007812 263.502929688 354.666015625 298.169921875 371.999023438 336.502929688 c 0
 389.33203125 374.8359375 406.83203125 414.168945312 424.499023438 454.501953125 c 0
 442.166015625 494.834960938 458.499023438 533.001953125 473.499023438 569.001953125 c 0
 488.499023438 605.001953125 500.33203125 635.668945312 508.999023438 661.001953125 c 1
 584.999023438 690.001953125 l 1
 591.999023438 684.001953125 l 1
 591.999023438 663.334960938 594.999023438 634.16796875 600.999023438 596.500976562 c 0
 606.999023438 558.833984375 614.83203125 516.333984375 624.499023438 469.000976562 c 0
 634.166015625 421.66796875 643.999023438 373.66796875 653.999023438 325.000976562 c 0
 657.33203125 311.000976562 660.83203125 293.66796875 664.499023438 273.000976562 c 0
 668.166015625 252.333984375 672.166015625 231.833984375 676.499023438 211.500976562 c 0
 680.83203125 191.16796875 685.165039062 174.000976562 689.498046875 160.000976562 c 0
 693.831054688 146.000976562 698.331054688 139.000976562 702.998046875 139.000976562 c 0
 707.665039062 139.000976562 710.83203125 139.833984375 712.499023438 141.500976562 c 0
 714.166015625 143.16796875 715.333007812 144.66796875 716 146.000976562 c 2
 796 316.000976562 l 1
 905 558.000976562 l 2
 915.666992188 581.333984375 926.166992188 602.666992188 936.5 622 c 0
 946.833007812 641.333007812 956.333007812 659 965 675 c 1
EndSplineSet
Validated: 1
EndChar

StartChar: X
Encoding: 88 88 57
Width: 624
GlyphClass: 1
Flags: W
LayerCount: 2
Fore
SplineSet
612 687 m 1
 612.000976562 671.99609375 l 1
 425.000976562 465.99609375 l 2
 415.000976562 454.663085938 405.16796875 442.663085938 395.500976562 429.99609375 c 0
 385.833984375 417.329101562 377.500976562 406.49609375 370.500976562 397.49609375 c 0
 363.500976562 388.49609375 359.333984375 382.663085938 358.000976562 379.99609375 c 0
 358.000976562 377.329101562 362.16796875 368.829101562 370.500976562 354.49609375 c 0
 378.833984375 340.163085938 389.333984375 322.49609375 402.000976562 301.49609375 c 0
 414.66796875 280.49609375 428.16796875 258.663085938 442.500976562 235.99609375 c 0
 456.833984375 213.329101562 470.333984375 192.49609375 483.000976562 173.49609375 c 0
 495.66796875 154.49609375 506.000976562 140.329101562 514.000976562 130.99609375 c 2
 574.000976562 58.99609375 l 2
 577.333984375 55.6630859375 583.333984375 51.330078125 592.000976562 45.9970703125 c 0
 600.66796875 40.6640625 607.000976562 37.3310546875 611.000976562 35.998046875 c 2
 616.000976562 31.998046875 l 1
 616.000976562 15.998046875 l 1
 506.000976562 -11.001953125 l 1
 492.000976562 -5.001953125 l 1
 483.333984375 4.3310546875 475.166992188 14.3310546875 467.5 24.998046875 c 0
 459.833007812 35.6650390625 452.666015625 46.33203125 445.999023438 56.9990234375 c 2
 302.999023438 295.999023438 l 1
 290.999023438 295.999023438 l 1
 280.33203125 283.33203125 266.165039062 264.999023438 248.498046875 240.999023438 c 0
 230.831054688 216.999023438 212.331054688 190.83203125 192.998046875 162.499023438 c 0
 173.665039062 134.166015625 155.83203125 106.666015625 139.499023438 79.9990234375 c 0
 123.166015625 53.33203125 110.333007812 30.33203125 101 10.9990234375 c 1
 7 -0.0009765625 l 1
 7 15.9990234375 l 1
 278 344.999023438 l 1
 277.333007812 344.999023438 273.333007812 350.666015625 266 361.999023438 c 0
 258.666992188 373.33203125 249.5 388.499023438 238.5 407.499023438 c 0
 227.5 426.499023438 215.666992188 446.83203125 203 468.499023438 c 0
 190.333007812 490.166015625 177.833007812 511.666015625 165.5 532.999023438 c 0
 153.166992188 554.33203125 142.333984375 573.33203125 133.000976562 589.999023438 c 0
 122.333984375 609.33203125 107.333984375 622.665039062 88.0009765625 629.998046875 c 0
 68.66796875 637.331054688 48.66796875 643.6640625 28.0009765625 648.997070312 c 1
 28.0009765625 673.997070312 l 1
 35.0009765625 679.997070312 l 1
 43.66796875 680.6640625 56.66796875 681.331054688 74.0009765625 681.998046875 c 0
 91.333984375 682.665039062 109.833984375 683.665039062 129.500976562 684.998046875 c 0
 149.16796875 686.331054688 166.334960938 687.331054688 181.001953125 687.998046875 c 1
 328.001953125 421.998046875 l 1
 337.001953125 421.998046875 l 1
 343.668945312 428.665039062 353.668945312 440.83203125 367.001953125 458.499023438 c 0
 380.334960938 476.166015625 395.16796875 496.333007812 411.500976562 519 c 0
 427.833984375 541.666992188 443.666992188 564 459 586 c 0
 474.333007812 608 487.333007812 627.166992188 498 643.5 c 0
 508.666992188 659.833007812 515 670 517 674 c 2
 612 687 l 1
EndSplineSet
Validated: 1
EndChar

StartChar: Y
Encoding: 89 89 58
Width: 592
GlyphClass: 2
Flags: W
AnchorPoint: "Anchor-10" 296 0 basechar 0
AnchorPoint: "Anchor-9" 336 683 basechar 0
LayerCount: 2
Fore
SplineSet
231 -2 m 1
 232.333007812 48 233.165039062 98.1708984375 233.498046875 148.50390625 c 0
 233.831054688 198.836914062 233.998046875 249.00390625 233.998046875 299.00390625 c 1
 84.998046875 594.00390625 l 2
 73.6650390625 616.670898438 61.498046875 631.170898438 48.498046875 637.50390625 c 0
 35.498046875 643.836914062 18.998046875 648.336914062 -1.001953125 651.00390625 c 1
 -1.001953125 679.00390625 l 1
 5.998046875 686.00390625 l 1
 150.998046875 686.00390625 l 1
 291.998046875 361.00390625 l 1
 296.498046875 356.50390625 l 2
 298.831054688 354.170898438 301.331054688 353.00390625 303.998046875 353.00390625 c 0
 305.998046875 353.00390625 310.665039062 358.170898438 317.998046875 368.50390625 c 0
 325.331054688 378.836914062 333.998046875 392.169921875 343.998046875 408.502929688 c 0
 353.998046875 424.8359375 363.998046875 442.002929688 373.998046875 460.002929688 c 0
 375.998046875 463.3359375 381.998046875 473.668945312 391.998046875 491.001953125 c 0
 401.998046875 508.334960938 413.831054688 528.66796875 427.498046875 552.000976562 c 0
 441.165039062 575.333984375 454.83203125 598.333984375 468.499023438 621.000976562 c 0
 482.166015625 643.66796875 493.333007812 662.000976562 502 676.000976562 c 1
 587 693.000976562 l 1
 591 675.000976562 l 1
 554.333007812 627.000976562 520.833007812 583.000976562 490.5 543.000976562 c 0
 460.166992188 503.000976562 431.666992188 464.16796875 405 426.500976562 c 0
 378.333007812 388.833984375 351 348.666992188 323 306 c 1
 332 18 l 1
 242 -11 l 1
 231 -2 l 1
EndSplineSet
Validated: 1
EndChar

StartChar: Z
Encoding: 90 90 59
Width: 603
GlyphClass: 1
Flags: W
LayerCount: 2
Fore
SplineSet
552 683 m 1
 552 664.001953125 l 1
 518 616.001953125 482.5 564.168945312 445.5 508.501953125 c 0
 408.5 452.834960938 371.833007812 397.334960938 335.5 342.001953125 c 0
 299.166992188 286.668945312 265.333984375 234.668945312 234.000976562 186.001953125 c 0
 202.66796875 137.334960938 175.66796875 95.66796875 153.000976562 61.0009765625 c 1
 159.000976562 68.0009765625 l 1
 588.000976562 68.0009765625 l 1
 597.000976562 59.0009765625 l 1
 579.000976562 -11.9990234375 l 1
 547.000976562 -8.666015625 508.16796875 -6.3330078125 462.500976562 -5 c 0
 416.833984375 -3.6669921875 367.666992188 -2.5 315 -1.5 c 0
 262.333007812 -0.5 209.333007812 0 156 0 c 2
 4 0 l 1
 3 21 l 1
 427 627 l 1
 420 637 l 1
 326.666992188 637 254 635.833007812 202 633.5 c 0
 150 631.166992188 117.333007812 629.333984375 104 628.000976562 c 1
 98 633.000976562 l 1
 98 687.000976562 l 1
 107 695.000976562 l 1
 181 690.333984375 255 687.166992188 329 685.5 c 0
 403 683.833007812 477.333007812 683 552 683 c 1
EndSplineSet
Validated: 1
EndChar

StartChar: bracketleft
Encoding: 91 91 60
Width: 258
GlyphClass: 1
Flags: W
LayerCount: 2
Fore
SplineSet
247 736 m 1
 247.000976562 712 l 1
 128.000976562 699 l 1
 128.000976562 -83 l 1
 247.000976562 -96 l 1
 247.000976562 -120 l 1
 220.333984375 -120 193.666992188 -120.166992188 167 -120.5 c 0
 140.333007812 -120.833007812 114 -122.333007812 88 -125 c 1
 88 741 l 1
 107.333007812 738.333007812 132 736.833007812 162 736.5 c 0
 192 736.166992188 220.333007812 736 247 736 c 1
EndSplineSet
Validated: 1
Substitution2: "'locl' Localized Forms in Latin lookup 98 subtable" bracketleft.locl
EndChar

StartChar: backslash
Encoding: 92 92 61
Width: 390
GlyphClass: 1
Flags: W
LayerCount: 2
Fore
SplineSet
404 -184 m 1
 372 -192 l 1
 -17 704 l 1
 -12 715 l 1
 19 722 l 1
 407 -171 l 1
 404 -184 l 1
EndSplineSet
Validated: 1
EndChar

StartChar: bracketright
Encoding: 93 93 62
Width: 258
GlyphClass: 1
Flags: W
LayerCount: 2
Fore
SplineSet
130 -83 m 1
 129.999023438 699 l 1
 10.9990234375 712 l 1
 10.9990234375 736 l 1
 38.33203125 736 66.83203125 736.166992188 96.4990234375 736.5 c 0
 126.166015625 736.833007812 150.666015625 738.333007812 169.999023438 741 c 1
 169.999023438 -125 l 1
 143.999023438 -122.333007812 117.83203125 -120.833007812 91.4990234375 -120.5 c 0
 65.166015625 -120.166992188 38.3330078125 -120 11 -120 c 1
 11 -96 l 1
 130 -83 l 1
EndSplineSet
Validated: 1
Substitution2: "'locl' Localized Forms in Latin lookup 98 subtable" bracketright.locl
EndChar

StartChar: asciicircum
Encoding: 94 94 63
AltUni2: 0002c6.ffffffff.0 0002c6.ffffffff.0
Width: 500
GlyphClass: 1
Flags: W
LayerCount: 2
Fore
SplineSet
103 511 m 5
 272 692 l 5
 429 532 l 5
 390 506 l 5
 269 630 l 5
 126 499 l 5
 103 511 l 5
EndSplineSet
Validated: 1
EndChar

StartChar: underscore
Encoding: 95 95 64
Width: 756
GlyphClass: 1
Flags: W
LayerCount: 2
Fore
SplineSet
756 -74 m 1
 756 -114 l 1
 0 -114 l 1
 0 -74 l 1
 756 -74 l 1
EndSplineSet
Validated: 1
EndChar

StartChar: grave
Encoding: 96 96 65
Width: 520
GlyphClass: 1
Flags: W
LayerCount: 2
Fore
SplineSet
70 665 m 1
 117 701 l 1
 130 699 l 1
 250 542 l 1
 232 511 l 1
 70 665 l 1
EndSplineSet
Validated: 1
EndChar

StartChar: a
Encoding: 97 97 66
Width: 548
GlyphClass: 2
Flags: W
AnchorPoint: "Anchor-10" 274 0 basechar 0
AnchorPoint: "Anchor-9" 274 500 basechar 0
LayerCount: 2
Fore
SplineSet
278 466 m 0
 294 466 311.831054688 463.000976562 331.498046875 457.000976562 c 0
 351.165039062 451.000976562 368.998046875 442.333984375 384.998046875 431.000976562 c 1
 437.998046875 462.000976562 l 1
 442.998046875 457.000976562 l 1
 438.998046875 384.333984375 436.998046875 311.666992188 436.998046875 239 c 0
 436.998046875 223.666992188 436.498046875 205.333984375 435.498046875 184.000976562 c 0
 434.498046875 162.66796875 434.665039062 142.000976562 435.998046875 122.000976562 c 0
 437.331054688 102.000976562 440.998046875 85.333984375 446.998046875 72.0009765625 c 0
 452.998046875 58.66796875 462.665039062 52.0009765625 475.998046875 52.0009765625 c 0
 483.331054688 52.0009765625 493.331054688 54.0009765625 505.998046875 58.0009765625 c 0
 518.665039062 62.0009765625 530.33203125 66.0009765625 540.999023438 70.0009765625 c 1
 547.999023438 46.0009765625 l 1
 534.666015625 38.0009765625 520.333007812 29.5009765625 505 20.5009765625 c 0
 489.666992188 11.5009765625 474.666992188 3.833984375 460 -2.4990234375 c 0
 445.333007812 -8.83203125 432.666015625 -11.9990234375 421.999023438 -11.9990234375 c 0
 403.33203125 -11.9990234375 389.999023438 -6.33203125 381.999023438 5.0009765625 c 0
 373.999023438 16.333984375 368.33203125 30.333984375 364.999023438 47.0009765625 c 1
 349.999023438 51.0009765625 l 1
 325.33203125 35.0009765625 299.33203125 20.5009765625 271.999023438 7.5009765625 c 0
 244.666015625 -5.4990234375 216.333007812 -11.9990234375 187 -11.9990234375 c 0
 159 -11.9990234375 135.666992188 -5.9990234375 117 6.0009765625 c 0
 98.3330078125 18.0009765625 83.3330078125 33.66796875 72 53.0009765625 c 0
 60.6669921875 72.333984375 52.5 93.5009765625 47.5 116.500976562 c 0
 42.5 139.500976562 40 162.333984375 40 185.000976562 c 0
 40 220.333984375 44.5 254.666992188 53.5 288 c 0
 62.5 321.333007812 76.5 351.5 95.5 378.5 c 0
 114.5 405.5 139 426.833007812 169 442.5 c 0
 199 458.166992188 235.333007812 466 278 466 c 0
256.998046875 54.0009765625 m 0
 276.331054688 54.0009765625 295.166015625 58.671875 313.499023438 68.0048828125 c 0
 331.83203125 77.337890625 348.33203125 87.6708984375 362.999023438 99.00390625 c 1
 362.999023438 329.00390625 l 2
 362.999023438 342.336914062 362.33203125 355.00390625 360.999023438 367.00390625 c 0
 359.666015625 379.00390625 354.999023438 389.336914062 346.999023438 398.00390625 c 0
 338.33203125 407.336914062 327.999023438 415.169921875 315.999023438 421.502929688 c 0
 303.999023438 427.8359375 291.666015625 431.002929688 278.999023438 431.002929688 c 0
 242.33203125 431.002929688 210.665039062 418.3359375 183.998046875 393.002929688 c 0
 172.665039062 382.3359375 161.165039062 362.668945312 149.498046875 334.001953125 c 0
 137.831054688 305.334960938 131.331054688 265.66796875 129.998046875 215.000976562 c 0
 129.331054688 194.333984375 130.998046875 173.500976562 134.998046875 152.500976562 c 0
 138.998046875 131.500976562 146.665039062 112.333984375 157.998046875 95.0009765625 c 0
 168.665039062 78.333984375 183.165039062 67.333984375 201.498046875 62.0009765625 c 0
 219.831054688 56.66796875 238.331054688 54.0009765625 256.998046875 54.0009765625 c 0
EndSplineSet
Validated: 33
EndChar

StartChar: b
Encoding: 98 98 67
Width: 522
GlyphClass: 1
Flags: W
LayerCount: 2
Fore
SplineSet
-14 640 m 1
 -14.001953125 660.999023438 l 1
 -8.001953125 665.999023438 l 1
 160.998046875 683.999023438 l 1
 166.998046875 676.999023438 l 1
 162.998046875 636.33203125 159.665039062 595.665039062 156.998046875 554.998046875 c 0
 154.331054688 514.331054688 152.998046875 473.331054688 152.998046875 431.998046875 c 2
 152.998046875 398.998046875 l 1
 161.998046875 393.998046875 l 1
 188.665039062 413.998046875 216.665039062 431.331054688 245.998046875 445.998046875 c 0
 275.331054688 460.665039062 306.998046875 467.998046875 340.998046875 467.998046875 c 0
 372.331054688 467.998046875 398.331054688 460.498046875 418.998046875 445.498046875 c 0
 439.665039062 430.498046875 455.33203125 410.831054688 465.999023438 386.498046875 c 0
 476.666015625 362.165039062 481.999023438 335.998046875 481.999023438 307.998046875 c 0
 481.999023438 285.998046875 480.666015625 263.998046875 477.999023438 241.998046875 c 0
 475.33203125 219.998046875 470.33203125 198.331054688 462.999023438 176.998046875 c 0
 451.666015625 141.665039062 432.166015625 109.83203125 404.499023438 81.4990234375 c 0
 376.83203125 53.166015625 344.83203125 30.8330078125 308.499023438 14.5 c 0
 272.166015625 -1.8330078125 234.999023438 -10 196.999023438 -10 c 0
 180.33203125 -10 162.83203125 -6.6669921875 144.499023438 0 c 0
 126.166015625 6.6669921875 110.833007812 19.6669921875 98.5 39 c 0
 86.1669921875 58.3330078125 80 86.3330078125 80 123 c 2
 80 599 l 2
 80 611 78.1669921875 619 74.5 623 c 0
 70.8330078125 627 62.3330078125 629.833007812 49 631.5 c 0
 35.6669921875 633.166992188 14.6669921875 636 -14 640 c 1
156.998046875 346.999023438 m 1
 156.331054688 330.33203125 155.497070312 311.329101562 154.497070312 289.99609375 c 0
 153.497070312 268.663085938 152.997070312 248.330078125 152.997070312 228.997070312 c 0
 152.997070312 191.6640625 155.1640625 158.497070312 159.497070312 129.497070312 c 0
 163.830078125 100.497070312 172.997070312 77.9970703125 186.997070312 61.9970703125 c 0
 200.997070312 45.9970703125 222.6640625 37.9970703125 251.997070312 37.9970703125 c 0
 287.330078125 37.9970703125 315.830078125 47.330078125 337.497070312 65.9970703125 c 0
 359.1640625 84.6640625 374.831054688 108.497070312 384.498046875 137.497070312 c 0
 394.165039062 166.497070312 398.998046875 196.330078125 398.998046875 226.997070312 c 0
 398.998046875 263.6640625 395.831054688 292.831054688 389.498046875 314.498046875 c 0
 383.165039062 336.165039062 376.33203125 352.33203125 368.999023438 362.999023438 c 0
 362.33203125 372.999023438 352.999023438 382.666015625 340.999023438 391.999023438 c 0
 328.999023438 401.33203125 313.33203125 405.999023438 293.999023438 405.999023438 c 0
 267.33203125 405.999023438 242.665039062 400.499023438 219.998046875 389.499023438 c 0
 197.331054688 378.499023438 176.331054688 364.33203125 156.998046875 346.999023438 c 1
EndSplineSet
Validated: 1
EndChar

StartChar: c
Encoding: 99 99 68
Width: 455
GlyphClass: 2
Flags: W
AnchorPoint: "Anchor-10" 252 -10 basechar 0
AnchorPoint: "Anchor-9" 232 462 basechar 0
LayerCount: 2
Fore
SplineSet
425 116 m 1
 434.000976562 113.997070312 l 1
 445.000976562 95.9970703125 l 1
 414.333984375 65.330078125 380.500976562 38.4970703125 343.500976562 15.4970703125 c 0
 306.500976562 -7.5029296875 265.66796875 -19.0029296875 221.000976562 -19.0029296875 c 0
 180.333984375 -19.0029296875 148.333984375 -11.5029296875 125.000976562 3.4970703125 c 0
 101.66796875 18.4970703125 84.5009765625 37.9970703125 73.5009765625 61.9970703125 c 0
 62.5009765625 85.9970703125 55.5009765625 111.6640625 52.5009765625 138.997070312 c 0
 49.5009765625 166.330078125 48.0009765625 192.330078125 48.0009765625 216.997070312 c 0
 48.0009765625 266.997070312 58.833984375 311.497070312 80.5009765625 350.497070312 c 0
 102.16796875 389.497070312 132.000976562 419.997070312 170.000976562 441.997070312 c 0
 208.000976562 463.997070312 251.66796875 474.997070312 301.000976562 474.997070312 c 0
 333.66796875 474.997070312 360.500976562 465.830078125 381.500976562 447.497070312 c 0
 402.500976562 429.1640625 414.333984375 405.6640625 417.000976562 376.997070312 c 1
 363.000976562 323.997070312 l 1
 346.000976562 329.997070312 l 1
 341.333984375 363.330078125 331.333984375 389.330078125 316.000976562 407.997070312 c 0
 300.66796875 426.6640625 282.334960938 435.997070312 261.001953125 435.997070312 c 0
 233.001953125 435.997070312 209.334960938 426.497070312 190.001953125 407.497070312 c 0
 170.668945312 388.497070312 156.001953125 364.497070312 146.001953125 335.497070312 c 0
 136.001953125 306.497070312 131.001953125 277.330078125 131.001953125 247.997070312 c 0
 131.001953125 226.6640625 133.001953125 204.331054688 137.001953125 180.998046875 c 0
 141.001953125 157.665039062 148.001953125 135.83203125 158.001953125 115.499023438 c 0
 168.001953125 95.166015625 182.168945312 78.666015625 200.501953125 65.9990234375 c 0
 218.834960938 53.33203125 242.66796875 46.9990234375 272.000976562 46.9990234375 c 0
 301.333984375 46.9990234375 328.666992188 53.83203125 354 67.4990234375 c 0
 379.333007812 81.166015625 403 97.3330078125 425 116 c 1
EndSplineSet
Validated: 1
EndChar

StartChar: d
Encoding: 100 100 69
Width: 551
GlyphClass: 1
Flags: W
LayerCount: 2
Fore
SplineSet
269 638 m 1
 267.995117188 660 l 1
 272.995117188 664 l 1
 435.995117188 684 l 1
 443.995117188 675 l 1
 443.995117188 110 l 2
 445.328125 95.3330078125 448.328125 81.3330078125 452.995117188 68 c 0
 457.662109375 54.6669921875 467.329101562 48 481.99609375 48 c 0
 487.329101562 48 496.329101562 50.1669921875 508.99609375 54.5 c 0
 521.663085938 58.8330078125 532.99609375 63 542.99609375 67 c 1
 550.99609375 44 l 1
 531.663085938 30.6669921875 510.163085938 16.833984375 486.49609375 2.5009765625 c 0
 462.829101562 -11.83203125 441.329101562 -18.9990234375 421.99609375 -18.9990234375 c 0
 402.663085938 -18.9990234375 388.330078125 -11.166015625 378.997070312 4.5009765625 c 0
 369.6640625 20.16796875 364.331054688 36.66796875 362.998046875 54.0009765625 c 1
 337.665039062 36.66796875 309.665039062 20.3349609375 278.998046875 5.001953125 c 0
 248.331054688 -10.3310546875 218.331054688 -17.998046875 188.998046875 -17.998046875 c 0
 160.331054688 -17.998046875 136.498046875 -11.998046875 117.498046875 0.001953125 c 0
 98.498046875 12.001953125 83.3310546875 27.8349609375 71.998046875 47.501953125 c 0
 60.6650390625 67.1689453125 52.498046875 88.6689453125 47.498046875 112.001953125 c 0
 42.498046875 135.334960938 39.998046875 158.001953125 39.998046875 180.001953125 c 0
 39.998046875 215.334960938 44.8310546875 249.66796875 54.498046875 283.000976562 c 0
 64.1650390625 316.333984375 78.6650390625 346.500976562 97.998046875 373.500976562 c 0
 117.331054688 400.500976562 141.831054688 422.000976562 171.498046875 438.000976562 c 0
 201.165039062 454.000976562 236.33203125 462.000976562 276.999023438 462.000976562 c 0
 291.666015625 462.000976562 305.833007812 460.66796875 319.5 458.000976562 c 0
 333.166992188 455.333984375 346.666992188 451.666992188 360 447 c 1
 367 451 l 1
 367 469 366.833007812 488 366.5 508 c 0
 366.166992188 528 365.666992188 546.5 365 563.5 c 0
 364.333007812 580.5 362.666015625 593.333007812 359.999023438 602 c 0
 356.666015625 614 349.833007812 622.5 339.5 627.5 c 0
 329.166992188 632.5 317.666992188 635.5 305 636.5 c 0
 292.333007812 637.5 280.333007812 638 269 638 c 1
362.995117188 95 m 1
 366.995117188 309.999023438 l 2
 366.995117188 327.999023438 364.995117188 346.166015625 360.995117188 364.499023438 c 0
 356.995117188 382.83203125 348.328125 397.999023438 334.995117188 409.999023438 c 0
 321.662109375 421.999023438 300.995117188 427.999023438 272.995117188 427.999023438 c 0
 244.995117188 427.999023438 221.662109375 420.83203125 202.995117188 406.499023438 c 0
 184.328125 392.166015625 169.328125 373.666015625 157.995117188 350.999023438 c 0
 146.662109375 328.33203125 138.662109375 303.83203125 133.995117188 277.499023438 c 0
 129.328125 251.166015625 126.995117188 226.333007812 126.995117188 203 c 0
 126.995117188 179.666992188 130.662109375 156 137.995117188 132 c 0
 145.328125 108 157.495117188 88 174.495117188 72 c 0
 191.495117188 56 214.995117188 48 244.995117188 48 c 0
 262.328125 48 282.995117188 52.5 306.995117188 61.5 c 0
 330.995117188 70.5 349.662109375 81.6669921875 362.995117188 95 c 1
EndSplineSet
Validated: 1
EndChar

StartChar: e
Encoding: 101 101 70
Width: 462
GlyphClass: 2
Flags: W
AnchorPoint: "Anchor-10" 236 0 basechar 0
AnchorPoint: "Anchor-9" 256 462 basechar 0
LayerCount: 2
Fore
SplineSet
438 340 m 0
 438 334 435.834960938 329.66796875 431.501953125 327.000976562 c 0
 427.168945312 324.333984375 422.3359375 321.666992188 417.002929688 319 c 2
 135.002929688 197 l 1
 137.002929688 176.333007812 142.502929688 155 151.502929688 133 c 0
 160.502929688 111 174.169921875 92.6669921875 192.502929688 78 c 0
 210.8359375 63.3330078125 234.668945312 56 264.001953125 56 c 0
 291.334960938 56 318.16796875 63 344.500976562 77 c 0
 370.833984375 91 395.333984375 106.666992188 418.000976562 124 c 1
 429.000976562 122 l 1
 442.000976562 104 l 1
 421.333984375 84.6669921875 398.833984375 66.1669921875 374.500976562 48.5 c 0
 350.16796875 30.8330078125 324.500976562 16.3330078125 297.500976562 5 c 0
 270.500976562 -6.3330078125 242.66796875 -12 214.000976562 -12 c 0
 180.66796875 -12 153.16796875 -5 131.500976562 9 c 0
 109.833984375 23 93.0009765625 41.5 81.0009765625 64.5 c 0
 69.0009765625 87.5 60.5009765625 113.166992188 55.5009765625 141.5 c 0
 50.5009765625 169.833007812 48.0009765625 198 48.0009765625 226 c 0
 48.0009765625 255.333007812 51.66796875 284 59.0009765625 312 c 0
 66.333984375 340 79.6669921875 365.333007812 99 388 c 0
 123.666992188 416.666992188 153.166992188 438.833984375 187.5 454.500976562 c 0
 221.833007812 470.16796875 258 478.000976562 296 478.000976562 c 0
 339.333007812 478.000976562 373.833007812 464.66796875 399.5 438.000976562 c 0
 425.166992188 411.333984375 438 378.666992188 438 340 c 0
261.001953125 438.000976562 m 0
 244.334960938 438.000976562 228.8359375 434.333984375 214.502929688 427.000976562 c 0
 200.169921875 419.66796875 187.669921875 409.334960938 177.002929688 396.001953125 c 0
 157.669921875 375.334960938 145.169921875 353.66796875 139.502929688 331.000976562 c 0
 133.8359375 308.333984375 131.002929688 284.666992188 131.002929688 260 c 0
 131.002929688 257.333007812 131.169921875 254.5 131.502929688 251.5 c 0
 131.8359375 248.5 132.3359375 245.333007812 133.002929688 242 c 2
 137.002929688 238 l 1
 339.002929688 318 l 2
 342.3359375 319.333007812 345.3359375 322 348.002929688 326 c 0
 350.669921875 330 352.002929688 336 352.002929688 344 c 0
 352.002929688 358 348.3359375 372.333007812 341.002929688 387 c 0
 333.669921875 401.666992188 323.169921875 413.833984375 309.502929688 423.500976562 c 0
 295.8359375 433.16796875 279.668945312 438.000976562 261.001953125 438.000976562 c 0
EndSplineSet
Validated: 1
EndChar

StartChar: f
Encoding: 102 102 71
Width: 329
GlyphClass: 1
Flags: W
LayerCount: 2
Fore
SplineSet
3 428 m 1
 10 434.000976562 l 1
 115 434.000976562 l 1
 121 440.000976562 l 1
 121 457.333984375 122 477.500976562 124 500.500976562 c 0
 126 523.500976562 131 544.000976562 139 562.000976562 c 0
 154.333007812 597.333984375 175.833007812 624.000976562 203.5 642.000976562 c 0
 231.166992188 660.000976562 260.666992188 669.000976562 292 669.000976562 c 0
 319.333007812 669.000976562 340 663.333984375 354 652.000976562 c 0
 368 640.66796875 378.333007812 628.334960938 385 615.001953125 c 1
 327 561.001953125 l 1
 315 565.001953125 l 1
 313.666992188 572.334960938 311.5 581.001953125 308.5 591.001953125 c 0
 305.5 601.001953125 300.166992188 609.834960938 292.5 617.501953125 c 0
 284.833007812 625.168945312 273 629.001953125 257 629.001953125 c 0
 243 629.001953125 231.5 620.334960938 222.5 603.001953125 c 0
 213.5 585.668945312 207 562.668945312 203 534.001953125 c 0
 199 505.334960938 197 474.001953125 197 440.001953125 c 1
 201 434.001953125 l 1
 325 434.001953125 l 1
 330 427.001953125 l 1
 323 405.001953125 l 1
 316 399.001953125 l 1
 201 399.001953125 l 1
 195 393.001953125 l 1
 195 282.001953125 l 2
 195 235.334960938 195.833007812 188.834960938 197.5 142.501953125 c 0
 199.166992188 96.1689453125 201.666992188 52.6689453125 205 12.001953125 c 1
 126 -11.998046875 l 1
 109 -0.998046875 l 1
 112.333007812 48.3349609375 115.333007812 96.66796875 118 144.000976562 c 0
 120.666992188 191.333984375 122 237.666992188 122 283 c 2
 122 391 l 1
 116 399 l 1
 4 399 l 1
 -1 406 l 1
 3 428 l 1
EndSplineSet
Validated: 1
Substitution2: "Single Substitution lookup 94 subtable" glyph639
EndChar

StartChar: g
Encoding: 103 103 72
Width: 511
GlyphClass: 1
Flags: W
LayerCount: 2
Fore
SplineSet
365 45 m 1
 356 51.9990234375 l 1
 330 37.33203125 302.833007812 23.1650390625 274.5 9.498046875 c 0
 246.166992188 -4.1689453125 216.333984375 -11.001953125 185.000976562 -11.001953125 c 0
 157.66796875 -11.001953125 133.000976562 -2.8349609375 111.000976562 13.498046875 c 0
 89.0009765625 29.8310546875 71.66796875 52.6640625 59.0009765625 81.9970703125 c 0
 46.333984375 111.330078125 40.0009765625 145.330078125 40.0009765625 183.997070312 c 0
 40.0009765625 243.330078125 50.16796875 293.997070312 70.5009765625 335.997070312 c 0
 90.833984375 377.997070312 118.333984375 409.997070312 153.000976562 431.997070312 c 0
 187.66796875 453.997070312 226.334960938 464.997070312 269.001953125 464.997070312 c 0
 289.668945312 464.997070312 310.168945312 462.497070312 330.501953125 457.497070312 c 0
 350.834960938 452.497070312 369.334960938 443.6640625 386.001953125 430.997070312 c 1
 437.001953125 459.997070312 l 1
 451.001953125 453.997070312 l 1
 449.668945312 431.330078125 448.501953125 408.830078125 447.501953125 386.497070312 c 0
 446.501953125 364.1640625 445.501953125 339.331054688 444.501953125 311.998046875 c 0
 443.501953125 284.665039062 442.834960938 252.498046875 442.501953125 215.498046875 c 0
 442.168945312 178.498046875 442.001953125 133.998046875 442.001953125 81.998046875 c 0
 442.001953125 62.6650390625 440.834960938 37.1650390625 438.501953125 5.498046875 c 0
 436.168945312 -26.1689453125 430.001953125 -56.6689453125 420.001953125 -86.001953125 c 0
 412.001953125 -108.001953125 400.334960938 -127.168945312 385.001953125 -143.501953125 c 0
 369.668945312 -159.834960938 357.001953125 -171.66796875 347.001953125 -179.000976562 c 0
 321.668945312 -198.333984375 296.001953125 -212.166992188 270.001953125 -220.5 c 0
 244.001953125 -228.833007812 215.668945312 -233 185.001953125 -233 c 0
 163.001953125 -233 140.668945312 -229.333007812 118.001953125 -222 c 0
 95.3349609375 -214.666992188 71.66796875 -199.666992188 47.0009765625 -177 c 1
 96.0009765625 -115 l 1
 110.000976562 -115 l 1
 116.000976562 -127 124.66796875 -138.833007812 136.000976562 -150.5 c 0
 147.333984375 -162.166992188 159.500976562 -172 172.500976562 -180 c 0
 185.500976562 -188 198.000976562 -192 210.000976562 -192 c 0
 245.333984375 -192 274.166992188 -181.333007812 296.5 -160 c 0
 318.833007812 -138.666992188 335.5 -110 346.5 -74 c 0
 357.5 -38 363.666992188 1.6669921875 365 45 c 1
365 98.9990234375 m 1
 364.99609375 363.000976562 l 2
 363.663085938 386.333984375 353.830078125 403.500976562 335.497070312 414.500976562 c 0
 317.1640625 425.500976562 297.331054688 431.000976562 275.998046875 431.000976562 c 0
 246.665039062 431.000976562 222.33203125 423.500976562 202.999023438 408.500976562 c 0
 183.666015625 393.500976562 168.333007812 374.16796875 157 350.500976562 c 0
 145.666992188 326.833984375 137.666992188 302.000976562 133 276.000976562 c 0
 128.333007812 250.000976562 126 225.66796875 126 203.000976562 c 0
 126 173.000976562 132 146.66796875 144 124.000976562 c 0
 156 101.333984375 170.833007812 83.6669921875 188.5 71 c 0
 206.166992188 58.3330078125 223.333984375 52 240.000976562 52 c 0
 255.333984375 52 271.166992188 54.6669921875 287.5 60 c 0
 303.833007812 65.3330078125 319 71.666015625 333 78.9990234375 c 0
 347 86.33203125 357.666992188 92.9990234375 365 98.9990234375 c 1
EndSplineSet
Validated: 1
EndChar

StartChar: h
Encoding: 104 104 73
Width: 592
GlyphClass: 1
Flags: W
LayerCount: 2
Fore
SplineSet
499 62 m 0
 518.333007812 62 535.834960938 67.3310546875 551.501953125 77.998046875 c 0
 567.168945312 88.6650390625 579.668945312 98.33203125 589.001953125 106.999023438 c 1
 602.001953125 96.9990234375 l 1
 602.001953125 85.9990234375 l 1
 580.001953125 62.666015625 555.834960938 40.8330078125 529.501953125 20.5 c 0
 503.168945312 0.1669921875 475.001953125 -10 445.001953125 -10 c 0
 421.668945312 -10 404.8359375 0.3330078125 394.502929688 21 c 0
 384.169921875 41.6669921875 379.002929688 64.333984375 379.002929688 89.0009765625 c 0
 379.002929688 107.000976562 379.3359375 127.500976562 380.002929688 150.500976562 c 0
 380.669921875 173.500976562 381.336914062 195.500976562 382.00390625 216.500976562 c 0
 382.670898438 237.500976562 383.00390625 254.000976562 383.00390625 266.000976562 c 0
 383.00390625 291.333984375 381.00390625 314.500976562 377.00390625 335.500976562 c 0
 373.00390625 356.500976562 364.836914062 373.16796875 352.50390625 385.500976562 c 0
 340.170898438 397.833984375 321.670898438 404.000976562 297.00390625 404.000976562 c 0
 269.670898438 404.000976562 244.00390625 397.500976562 220.00390625 384.500976562 c 0
 196.00390625 371.500976562 174.336914062 358.000976562 155.00390625 344.000976562 c 1
 155.00390625 289.333984375 154.670898438 234.500976562 154.00390625 179.500976562 c 0
 153.336914062 124.500976562 153.00390625 70.0009765625 153.00390625 16.0009765625 c 1
 81.00390625 -5.9990234375 l 1
 75.00390625 4.0009765625 l 1
 78.3369140625 70.0009765625 81.3369140625 136.000976562 84.00390625 202.000976562 c 0
 86.6708984375 268.000976562 88.337890625 334.000976562 89.0048828125 400.000976562 c 2
 89.0048828125 532.500976562 l 2
 89.0048828125 570.16796875 82.337890625 598.000976562 69.0048828125 616.000976562 c 0
 64.337890625 622.000976562 53.6708984375 627.16796875 37.00390625 631.500976562 c 0
 20.3369140625 635.833984375 5.3369140625 639.333984375 -7.99609375 642.000976562 c 1
 -7.99609375 660.000976562 l 1
 -2.99609375 664.000976562 l 1
 155.00390625 681.000976562 l 1
 161.00390625 674.000976562 l 1
 159.00390625 631.333984375 157.836914062 586.166992188 157.50390625 538.5 c 0
 157.170898438 490.833007812 157.00390625 444 157.00390625 398 c 1
 165.00390625 390 l 1
 194.336914062 408 226.00390625 425.166992188 260.00390625 441.5 c 0
 294.00390625 457.833007812 329.336914062 466 366.00390625 466 c 0
 373.336914062 466 383.669921875 463.666992188 397.002929688 459 c 0
 410.3359375 454.333007812 421.668945312 447.333007812 431.001953125 438 c 0
 446.334960938 424 454.16796875 400.833007812 454.500976562 368.5 c 0
 454.833984375 336.166992188 455.000976562 300 455.000976562 260 c 2
 455.000976562 186 l 2
 455.000976562 176 454.833984375 164 454.500976562 150 c 0
 454.16796875 136 455.000976562 122.333007812 457.000976562 109 c 0
 459.000976562 95.6669921875 463.16796875 84.5 469.500976562 75.5 c 0
 475.833984375 66.5 485.666992188 62 499 62 c 0
EndSplineSet
Validated: 33
EndChar

StartChar: k
Encoding: 107 107 76
Width: 516
GlyphClass: 1
Flags: W
LayerCount: 2
Fore
SplineSet
154 266 m 1
 167.000976562 266.000976562 l 1
 301.000976562 389.000976562 l 2
 327.000976562 413.000976562 346.66796875 431.000976562 360.000976562 443.000976562 c 0
 373.333984375 455.000976562 383.666992188 463.833984375 391 469.500976562 c 0
 398.333007812 475.16796875 406 480.334960938 414 485.001953125 c 1
 460 456.001953125 l 1
 460 445.001953125 l 1
 422.666992188 423.001953125 386.166992188 399.334960938 350.5 374.001953125 c 0
 314.833007812 348.668945312 280.333007812 322.001953125 247 294.001953125 c 0
 243.666992188 291.334960938 239.833984375 288.001953125 235.500976562 284.001953125 c 0
 231.16796875 280.001953125 229.000976562 276.668945312 229.000976562 274.001953125 c 0
 229.000976562 271.334960938 230.000976562 268.66796875 232.000976562 266.000976562 c 0
 234.000976562 263.333984375 235.66796875 260.666992188 237.000976562 258 c 0
 251.66796875 239.333007812 268.16796875 219.333007812 286.500976562 198 c 0
 304.833984375 176.666992188 323.333984375 156.5 342.000976562 137.5 c 0
 360.66796875 118.5 378.000976562 103 394.000976562 91 c 0
 410.000976562 79 423.000976562 73 433.000976562 73 c 0
 449.66796875 73 464.16796875 76.6669921875 476.500976562 84 c 0
 488.833984375 91.3330078125 500.333984375 100.666015625 511.000976562 111.999023438 c 1
 530.000976562 91.9990234375 l 1
 522.000976562 81.33203125 511.500976562 68.1650390625 498.500976562 52.498046875 c 0
 485.500976562 36.8310546875 470.833984375 22.998046875 454.500976562 10.998046875 c 0
 438.16796875 -1.001953125 421.000976562 -7.001953125 403.000976562 -7.001953125 c 0
 388.333984375 -7.001953125 375.666992188 -3.501953125 365 3.498046875 c 0
 354.333007812 10.498046875 340.666015625 23.3310546875 323.999023438 41.998046875 c 2
 309.499023438 61.498046875 l 2
 299.83203125 74.498046875 286.999023438 91.3310546875 270.999023438 111.998046875 c 0
 254.999023438 132.665039062 237.666015625 154.33203125 218.999023438 176.999023438 c 0
 200.33203125 199.666015625 181.999023438 220.999023438 163.999023438 240.999023438 c 1
 151.999023438 233.999023438 l 1
 151.999023438 12.9990234375 l 1
 80.9990234375 -7.0009765625 l 1
 74.9990234375 -0.0009765625 l 1
 76.9990234375 78.666015625 79.4990234375 156.666015625 82.4990234375 233.999023438 c 0
 85.4990234375 311.33203125 86.9990234375 389.33203125 86.9990234375 467.999023438 c 0
 86.9990234375 493.33203125 86.33203125 517.33203125 84.9990234375 539.999023438 c 0
 83.666015625 562.666015625 81.3330078125 580.666015625 78 593.999023438 c 0
 73.3330078125 609.33203125 64.5 619.83203125 51.5 625.499023438 c 0
 38.5 631.166015625 18.6669921875 635.333007812 -8 638 c 1
 -8 659 l 1
 -3 663 l 1
 157 686 l 1
 154 679 l 1
 154 266 l 1
EndSplineSet
Validated: 1
EndChar

StartChar: l
Encoding: 108 108 77
Width: 301
GlyphClass: 1
Flags: W
LayerCount: 2
Fore
SplineSet
289 112 m 1
 300 111.994140625 l 1
 311 99.994140625 l 1
 299.666992188 82.6611328125 286.333984375 65.328125 271.000976562 47.9951171875 c 0
 255.66796875 30.662109375 238.66796875 16.4951171875 220.000976562 5.4951171875 c 0
 201.333984375 -5.5048828125 181.000976562 -11.0048828125 159.000976562 -11.0048828125 c 0
 142.333984375 -11.0048828125 127.833984375 -7.171875 115.500976562 0.4951171875 c 0
 103.16796875 8.162109375 93.66796875 22.162109375 87.0009765625 42.4951171875 c 0
 80.333984375 62.828125 77.0009765625 91.9951171875 77.0009765625 129.995117188 c 2
 84.0009765625 507.995117188 l 2
 84.0009765625 524.662109375 83.833984375 542.495117188 83.5009765625 561.495117188 c 0
 83.16796875 580.495117188 81.66796875 595.995117188 79.0009765625 607.995117188 c 0
 77.0009765625 618.662109375 71.0009765625 625.829101562 61.0009765625 629.49609375 c 0
 51.0009765625 633.163085938 39.66796875 635.330078125 27.0009765625 635.997070312 c 0
 14.333984375 636.6640625 2.6669921875 637.331054688 -8 637.998046875 c 1
 -8 660.998046875 l 1
 -2 665.998046875 l 1
 163 685.998046875 l 1
 169 678.998046875 l 1
 167 608.998046875 164.166992188 538.998046875 160.5 468.998046875 c 0
 156.833007812 398.998046875 155 328.998046875 155 258.998046875 c 0
 155 226.331054688 154.833007812 195.331054688 154.5 165.998046875 c 0
 154.166992188 136.665039062 157.166992188 112.83203125 163.5 94.4990234375 c 0
 169.833007812 76.166015625 183 66.3330078125 203 65 c 0
 219.666992188 65 235 70.1669921875 249 80.5 c 0
 263 90.8330078125 276.333007812 101.333007812 289 112 c 1
EndSplineSet
Validated: 33
EndChar

StartChar: m
Encoding: 109 109 78
Width: 873
GlyphClass: 1
Flags: W
LayerCount: 2
Fore
SplineSet
393 -10 m 1
 382.997070312 -4.0029296875 l 1
 382.997070312 6.6640625 383.830078125 26.3310546875 385.497070312 54.998046875 c 0
 387.1640625 83.6650390625 388.831054688 116.998046875 390.498046875 154.998046875 c 0
 392.165039062 192.998046875 392.998046875 230.998046875 392.998046875 268.998046875 c 0
 392.998046875 310.331054688 387.665039062 342.498046875 376.998046875 365.498046875 c 0
 366.331054688 388.498046875 344.331054688 399.998046875 310.998046875 399.998046875 c 0
 295.665039062 399.998046875 279.498046875 396.831054688 262.498046875 390.498046875 c 0
 245.498046875 384.165039062 230.665039062 377.33203125 217.998046875 369.999023438 c 0
 205.331054688 362.666015625 197.331054688 357.999023438 193.998046875 355.999023438 c 0
 192.665039062 319.999023438 191.498046875 283.999023438 190.498046875 247.999023438 c 0
 189.498046875 211.999023438 188.998046875 175.666015625 188.998046875 138.999023438 c 0
 188.998046875 118.33203125 189.165039062 97.4990234375 189.498046875 76.4990234375 c 0
 189.831054688 55.4990234375 190.331054688 34.666015625 190.998046875 13.9990234375 c 1
 123.998046875 -10.0009765625 l 1
 109.998046875 -2.0009765625 l 1
 110.665039062 43.9990234375 111.998046875 89.9990234375 113.998046875 135.999023438 c 0
 115.998046875 181.999023438 116.998046875 227.666015625 116.998046875 272.999023438 c 0
 116.998046875 298.33203125 116.498046875 321.499023438 115.498046875 342.499023438 c 0
 114.498046875 363.499023438 111.331054688 380.33203125 105.998046875 392.999023438 c 0
 100.665039062 405.666015625 90.998046875 411.999023438 76.998046875 411.999023438 c 0
 68.998046875 411.999023438 57.3310546875 408.83203125 41.998046875 402.499023438 c 0
 26.6650390625 396.166015625 13.33203125 389.666015625 1.9990234375 382.999023438 c 1
 -10.0009765625 401.999023438 l 1
 9.9990234375 417.999023438 31.666015625 433.33203125 54.9990234375 447.999023438 c 0
 78.33203125 462.666015625 102.33203125 470.333007812 126.999023438 471 c 0
 152.33203125 471 168.999023438 463.333007812 176.999023438 448 c 0
 184.999023438 432.666992188 188.999023438 415.666992188 188.999023438 397 c 1
 196.999023438 391 l 1
 222.999023438 405 250.666015625 419.833007812 279.999023438 435.5 c 0
 309.33203125 451.166992188 338.999023438 459 368.999023438 459 c 0
 387.666015625 459 404.999023438 454.333007812 420.999023438 445 c 0
 436.999023438 435.666992188 449.666015625 423 458.999023438 407 c 1
 474.999023438 405 l 1
 487.666015625 411.666992188 502.666015625 419.333984375 519.999023438 428.000976562 c 0
 537.33203125 436.66796875 555.999023438 444.16796875 575.999023438 450.500976562 c 0
 595.999023438 456.833984375 615.666015625 460.000976562 634.999023438 460.000976562 c 0
 649.666015625 460.000976562 663.833007812 458.16796875 677.5 454.500976562 c 0
 691.166992188 450.833984375 703.333984375 443.666992188 714.000976562 433 c 0
 727.333984375 419.666992188 734.000976562 398 734.000976562 368 c 2
 734.000976562 248 l 1
 734.000976562 117 l 2
 734.000976562 108.333007812 735.16796875 98.8330078125 737.500976562 88.5 c 0
 739.833984375 78.1669921875 744.666992188 69.5 752 62.5 c 0
 759.333007812 55.5 770.333007812 52 785 52 c 0
 795.666992188 52 808.166992188 56.5 822.5 65.5 c 0
 836.833007812 74.5 850 83.3330078125 862 92 c 1
 876 92 l 1
 883 71 l 1
 868.333007812 57.6669921875 852.333007812 44 835 30 c 0
 817.666992188 16 799.666992188 4.5 781 -4.5 c 0
 762.333007812 -13.5 743 -18 723 -18 c 0
 699.666992188 -18 682.5 -9.8330078125 671.5 6.5 c 0
 660.5 22.8330078125 655 40.3330078125 655 59 c 0
 655 63 655.333007812 72.6669921875 656 88 c 0
 656.666992188 103.333007812 657.166992188 121.5 657.5 142.5 c 0
 657.833007812 163.5 658.333007812 185.166992188 659 207.5 c 0
 659.666992188 229.833007812 660 250.333007812 660 269 c 0
 660 310.333007812 654 342.5 642 365.5 c 0
 630 388.5 607.666992188 400 575 400 c 0
 550.333007812 400 529 396.333007812 511 389 c 0
 493 381.666992188 477 374 463 366 c 1
 462.333007812 343.333007812 461.833007812 320.5 461.5 297.5 c 0
 461.166992188 274.5 461 251.333007812 461 228 c 0
 461 157.333007812 463 87.3330078125 467 18 c 1
 393 -10 l 1
EndSplineSet
Validated: 1
EndChar

StartChar: n
Encoding: 110 110 79
Width: 631
GlyphClass: 2
Flags: W
AnchorPoint: "Anchor-10" 317 0 basechar 0
AnchorPoint: "Anchor-9" 317 462 basechar 0
LayerCount: 2
Fore
SplineSet
195 18 m 1
 124.994140625 -6 l 1
 109.994140625 1 l 1
 110.661132812 13.6669921875 111.494140625 32.333984375 112.494140625 57.0009765625 c 0
 113.494140625 81.66796875 114.494140625 108.834960938 115.494140625 138.501953125 c 0
 116.494140625 168.168945312 117.327148438 197.168945312 117.994140625 225.501953125 c 0
 118.661132812 253.834960938 118.994140625 278.001953125 118.994140625 298.001953125 c 0
 118.994140625 331.334960938 116.994140625 358.834960938 112.994140625 380.501953125 c 0
 108.994140625 402.168945312 98.6611328125 413.001953125 81.994140625 413.001953125 c 0
 71.3271484375 413.001953125 59.8271484375 409.501953125 47.494140625 402.501953125 c 0
 35.1611328125 395.501953125 21.6611328125 387.334960938 6.994140625 378.001953125 c 1
 -10.005859375 400.001953125 l 1
 3.994140625 410.001953125 18.994140625 420.501953125 34.994140625 431.501953125 c 0
 50.994140625 442.501953125 66.994140625 451.834960938 82.994140625 459.501953125 c 0
 98.994140625 467.168945312 112.994140625 471.001953125 124.994140625 471.001953125 c 0
 150.327148438 471.001953125 167.994140625 464.334960938 177.994140625 451.001953125 c 0
 187.994140625 437.668945312 194.327148438 421.668945312 196.994140625 403.001953125 c 1
 204.994140625 397.001953125 l 1
 232.994140625 414.334960938 263.494140625 430.66796875 296.494140625 446.000976562 c 0
 329.494140625 461.333984375 361.994140625 469.000976562 393.994140625 469.000976562 c 0
 408.661132812 469.000976562 422.828125 467.000976562 436.495117188 463.000976562 c 0
 450.162109375 459.000976562 461.662109375 451.333984375 470.995117188 440.000976562 c 0
 477.662109375 432.000976562 482.329101562 417.500976562 484.99609375 396.500976562 c 0
 487.663085938 375.500976562 489.330078125 352.16796875 489.997070312 326.500976562 c 0
 490.6640625 300.833984375 490.997070312 277.333984375 490.997070312 256.000976562 c 0
 490.997070312 206.000976562 491.1640625 166.66796875 491.497070312 138.000976562 c 0
 491.830078125 109.333984375 495.163085938 89.1669921875 501.49609375 77.5 c 0
 507.829101562 65.8330078125 520.329101562 60 538.99609375 60 c 0
 550.329101562 60 563.329101562 64.3330078125 577.99609375 73 c 0
 592.663085938 81.6669921875 606.330078125 90.6669921875 618.997070312 100 c 1
 631.997070312 100 l 1
 640.997070312 79 l 1
 618.330078125 56.3330078125 592.497070312 35.8330078125 563.497070312 17.5 c 0
 534.497070312 -0.8330078125 507.997070312 -10 483.997070312 -10 c 0
 456.6640625 -10 437.831054688 -1.3330078125 427.498046875 16 c 0
 417.165039062 33.3330078125 411.998046875 54 411.998046875 78 c 2
 416.998046875 249 l 2
 416.998046875 299 410.831054688 338.333007812 398.498046875 367 c 0
 386.165039062 395.666992188 362.33203125 410 326.999023438 410 c 0
 304.33203125 410 281.665039062 403.5 258.998046875 390.5 c 0
 236.331054688 377.5 215.998046875 363.666992188 197.998046875 349 c 1
 196.665039062 313 195.33203125 274.333007812 193.999023438 233 c 0
 192.666015625 191.666992188 191.999023438 152.666992188 191.999023438 116 c 0
 191.999023438 102 192.33203125 87.1669921875 192.999023438 71.5 c 0
 193.666015625 55.8330078125 194.333007812 38 195 18 c 1
EndSplineSet
Validated: 1
EndChar

StartChar: o
Encoding: 111 111 80
Width: 537
GlyphClass: 2
Flags: W
AnchorPoint: "Anchor-10" 269 0 basechar 0
AnchorPoint: "Anchor-9" 269 462 basechar 0
LayerCount: 2
Fore
SplineSet
431 59 m 0
 407.666992188 32.3330078125 379.166992188 13.4990234375 345.5 2.4990234375 c 0
 311.833007812 -8.5009765625 277.333007812 -14.0009765625 242 -14.0009765625 c 0
 196 -14.0009765625 159.166992188 -3.833984375 131.5 16.4990234375 c 0
 103.833007812 36.83203125 83.666015625 62.9990234375 70.9990234375 94.9990234375 c 0
 58.33203125 126.999023438 50.6650390625 160.666015625 47.998046875 195.999023438 c 0
 47.998046875 230.666015625 51.1650390625 265.333007812 57.498046875 300 c 0
 63.8310546875 334.666992188 78.998046875 365 102.998046875 391 c 0
 126.331054688 417 154.831054688 435.833007812 188.498046875 447.5 c 0
 222.165039062 459.166992188 256.33203125 465 290.999023438 465 c 0
 340.33203125 465 379.33203125 454 407.999023438 432 c 0
 436.666015625 410 457.333007812 381.666992188 470 347 c 0
 482.666992188 312.333007812 489 276.333007812 489 239 c 0
 489 206.333007812 484.833007812 174.333007812 476.5 143 c 0
 468.166992188 111.666992188 453 83.6669921875 431 59 c 0
268 425.999023438 m 0
 241.333007812 425.999023438 215.999023438 417.000976562 191.999023438 399.000976562 c 0
 167.999023438 381.000976562 151.33203125 353.333984375 141.999023438 316.000976562 c 0
 139.33203125 303.333984375 137.33203125 290.666992188 135.999023438 278 c 0
 134.666015625 265.333007812 133.999023438 252.333007812 133.999023438 239 c 0
 133.999023438 218.333007812 135.999023438 195.666015625 139.999023438 170.999023438 c 0
 143.999023438 146.33203125 150.83203125 123.165039062 160.499023438 101.498046875 c 0
 170.166015625 79.8310546875 183.833007812 61.998046875 201.5 47.998046875 c 0
 219.166992188 33.998046875 241.666992188 26.998046875 269 26.998046875 c 0
 296.333007812 26.998046875 318.5 32.998046875 335.5 44.998046875 c 0
 352.5 56.998046875 365.666992188 72.6650390625 375 91.998046875 c 0
 384.333007812 111.331054688 390.833007812 132.331054688 394.5 154.998046875 c 0
 398.166992188 177.665039062 400 199.33203125 400 219.999023438 c 0
 400 240.666015625 398.333007812 262.833007812 395 286.5 c 0
 391.666992188 310.166992188 385.5 332.666992188 376.5 354 c 0
 367.5 375.333007812 354.166992188 392.666015625 336.5 405.999023438 c 0
 318.833007812 419.33203125 296 425.999023438 268 425.999023438 c 0
EndSplineSet
Validated: 1
EndChar

StartChar: p
Encoding: 112 112 81
Width: 562
GlyphClass: 1
Flags: W
LayerCount: 2
Fore
SplineSet
203 -206 m 1
 122.000976562 -236.998046875 l 1
 112.000976562 -225.998046875 l 1
 113.333984375 -214.665039062 114.333984375 -198.165039062 115.000976562 -176.498046875 c 0
 115.66796875 -154.831054688 116.16796875 -130.998046875 116.500976562 -104.998046875 c 0
 116.833984375 -78.998046875 117.166992188 -52.8310546875 117.5 -26.498046875 c 0
 117.833007812 -0.1650390625 118 23.66796875 118 45.0009765625 c 2
 118 94.0009765625 l 1
 118 315.000976562 l 2
 118 330.333984375 116.833007812 345.333984375 114.5 360.000976562 c 0
 112.166992188 374.66796875 108.166992188 387.000976562 102.5 397.000976562 c 0
 96.8330078125 407.000976562 89 412.000976562 79 412.000976562 c 0
 68.3330078125 412.000976562 56.5 409.000976562 43.5 403.000976562 c 0
 30.5 397.000976562 18 390.333984375 6 383.000976562 c 1
 -8 402.000976562 l 1
 12 418.000976562 34.1669921875 433.333984375 58.5 448.000976562 c 0
 82.8330078125 462.66796875 106 470.000976562 128 470.000976562 c 0
 150.666992188 470.000976562 166.666992188 463.000976562 176 449.000976562 c 0
 185.333007812 435.000976562 191 417.000976562 193 395.000976562 c 1
 201 391.000976562 l 1
 228.333007812 412.333984375 257.166015625 430.000976562 287.499023438 444.000976562 c 0
 317.83203125 458.000976562 350.33203125 465.000976562 384.999023438 465.000976562 c 0
 418.999023438 465.000976562 445.999023438 456.333984375 465.999023438 439.000976562 c 0
 485.999023438 421.66796875 500.33203125 400.16796875 508.999023438 374.500976562 c 0
 517.666015625 348.833984375 521.999023438 323.333984375 521.999023438 298.000976562 c 0
 521.999023438 261.333984375 515.83203125 224.666992188 503.499023438 188 c 0
 491.166015625 151.333007812 473.499023438 118 450.499023438 88 c 0
 427.499023438 58 399.999023438 34 367.999023438 16 c 0
 335.999023438 -2 300.666015625 -11 261.999023438 -11 c 0
 242.666015625 -11 222.999023438 -8.3330078125 202.999023438 -3 c 1
 192.999023438 -11 l 1
 193.666015625 -26.3330078125 194.333007812 -46 195 -70 c 0
 195.666992188 -94 196.666992188 -118.333007812 198 -143 c 0
 199.333007812 -167.666992188 201 -188.666992188 203 -206 c 1
195.000976562 66.001953125 m 0
 207.000976562 55.3349609375 220.498046875 46.501953125 235.498046875 39.501953125 c 0
 250.498046875 32.501953125 266.331054688 29.001953125 282.998046875 29.001953125 c 0
 312.998046875 29.001953125 337.998046875 35.3349609375 357.998046875 48.001953125 c 0
 377.998046875 60.6689453125 393.831054688 77.501953125 405.498046875 98.501953125 c 0
 417.165039062 119.501953125 425.498046875 142.168945312 430.498046875 166.501953125 c 0
 435.498046875 190.834960938 437.998046875 215.001953125 437.998046875 239.001953125 c 0
 437.998046875 268.334960938 433.831054688 295.334960938 425.498046875 320.001953125 c 0
 417.165039062 344.668945312 405.33203125 364.668945312 389.999023438 380.001953125 c 0
 374.666015625 395.334960938 356.333007812 403.001953125 335 403.001953125 c 0
 309.666992188 403.001953125 286 398.001953125 264 388.001953125 c 0
 242 378.001953125 219.333007812 363.668945312 196 345.001953125 c 0
 196 343.668945312 195.833007812 338.668945312 195.5 330.001953125 c 0
 195.166992188 321.334960938 194.833984375 311.501953125 194.500976562 300.501953125 c 0
 194.16796875 289.501953125 193.834960938 279.334960938 193.501953125 270.001953125 c 0
 193.168945312 260.668945312 193.001953125 254.668945312 193.001953125 252.001953125 c 0
 193.001953125 224.668945312 193.168945312 196.668945312 193.501953125 168.001953125 c 0
 193.834960938 139.334960938 194.16796875 115.334960938 194.500976562 96.001953125 c 0
 194.833984375 76.6689453125 195.000976562 66.6689453125 195.000976562 66.001953125 c 0
EndSplineSet
Validated: 1
EndChar

StartChar: q
Encoding: 113 113 82
Width: 508
GlyphClass: 1
Flags: W
LayerCount: 2
Fore
SplineSet
451 -214 m 1
 369.998046875 -243.000976562 l 1
 353.998046875 -227.000976562 l 1
 354.665039062 -217.000976562 355.33203125 -201.333984375 355.999023438 -180.000976562 c 0
 356.666015625 -158.66796875 357.333007812 -134.334960938 358 -107.001953125 c 0
 358.666992188 -79.6689453125 359.333984375 -52.001953125 360.000976562 -24.001953125 c 0
 360.66796875 3.998046875 361.334960938 29.998046875 362.001953125 53.998046875 c 1
 355.001953125 58.998046875 l 1
 329.668945312 40.3310546875 302.501953125 24.6640625 273.501953125 11.9970703125 c 0
 244.501953125 -0.669921875 214.334960938 -7.0029296875 183.001953125 -7.0029296875 c 0
 157.001953125 -7.0029296875 134.834960938 -1.0029296875 116.501953125 10.9970703125 c 0
 98.1689453125 22.9970703125 83.3359375 38.6640625 72.0029296875 57.9970703125 c 0
 60.669921875 77.330078125 52.5029296875 98.330078125 47.5029296875 120.997070312 c 0
 42.5029296875 143.6640625 40.0029296875 165.331054688 40.0029296875 185.998046875 c 0
 40.0029296875 220.665039062 44.669921875 254.83203125 54.0029296875 288.499023438 c 0
 63.3359375 322.166015625 77.6689453125 352.833007812 97.001953125 380.5 c 0
 116.334960938 408.166992188 141.16796875 430.166992188 171.500976562 446.5 c 0
 201.833984375 462.833007812 238.000976562 471 280.000976562 471 c 0
 295.333984375 471 312.166992188 468.166992188 330.5 462.5 c 0
 348.833007812 456.833007812 365 450.333007812 379 443 c 1
 388 445 l 1
 432 504 l 1
 453 500 l 1
 448.333007812 442 444.833007812 379.5 442.5 312.5 c 0
 440.166992188 245.5 439 179 439 113 c 0
 439 52.3330078125 440 -6.1669921875 442 -62.5 c 0
 444 -118.833007812 447 -169.333007812 451 -214 c 1
361.998046875 104.999023438 m 1
 361.99609375 330.998046875 l 2
 361.99609375 343.665039062 361.329101562 356.665039062 359.99609375 369.998046875 c 0
 358.663085938 383.331054688 353.99609375 393.998046875 345.99609375 401.998046875 c 0
 337.329101562 411.331054688 327.329101562 418.998046875 315.99609375 424.998046875 c 0
 304.663085938 430.998046875 292.330078125 433.998046875 278.997070312 433.998046875 c 0
 241.6640625 433.998046875 212.1640625 423.331054688 190.497070312 401.998046875 c 0
 168.830078125 380.665039062 153.663085938 353.165039062 144.99609375 319.498046875 c 0
 136.329101562 285.831054688 131.99609375 250.331054688 131.99609375 212.998046875 c 0
 131.99609375 185.665039062 135.829101562 159.83203125 143.49609375 135.499023438 c 0
 151.163085938 111.166015625 163.330078125 91.666015625 179.997070312 76.9990234375 c 0
 196.6640625 62.33203125 218.6640625 54.9990234375 245.997070312 54.9990234375 c 0
 265.330078125 54.9990234375 285.330078125 59.666015625 305.997070312 68.9990234375 c 0
 326.6640625 78.33203125 345.331054688 90.33203125 361.998046875 104.999023438 c 1
EndSplineSet
Validated: 1
EndChar

StartChar: r
Encoding: 114 114 83
Width: 416
GlyphClass: 1
Flags: W
LayerCount: 2
Fore
SplineSet
406 388 m 1
 352.004882812 339.000976562 l 1
 340.004882812 344.000976562 l 1
 337.337890625 358.000976562 332.004882812 371.16796875 324.004882812 383.500976562 c 0
 316.004882812 395.833984375 303.671875 402.000976562 287.004882812 402.000976562 c 0
 266.337890625 402.000976562 249.670898438 395.000976562 237.00390625 381.000976562 c 0
 224.336914062 367.000976562 215.336914062 353.333984375 210.00390625 340.000976562 c 0
 205.336914062 329.333984375 202.669921875 314.000976562 202.002929688 294.000976562 c 0
 201.3359375 274.000976562 201.3359375 252.833984375 202.002929688 230.500976562 c 0
 202.669921875 208.16796875 203.002929688 188.000976562 203.002929688 170.000976562 c 0
 203.002929688 120.000976562 204.002929688 69.333984375 206.002929688 18.0009765625 c 1
 136.002929688 -2.9990234375 l 1
 121.002929688 6.0009765625 l 1
 124.3359375 41.333984375 127.168945312 79.6669921875 129.501953125 121 c 0
 131.834960938 162.333007812 133.001953125 203 133.001953125 243 c 0
 133.001953125 269 132.668945312 295 132.001953125 321 c 0
 131.334960938 347 128.001953125 368.666992188 122.001953125 386 c 0
 116.001953125 403.333007812 105.334960938 412 90.001953125 412 c 0
 78.6689453125 412 66.001953125 408.666992188 52.001953125 402 c 0
 38.001953125 395.333007812 24.6689453125 388.333007812 12.001953125 381 c 1
 0.001953125 398 l 1
 13.3349609375 408.666992188 27.8349609375 419.666992188 43.501953125 431 c 0
 59.1689453125 442.333007812 75.001953125 452.166015625 91.001953125 460.499023438 c 0
 107.001953125 468.83203125 121.668945312 472.999023438 135.001953125 472.999023438 c 0
 157.668945312 472.999023438 174.668945312 466.33203125 186.001953125 452.999023438 c 0
 197.334960938 439.666015625 204.334960938 422.333007812 207.001953125 401 c 1
 217.001953125 397 l 1
 227.001953125 406.333007812 238.168945312 416.5 250.501953125 427.5 c 0
 262.834960938 438.5 275.66796875 447.833007812 289.000976562 455.5 c 0
 302.333984375 463.166992188 315.000976562 467 327.000976562 467 c 0
 374.333984375 467 400.666992188 440.666992188 406 388 c 1
EndSplineSet
Validated: 33
EndChar

StartChar: s
Encoding: 115 115 84
Width: 379
GlyphClass: 1
Flags: W
LayerCount: 2
Fore
SplineSet
342 383 m 1
 287.001953125 345.999023438 l 1
 275.001953125 352.999023438 l 1
 273.668945312 374.999023438 268.168945312 393.499023438 258.501953125 408.499023438 c 0
 248.834960938 423.499023438 232.66796875 430.999023438 210.000976562 430.999023438 c 0
 186.66796875 430.999023438 167.16796875 423.33203125 151.500976562 407.999023438 c 0
 135.833984375 392.666015625 128.000976562 373.333007812 128.000976562 350 c 0
 128.000976562 330 137.16796875 312.833007812 155.500976562 298.5 c 0
 173.833984375 284.166992188 201.333984375 269.333984375 238.000976562 254.000976562 c 0
 276.66796875 237.333984375 305.500976562 219.666992188 324.500976562 201 c 0
 343.500976562 182.333007812 353.000976562 161.333007812 353.000976562 138 c 0
 353.000976562 104 343.500976562 75.5 324.500976562 52.5 c 0
 305.500976562 29.5 281.500976562 12.1669921875 252.500976562 0.5 c 0
 223.500976562 -11.1669921875 194.333984375 -17 165.000976562 -17 c 0
 135.000976562 -17 107.16796875 -11 81.5009765625 1 c 0
 55.833984375 13 34.6669921875 34.6669921875 18 66 c 1
 67 137 l 1
 81 136 l 1
 83 105.333007812 94.6669921875 78.5 116 55.5 c 0
 137.333007812 32.5 163.666015625 21 194.999023438 21 c 0
 216.33203125 21 235.83203125 28.5 253.499023438 43.5 c 0
 271.166015625 58.5 279.999023438 76.3330078125 279.999023438 97 c 0
 279.999023438 114.333007812 274.999023438 129 264.999023438 141 c 0
 254.999023438 153 242.499023438 163.333007812 227.499023438 172 c 0
 212.499023438 180.666992188 196.999023438 188.333984375 180.999023438 195.000976562 c 0
 160.33203125 203.66796875 140.33203125 213.66796875 120.999023438 225.000976562 c 0
 101.666015625 236.333984375 85.9990234375 250.000976562 73.9990234375 266.000976562 c 0
 61.9990234375 282.000976562 55.9990234375 301.000976562 55.9990234375 323.000976562 c 0
 55.9990234375 353.000976562 64.666015625 378.66796875 81.9990234375 400.000976562 c 0
 99.33203125 421.333984375 121.33203125 437.666992188 147.999023438 449 c 0
 174.666015625 460.333007812 201.666015625 466 228.999023438 466 c 0
 246.33203125 466 263.499023438 463.333007812 280.499023438 458 c 0
 297.499023438 452.666992188 311.83203125 444 323.499023438 432 c 0
 335.166015625 420 341.333007812 403.666992188 342 383 c 1
EndSplineSet
Validated: 1
EndChar

StartChar: t
Encoding: 116 116 85
Width: 385
GlyphClass: 1
Flags: W
LayerCount: 2
Fore
SplineSet
121 582 m 1
 204.999023438 610.99609375 l 1
 211.999023438 605.99609375 l 1
 209.33203125 577.329101562 206.999023438 549.829101562 204.999023438 523.49609375 c 0
 202.999023438 497.163085938 201.666015625 469.330078125 200.999023438 439.997070312 c 1
 206.999023438 434.997070312 l 1
 334.999023438 434.997070312 l 1
 339.999023438 430.997070312 l 1
 331.999023438 404.997070312 l 1
 325.999023438 399.997070312 l 1
 206.999023438 399.997070312 l 1
 200.999023438 393.997070312 l 1
 200.999023438 204.997070312 l 2
 200.999023438 181.6640625 202.499023438 158.331054688 205.499023438 134.998046875 c 0
 208.499023438 111.665039062 215.166015625 92.498046875 225.499023438 77.498046875 c 0
 235.83203125 62.498046875 251.33203125 54.998046875 271.999023438 54.998046875 c 0
 284.666015625 54.998046875 299.333007812 59.498046875 316 68.498046875 c 0
 332.666992188 77.498046875 348.333984375 86.6650390625 363.000976562 95.998046875 c 1
 375.000976562 93.998046875 l 1
 382.000976562 78.998046875 l 1
 359.333984375 57.6650390625 333.666992188 37.6650390625 305 18.998046875 c 0
 276.333007812 0.3310546875 247.333007812 -9.001953125 218 -9.001953125 c 0
 206.666992188 -9.001953125 194.166992188 -6.8349609375 180.5 -2.501953125 c 0
 166.833007812 1.8310546875 155.333007812 9.998046875 146 21.998046875 c 0
 139.333007812 31.3310546875 134.333007812 41.3310546875 131 51.998046875 c 0
 127.666992188 62.6650390625 125.5 79.33203125 124.5 101.999023438 c 0
 123.5 124.666015625 123 158.333007812 123 203 c 2
 123 393 l 1
 117 400 l 1
 5 400 l 1
 0 405 l 1
 7 429 l 1
 13 435 l 1
 117 435 l 1
 123 441 l 1
 123 521 l 2
 123 549 122.333007812 569.333007812 121 582 c 1
EndSplineSet
Validated: 1
EndChar

StartChar: u
Encoding: 117 117 86
Width: 638
GlyphClass: 2
Flags: W
AnchorPoint: "Anchor-10" 319 0 basechar 0
AnchorPoint: "Anchor-9" 319 462 basechar 0
LayerCount: 2
Fore
SplineSet
627 107 m 1
 635.002929688 104.999023438 l 1
 646.002929688 85.9990234375 l 1
 630.669921875 72.666015625 613.669921875 58.666015625 595.002929688 43.9990234375 c 0
 576.3359375 29.33203125 557.668945312 16.9990234375 539.001953125 6.9990234375 c 0
 520.334960938 -3.0009765625 502.334960938 -8.0009765625 485.001953125 -8.0009765625 c 0
 462.334960938 -8.0009765625 445.66796875 -1.16796875 435.000976562 12.4990234375 c 0
 424.333984375 26.166015625 418.000976562 43.3330078125 416.000976562 64 c 1
 408.000976562 65 l 1
 389.333984375 53.6669921875 369.166992188 42.1669921875 347.5 30.5 c 0
 325.833007812 18.8330078125 304.166015625 9.166015625 282.499023438 1.4990234375 c 0
 260.83203125 -6.16796875 239.999023438 -10.0009765625 219.999023438 -10.0009765625 c 0
 191.33203125 -10.0009765625 169.499023438 -3.66796875 154.499023438 8.9990234375 c 0
 139.499023438 21.666015625 129.166015625 37.3330078125 123.499023438 56 c 0
 117.83203125 74.6669921875 114.999023438 93.333984375 114.999023438 112.000976562 c 0
 114.999023438 120.000976562 115.166015625 131.66796875 115.499023438 147.000976562 c 0
 115.83203125 162.333984375 116.33203125 178.333984375 116.999023438 195.000976562 c 0
 117.666015625 211.66796875 118.166015625 227.334960938 118.499023438 242.001953125 c 0
 118.83203125 256.668945312 118.999023438 267.668945312 118.999023438 275.001953125 c 0
 118.999023438 305.668945312 118.499023438 328.8359375 117.499023438 344.502929688 c 0
 116.499023438 360.169921875 114.83203125 371.502929688 112.499023438 378.502929688 c 0
 110.166015625 385.502929688 106.666015625 391.3359375 101.999023438 396.002929688 c 0
 96.666015625 402.002929688 87.3330078125 405.002929688 74 405.002929688 c 0
 67.3330078125 405.002929688 56.666015625 401.669921875 41.9990234375 395.002929688 c 0
 27.33203125 388.3359375 14.33203125 381.668945312 2.9990234375 375.001953125 c 1
 -10.0009765625 395.001953125 l 1
 3.33203125 405.001953125 17.83203125 415.668945312 33.4990234375 427.001953125 c 0
 49.166015625 438.334960938 64.9990234375 448.001953125 80.9990234375 456.001953125 c 0
 96.9990234375 464.001953125 111.999023438 468.001953125 125.999023438 468.001953125 c 0
 151.33203125 468.001953125 168.33203125 461.001953125 176.999023438 447.001953125 c 0
 185.666015625 433.001953125 190.333007812 409.834960938 191 377.501953125 c 0
 191.666992188 345.168945312 192 300.668945312 192 244.001953125 c 0
 192 210.001953125 193.166992188 178.334960938 195.5 149.001953125 c 0
 197.833007812 119.668945312 205.166015625 96.001953125 217.499023438 78.001953125 c 0
 229.83203125 60.001953125 251.33203125 51.001953125 281.999023438 51.001953125 c 0
 304.666015625 51.001953125 327.333007812 56.8349609375 350 68.501953125 c 0
 372.666992188 80.1689453125 393.666992188 92.001953125 413 104.001953125 c 1
 413 136.668945312 413.166992188 173.501953125 413.5 214.501953125 c 0
 413.833007812 255.501953125 414 293.668945312 414 329.001953125 c 2
 414 391.501953125 l 2
 414 409.834960938 413.666992188 424.334960938 413 435.001953125 c 1
 490 470.001953125 l 1
 503 459.001953125 l 1
 495 366.334960938 491 273.66796875 491 181.000976562 c 0
 491 161.000976562 491.666992188 142.16796875 493 124.500976562 c 0
 494.333007812 106.833984375 498.5 92.5009765625 505.5 81.5009765625 c 0
 512.5 70.5009765625 524 65.0009765625 540 65.0009765625 c 0
 553.333007812 65.0009765625 568 69.66796875 584 79.0009765625 c 0
 600 88.333984375 614.333007812 97.6669921875 627 107 c 1
EndSplineSet
Validated: 1
EndChar

StartChar: v
Encoding: 118 118 87
Width: 493
GlyphClass: 1
Flags: W
LayerCount: 2
Fore
SplineSet
363 425 m 2
 413.001953125 459.999023438 l 2
 415.001953125 461.33203125 417.668945312 461.999023438 421.001953125 461.999023438 c 0
 430.334960938 461.999023438 440.334960938 452.666015625 451.001953125 433.999023438 c 0
 461.668945312 415.33203125 467.001953125 391.33203125 467.001953125 361.999023438 c 0
 467.001953125 334.666015625 461.334960938 308.499023438 450.001953125 283.499023438 c 0
 438.668945312 258.499023438 426.001953125 234.666015625 412.001953125 211.999023438 c 0
 389.334960938 175.999023438 364.501953125 141.999023438 337.501953125 109.999023438 c 0
 310.501953125 77.9990234375 282.334960938 46.9990234375 253.001953125 16.9990234375 c 2
 236.001953125 -0.0009765625 l 2
 230.001953125 -6.0009765625 225.668945312 -9.66796875 223.001953125 -11.0009765625 c 2
 199.001953125 -11.0009765625 l 1
 130.001953125 246.999023438 l 2
 122.668945312 275.666015625 114.8359375 302.166015625 106.502929688 326.499023438 c 0
 98.169921875 350.83203125 89.669921875 370.499023438 81.0029296875 385.499023438 c 0
 72.3359375 400.499023438 62.6689453125 407.999023438 52.001953125 407.999023438 c 0
 41.3349609375 407.999023438 31.001953125 406.166015625 21.001953125 402.499023438 c 0
 11.001953125 398.83203125 0.3349609375 393.665039062 -10.998046875 386.998046875 c 1
 -19.998046875 410.998046875 l 1
 -1.998046875 423.665039062 18.501953125 436.498046875 41.501953125 449.498046875 c 0
 64.501953125 462.498046875 85.6689453125 468.998046875 105.001953125 468.998046875 c 0
 122.334960938 468.998046875 136.001953125 461.831054688 146.001953125 447.498046875 c 0
 156.001953125 433.165039062 164.834960938 412.83203125 172.501953125 386.499023438 c 0
 180.168945312 360.166015625 188.668945312 328.999023438 198.001953125 292.999023438 c 0
 202.001953125 278.33203125 206.668945312 259.165039062 212.001953125 235.498046875 c 0
 217.334960938 211.831054688 223.16796875 188.331054688 229.500976562 164.998046875 c 0
 235.833984375 141.665039062 242.166992188 121.998046875 248.5 105.998046875 c 0
 254.833007812 89.998046875 260.666015625 81.998046875 265.999023438 81.998046875 c 0
 268.666015625 81.998046875 272.333007812 84.6650390625 277 89.998046875 c 0
 281.666992188 95.3310546875 286 99.998046875 290 103.998046875 c 0
 306.666992188 123.998046875 323.166992188 145.498046875 339.5 168.498046875 c 0
 355.833007812 191.498046875 369.5 215.331054688 380.5 239.998046875 c 0
 391.5 264.665039062 397 288.665039062 397 311.998046875 c 0
 397 327.998046875 393 344.665039062 385 361.998046875 c 0
 377 379.331054688 368.666992188 395.998046875 360 411.998046875 c 0
 359.333007812 412.665039062 359 414.33203125 359 416.999023438 c 0
 359 419.666015625 360.333007812 422.333007812 363 425 c 2
EndSplineSet
Validated: 1
EndChar

